NotoSansMono.glyphspackage
{
category = Punctuation;
glyphname = quotedbl;
layers = (
{
layerId = UUID0;
shapes = (
{
closed = 1;
nodes = (
(420,456,l),
(440,714,l),
(345,714,l),
(365,456,l)
);
},
{
closed = 1;
nodes = (
(235,456,l),
(255,714,l),
(160,714,l),
(180,456,l)
);
}
);
width = 600;
},
{
layerId = "A3018D0F-8B4B-4295-AE04-84912D9BB11D";
shapes = (
{
closed = 1;
nodes = (
(451,456,l),
(470,714,l),
(331,714,l),
(350,456,l)
);
},
{
closed = 1;
nodes = (
(250,456,l),
(269,714,l),
(130,714,l),
(149,456,l)
);
}
);
width = 600;
},
{
layerId = "963C7F4A-CFE2-43FC-8D10-B7434095D111";
shapes = (
{
closed = 1;
nodes = (
(480,456,l),
(500,714,l),
(326,714,l),
(346,456,l)
);
},
{
closed = 1;
nodes = (
(254,456,l),
(274,714,l),
(100,714,l),
(120,456,l)
);
}
);
width = 600;
},
{
layerId = "02EF4DD5-EF93-4764-9336-ED93C6797AC3";
shapes = (
{
closed = 1;
nodes = (
(383,456,l),
(387,714,l),
(359,714,l),
(363,456,l)
);
},
{
closed = 1;
nodes = (
(237,456,l),
(241,714,l),
(213,714,l),
(217,456,l)
);
}
);
width = 600;
},
{
layerId = "82FB5ACD-33BC-4284-9837-1B4D88A7F1E9";
shapes = (
{
closed = 1;
nodes = (
(333,456,l),
(337,714,l),
(309,714,l),
(313,456,l)
);
},
{
closed = 1;
nodes = (
(187,456,l),
(191,714,l),
(163,714,l),
(167,456,l)
);
}
);
width = 500;
},
{
layerId = "C5665599-2906-40DA-AF7F-7DBC0844951A";
shapes = (
{
closed = 1;
nodes = (
(366,456,l),
(382,714,l),
(288,714,l),
(305,456,l)
);
},
{
closed = 1;
nodes = (
(196,456,l),
(212,714,l),
(118,714,l),
(135,456,l)
);
}
);
width = 500;
},
{
layerId = "28AE7390-0F8D-4D03-A566-30BDF518EAE7";
shapes = (
{
closed = 1;
nodes = (
(399,456,l),
(418,714,l),
(283,714,l),
(301,456,l)
);
},
{
closed = 1;
nodes = (
(197,456,l),
(216,714,l),
(81,714,l),
(100,456,l)
);
}
);
width = 500;
},
{
layerId = "35DC4C3B-953E-41FE-A906-9781CEBB9B49";
shapes = (
{
closed = 1;
nodes = (
(419,456,l),
(438,714,l),
(280,714,l),
(300,456,l)
);
},
{
closed = 1;
nodes = (
(199,456,l),
(219,714,l),
(61,714,l),
(80,456,l)
);
}
);
width = 500;
}
);
script = "";
subCategory = Other;
unicode = 34;
}
{
category = Punctuation;
glyphname = quotesingle;
layers = (
{
layerId = UUID0;
shapes = (
{
closed = 1;
nodes = (
(327,456,l),
(347,714,l),
(252,714,l),
(272,456,l)
);
}
);
width = 600;
},
{
layerId = "A3018D0F-8B4B-4295-AE04-84912D9BB11D";
shapes = (
{
closed = 1;
nodes = (
(350,456,l),
(369,714,l),
(230,714,l),
(249,456,l)
);
}
);
width = 600;
},
{
layerId = "963C7F4A-CFE2-43FC-8D10-B7434095D111";
shapes = (
{
closed = 1;
nodes = (
(367,456,l),
(387,714,l),
(213,714,l),
(233,456,l)
);
}
);
width = 600;
},
{
layerId = "02EF4DD5-EF93-4764-9336-ED93C6797AC3";
shapes = (
{
closed = 1;
nodes = (
(310,456,l),
(314,714,l),
(286,714,l),
(290,456,l)
);
}
);
width = 600;
},
{
layerId = "82FB5ACD-33BC-4284-9837-1B4D88A7F1E9";
shapes = (
{
closed = 1;
nodes = (
(260,456,l),
(264,714,l),
(236,714,l),
(240,456,l)
);
}
);
width = 500;
},
{
layerId = "C5665599-2906-40DA-AF7F-7DBC0844951A";
shapes = (
{
closed = 1;
nodes = (
(281,456,l),
(297,714,l),
(203,714,l),
(220,456,l)
);
}
);
width = 500;
},
{
layerId = "28AE7390-0F8D-4D03-A566-30BDF518EAE7";
shapes = (
{
closed = 1;
nodes = (
(298,456,l),
(317,714,l),
(182,714,l),
(201,456,l)
);
}
);
width = 500;
},
{
layerId = "35DC4C3B-953E-41FE-A906-9781CEBB9B49";
shapes = (
{
closed = 1;
nodes = (
(309,456,l),
(329,714,l),
(171,714,l),
(190,456,l)
);
}
);
width = 500;
}
);
script = "";
subCategory = Other;
unicode = 39;
}
{
category = Symbol;
glyphname = plus;
layers = (
{
layerId = UUID0;
shapes = (
{
closed = 1;
nodes = (
(337,121,l),
(337,317,l),
(520,317,l),
(520,388,l),
(337,388,l),
(337,585,l),
(265,585,l),
(265,388,l),
(80,388,l),
(80,317,l),
(265,317,l),
(265,121,l)
);
}
);
width = 600;
},
{
layerId = "A3018D0F-8B4B-4295-AE04-84912D9BB11D";
shapes = (
{
closed = 1;
nodes = (
(355,117,l),
(355,300,l),
(530,300,l),
(530,406,l),
(355,406,l),
(355,592,l),
(248,592,l),
(248,406,l),
(70,406,l),
(70,300,l),
(248,300,l),
(248,117,l)
);
}
);
width = 600;
},
{
layerId = "963C7F4A-CFE2-43FC-8D10-B7434095D111";
shapes = (
{
closed = 1;
nodes = (
(366,111,l),
(366,287,l),
(530,287,l),
(530,418,l),
(366,418,l),
(366,597,l),
(233,597,l),
(233,418,l),
(70,418,l),
(70,287,l),
(233,287,l),
(233,111,l)
);
}
);
width = 600;
},
{
layerId = "02EF4DD5-EF93-4764-9336-ED93C6797AC3";
shapes = (
{
closed = 1;
nodes = (
(312,123,l),
(312,341,l),
(530,341,l),
(530,365,l),
(312,365,l),
(312,583,l),
(288,583,l),
(288,365,l),
(70,365,l),
(70,341,l),
(288,341,l),
(288,123,l)
);
}
);
width = 600;
},
{
layerId = "82FB5ACD-33BC-4284-9837-1B4D88A7F1E9";
shapes = (
{
closed = 1;
nodes = (
(255,123,l),
(255,340,l),
(442,340,l),
(442,364,l),
(255,364,l),
(255,583,l),
(231,583,l),
(231,364,l),
(42,364,l),
(42,340,l),
(231,340,l),
(231,123,l)
);
}
);
width = 500;
},
{
layerId = "C5665599-2906-40DA-AF7F-7DBC0844951A";
shapes = (
{
closed = 1;
nodes = (
(285,119,l),
(285,319,l),
(434,319,l),
(434,387,l),
(285,387,l),
(285,588,l),
(216,588,l),
(216,387,l),
(66,387,l),
(66,319,l),
(216,319,l),
(216,119,l)
);
}
);
width = 500;
},
{
layerId = "28AE7390-0F8D-4D03-A566-30BDF518EAE7";
shapes = (
{
closed = 1;
nodes = (
(301,115,l),
(301,303,l),
(450,303,l),
(450,403,l),
(301,403,l),
(301,593,l),
(200,593,l),
(200,403,l),
(50,403,l),
(50,303,l),
(200,303,l),
(200,115,l)
);
}
);
width = 500;
},
{
layerId = "35DC4C3B-953E-41FE-A906-9781CEBB9B49";
shapes = (
{
closed = 1;
nodes = (
(311,113,l),
(311,294,l),
(460,294,l),
(460,412,l),
(311,412,l),
(311,595,l),
(190,595,l),
(190,412,l),
(40,412,l),
(40,294,l),
(190,294,l),
(190,113,l)
);
}
);
width = 500;
}
);
script = "";
subCategory = Math;
unicode = 43;
}
{
category = Number;
glyphname = three;
layers = (
{
layerId = UUID0;
shapes = (
{
closed = 1;
nodes = (
(444,-10,o),
(525,78,o),
(525,198,cs),
(525,300,o),
(466,358,o),
(354,373,c),
(354,376,l),
(443,391,o),
(503,451,o),
(503,547,cs),
(503,650,o),
(432,724,o),
(294,724,cs),
(202,724,o),
(128,691,o),
(77,651,c),
(122,590,l),
(162,617,o),
(220,645,o),
(288,645,cs),
(369,645,o),
(412,606,o),
(412,539,cs),
(412,462,o),
(356,409,o),
(253,409,cs),
(179,409,l),
(179,329,l),
(253,329,ls),
(368,329,o),
(434,294,o),
(434,203,cs),
(434,123,o),
(383,69,o),
(267,69,cs),
(204,69,o),
(132,85,o),
(74,114,c),
(74,29,l),
(132,-1,o),
(203,-10,o),
(261,-10,cs)
);
}
);
width = 600;
},
{
layerId = "A3018D0F-8B4B-4295-AE04-84912D9BB11D";
shapes = (
{
closed = 1;
nodes = (
(418,-10,o),
(535,55,o),
(535,208,cs),
(535,300,o),
(487,357,o),
(375,373,c),
(375,376,l),
(465,399,o),
(514,470,o),
(514,553,cs),
(514,674,o),
(411,724,o),
(297,724,cs),
(217,724,o),
(136,699,o),
(69,654,c),
(134,550,l),
(198,585,o),
(247,600,o),
(289,600,cs),
(354,600,o),
(376,565,o),
(376,521,cs),
(376,459,o),
(332,425,o),
(230,425,cs),
(175,425,l),
(175,309,l),
(229,309,ls),
(343,309,o),
(387,284,o),
(387,215,cs),
(387,148,o),
(346,112,o),
(262,112,cs),
(204,112,o),
(130,129,o),
(71,157,c),
(71,29,l),
(135,3,o),
(208,-10,o),
(273,-10,cs)
);
}
);
width = 600;
},
{
layerId = "963C7F4A-CFE2-43FC-8D10-B7434095D111";
shapes = (
{
closed = 1;
nodes = (
(425,-9,o),
(540,79,o),
(540,208,cs),
(540,307,o),
(473,352,o),
(395,367,c),
(395,370,l),
(457,397,o),
(518,451,o),
(518,549,cs),
(518,663,o),
(435,724,o),
(294,724,cs),
(202,724,o),
(123,698,o),
(60,655,c),
(131,534,l),
(174,559,o),
(230,579,o),
(278,579,cs),
(323,579,o),
(356,562,o),
(356,511,cs),
(356,456,o),
(317,431,o),
(194,431,cs),
(153,431,l),
(153,289,l),
(193,289,ls),
(327,289,o),
(364,265,o),
(364,214,cs),
(364,162,o),
(326,130,o),
(252,130,cs),
(199,130,o),
(124,147,o),
(62,177,c),
(62,28,l),
(129,2,o),
(196,-9,o),
(256,-9,cs)
);
}
);
width = 600;
},
{
layerId = "02EF4DD5-EF93-4764-9336-ED93C6797AC3";
shapes = (
{
closed = 1;
nodes = (
(441,-10,o),
(522,72,o),
(522,195,cs),
(522,300,o),
(463,358,o),
(358,373,c),
(358,375,l),
(440,391,o),
(500,455,o),
(500,554,cs),
(500,661,o),
(424,724,o),
(311,724,cs),
(230,724,o),
(165,695,o),
(106,650,c),
(121,630,l),
(186,677,o),
(243,699,o),
(310,699,cs),
(409,699,o),
(473,651,o),
(473,553,cs),
(473,434,o),
(380,384,o),
(279,384,cs),
(196,384,l),
(196,359,l),
(279,359,ls),
(406,359,o),
(495,314,o),
(495,194,cs),
(495,85,o),
(423,15,o),
(288,15,cs),
(216,15,o),
(148,35,o),
(98,60,c),
(98,32,l),
(149,8,o),
(215,-10,o),
(284,-10,cs)
);
}
);
width = 600;
},
{
layerId = "82FB5ACD-33BC-4284-9837-1B4D88A7F1E9";
shapes = (
{
closed = 1;
nodes = (
(368,-10,o),
(438,71,o),
(438,189,cs),
(438,296,o),
(381,355,o),
(289,372,c),
(289,374,l),
(361,392,o),
(423,455,o),
(423,553,cs),
(423,660,o),
(349,724,o),
(245,724,cs),
(170,724,o),
(113,697,o),
(66,658,c),
(81,638,l),
(130,677,o),
(182,700,o),
(245,700,cs),
(335,700,o),
(396,649,o),
(396,553,cs),
(396,441,o),
(312,384,o),
(218,384,cs),
(155,384,l),
(155,359,l),
(217,359,ls),
(326,359,o),
(411,314,o),
(411,189,cs),
(411,81,o),
(347,15,o),
(228,15,cs),
(168,15,o),
(106,33,o),
(64,53,c),
(64,26,l),
(109,5,o),
(168,-10,o),
(228,-10,cs)
);
}
);
width = 500;
},
{
layerId = "C5665599-2906-40DA-AF7F-7DBC0844951A";
shapes = (
{
closed = 1;
nodes = (
(360,-10,o),
(441,78,o),
(441,201,cs),
(441,298,o),
(391,359,o),
(294,373,c),
(294,376,l),
(377,391,o),
(423,457,o),
(423,544,cs),
(423,651,o),
(353,724,o),
(234,724,cs),
(167,724,o),
(105,701,o),
(59,662,c),
(99,602,l),
(140,634,o),
(185,651,o),
(230,651,cs),
(300,651,o),
(335,610,o),
(335,542,cs),
(335,461,o),
(287,405,o),
(198,405,cs),
(145,405,l),
(145,333,l),
(197,333,ls),
(298,333,o),
(350,294,o),
(350,203,cs),
(350,119,o),
(306,63,o),
(210,63,cs),
(157,63,o),
(99,80,o),
(53,110,c),
(53,29,l),
(100,0,o),
(157,-10,o),
(208,-10,cs)
);
}
);
width = 500;
},
{
layerId = "28AE7390-0F8D-4D03-A566-30BDF518EAE7";
shapes = (
{
closed = 1;
nodes = (
(369,-10,o),
(448,72,o),
(448,198,cs),
(448,294,o),
(402,353,o),
(314,372,c),
(314,375,l),
(387,403,o),
(434,457,o),
(434,549,cs),
(434,660,o),
(365,724,o),
(245,724,cs),
(171,724,o),
(113,700,o),
(63,658,c),
(114,567,l),
(153,599,o),
(187,615,o),
(227,615,cs),
(281,615,o),
(310,585,o),
(310,530,cs),
(310,462,o),
(265,420,o),
(182,420,cs),
(145,420,l),
(145,314,l),
(181,314,ls),
(274,314,o),
(316,279,o),
(316,205,cs),
(316,139,o),
(282,99,o),
(208,99,cs),
(162,99,o),
(112,114,o),
(64,142,c),
(64,23,l),
(109,2,o),
(160,-10,o),
(218,-10,cs)
);
}
);
width = 500;
},
{
layerId = "35DC4C3B-953E-41FE-A906-9781CEBB9B49";
shapes = (
{
closed = 1;
nodes = (
(370,-10,o),
(461,71,o),
(461,203,cs),
(461,297,o),
(415,353,o),
(322,373,c),
(322,376,l),
(402,407,o),
(445,460,o),
(445,547,cs),
(445,662,o),
(369,724,o),
(239,724,cs),
(158,724,o),
(93,700,o),
(39,657,c),
(100,535,l),
(140,565,o),
(176,580,o),
(215,580,cs),
(259,580,o),
(281,560,o),
(281,519,cs),
(281,464,o),
(242,435,o),
(160,435,cs),
(123,435,l),
(123,296,l),
(159,296,ls),
(248,296,o),
(284,273,o),
(284,213,cs),
(284,158,o),
(254,134,o),
(191,134,cs),
(141,134,o),
(89,149,o),
(38,181,c),
(38,27,l),
(102,-2,o),
(154,-10,o),
(206,-10,cs)
);
}
);
width = 500;
}
);
script = "";
subCategory = "Decimal Digit";
unicode = 51;
}
{
category = Number;
glyphname = seven;
layers = (
{
layerId = UUID0;
shapes = (
{
closed = 1;
nodes = (
(269,0,l),
(540,643,l),
(540,714,l),
(60,714,l),
(60,634,l),
(449,634,l),
(174,0,l)
);
}
);
width = 600;
},
{
layerId = "A3018D0F-8B4B-4295-AE04-84912D9BB11D";
shapes = (
{
closed = 1;
nodes = (
(280,0,l),
(550,618,l),
(550,713,l),
(50,713,l),
(50,590,l),
(390,590,l),
(122,0,l)
);
}
);
width = 600;
},
{
layerId = "963C7F4A-CFE2-43FC-8D10-B7434095D111";
shapes = (
{
closed = 1;
nodes = (
(307,0,l),
(560,599,l),
(560,714,l),
(40,714,l),
(40,564,l),
(373,564,l),
(119,0,l)
);
}
);
width = 600;
},
{
layerId = "02EF4DD5-EF93-4764-9336-ED93C6797AC3";
shapes = (
{
closed = 1;
nodes = (
(242,0,l),
(510,697,l),
(510,714,l),
(128,714,l),
(128,689,l),
(480,689,l),
(213,0,l)
);
}
);
width = 600;
},
{
layerId = "82FB5ACD-33BC-4284-9837-1B4D88A7F1E9";
shapes = (
{
closed = 1;
nodes = (
(173,0,l),
(428,695,l),
(428,714,l),
(53,714,l),
(53,689,l),
(400,689,l),
(144,0,l)
);
}
);
width = 500;
},
{
layerId = "C5665599-2906-40DA-AF7F-7DBC0844951A";
shapes = (
{
closed = 1;
nodes = (
(219,0,l),
(447,644,l),
(447,714,l),
(50,714,l),
(50,635,l),
(355,635,l),
(126,0,l)
);
}
);
width = 500;
},
{
layerId = "28AE7390-0F8D-4D03-A566-30BDF518EAE7";
shapes = (
{
closed = 1;
nodes = (
(251,0,l),
(456,626,l),
(456,714,l),
(64,714,l),
(64,602,l),
(328,602,l),
(118,0,l)
);
}
);
width = 500;
},
{
layerId = "35DC4C3B-953E-41FE-A906-9781CEBB9B49";
shapes = (
{
closed = 1;
nodes = (
(262,0,l),
(459,599,l),
(459,713,l),
(37,713,l),
(37,566,l),
(289,566,l),
(85,0,l)
);
}
);
width = 500;
}
);
script = "";
subCategory = "Decimal Digit";
unicode = 55;
}
{
category = Number;
glyphname = nine;
layers = (
{
layerId = UUID0;
shapes = (
{
closed = 1;
nodes = (
(484,-10,o),
(540,211,o),
(540,391,cs),
(540,626,o),
(441,724,o),
(294,724,cs),
(150,724,o),
(60,633,o),
(60,488,cs),
(60,343,o),
(144,262,o),
(278,262,cs),
(361,262,o),
(418,300,o),
(445,350,c),
(451,350,l),
(445,196,o),
(394,66,o),
(213,66,cs),
(181,66,o),
(152,70,o),
(129,78,c),
(129,-1,l),
(151,-7,o),
(186,-10,o),
(217,-10,cs)
);
},
{
closed = 1;
nodes = (
(199,332,o),
(146,379,o),
(146,487,cs),
(146,596,o),
(203,649,o),
(293,649,cs),
(403,649,o),
(451,545,o),
(451,477,cs),
(451,392,o),
(381,332,o),
(287,332,cs)
);
}
);
width = 600;
},
{
layerId = "A3018D0F-8B4B-4295-AE04-84912D9BB11D";
shapes = (
{
closed = 1;
nodes = (
(429,-10,o),
(545,126,o),
(545,394,cs),
(545,608,o),
(445,725,o),
(291,725,cs),
(142,725,o),
(55,628,o),
(55,474,cs),
(55,337,o),
(122,250,o),
(248,250,cs),
(319,250,o),
(368,277,o),
(399,331,c),
(405,331,l),
(394,190,o),
(338,108,o),
(193,108,cs),
(161,108,o),
(132,111,o),
(103,118,c),
(103,-3,l),
(126,-8,o),
(158,-10,o),
(187,-10,cs)
);
},
{
closed = 1;
nodes = (
(230,366,o),
(201,407,o),
(201,476,cs),
(201,557,o),
(234,598,o),
(294,598,cs),
(356,598,o),
(395,551,o),
(395,479,cs),
(395,408,o),
(347,366,o),
(291,366,cs)
);
}
);
width = 600;
},
{
layerId = "963C7F4A-CFE2-43FC-8D10-B7434095D111";
shapes = (
{
closed = 1;
nodes = (
(491,-10,o),
(555,202,o),
(555,412,cs),
(555,617,o),
(447,724,o),
(291,724,cs),
(141,724,o),
(45,627,o),
(45,470,cs),
(45,323,o),
(123,238,o),
(238,238,cs),
(303,238,o),
(358,270,o),
(382,321,c),
(387,321,l),
(380,197,o),
(311,135,o),
(188,135,cs),
(158,135,o),
(123,138,o),
(89,144,c),
(89,-2,l),
(126,-7,o),
(173,-10,o),
(208,-10,cs)
);
},
{
closed = 1;
nodes = (
(246,382,o),
(223,417,o),
(223,479,cs),
(223,546,o),
(254,575,o),
(295,575,cs),
(343,575,o),
(372,536,o),
(372,481,cs),
(372,428,o),
(346,382,o),
(293,382,cs)
);
}
);
width = 600;
},
{
layerId = "02EF4DD5-EF93-4764-9336-ED93C6797AC3";
shapes = (
{
closed = 1;
nodes = (
(388,-10,o),
(507,108,o),
(507,401,cs),
(507,569,o),
(448,726,o),
(287,726,cs),
(157,726,o),
(83,630,o),
(83,491,cs),
(83,361,o),
(154,277,o),
(280,277,cs),
(390,277,o),
(453,336,o),
(481,394,c),
(483,394,l),
(477,112,o),
(367,15,o),
(229,15,cs),
(187,15,o),
(145,22,o),
(121,31,c),
(121,3,l),
(148,-5,o),
(187,-10,o),
(229,-10,cs)
);
},
{
closed = 1;
nodes = (
(167,302,o),
(110,374,o),
(110,491,cs),
(110,621,o),
(172,701,o),
(287,701,cs),
(441,701,o),
(476,537,o),
(476,458,cs),
(476,389,o),
(402,302,o),
(282,302,cs)
);
}
);
width = 600;
},
{
layerId = "82FB5ACD-33BC-4284-9837-1B4D88A7F1E9";
shapes = (
{
closed = 1;
nodes = (
(331,-10,o),
(439,96,o),
(439,408,cs),
(439,594,o),
(385,725,o),
(246,725,cs),
(131,725,o),
(66,636,o),
(66,492,cs),
(66,363,o),
(127,276,o),
(242,276,cs),
(342,276,o),
(393,336,o),
(411,380,c),
(413,380,l),
(410,131,o),
(320,16,o),
(190,16,cs),
(156,16,o),
(121,22,o),
(100,30,c),
(100,3,l),
(122,-5,o),
(156,-10,o),
(190,-10,cs)
);
},
{
closed = 1;
nodes = (
(141,301,o),
(93,376,o),
(93,491,cs),
(93,623,o),
(147,700,o),
(247,700,cs),
(381,700,o),
(408,545,o),
(408,466,cs),
(408,379,o),
(348,301,o),
(242,301,cs)
);
}
);
width = 500;
},
{
layerId = "C5665599-2906-40DA-AF7F-7DBC0844951A";
shapes = (
{
closed = 1;
nodes = (
(370,-10,o),
(443,203,o),
(443,410,cs),
(443,623,o),
(365,724,o),
(242,724,cs),
(125,724,o),
(54,633,o),
(54,485,cs),
(54,346,o),
(117,268,o),
(219,268,cs),
(285,268,o),
(323,300,o),
(354,351,c),
(358,351,l),
(352,195,o),
(296,61,o),
(165,61,c),
(142,61,o),
(117,65,o),
(97,74,c),
(97,-1,l),
(115,-7,o),
(143,-10,o),
(167,-10,cs)
);
},
{
closed = 1;
nodes = (
(173,336,o),
(138,392,o),
(138,489,cs),
(138,594,o),
(179,651,o),
(242,651,cs),
(325,651,o),
(356,550,o),
(356,481,cs),
(356,384,o),
(296,336,o),
(237,336,cs)
);
}
);
width = 500;
},
{
layerId = "28AE7390-0F8D-4D03-A566-30BDF518EAE7";
shapes = (
{
closed = 1;
nodes = (
(389,-10,o),
(453,168,o),
(453,415,cs),
(453,611,o),
(380,724,o),
(255,724,cs),
(130,724,o),
(64,624,o),
(64,479,cs),
(64,343,o),
(117,249,o),
(218,249,cs),
(270,249,o),
(308,279,o),
(331,331,c),
(335,331,l),
(330,192,o),
(290,97,o),
(177,97,cs),
(148,97,o),
(121,101,o),
(97,109,c),
(97,0,l),
(123,-6,o),
(157,-10,o),
(187,-10,cs)
);
},
{
closed = 1;
nodes = (
(211,358,o),
(189,400,o),
(189,482,cs),
(189,571,o),
(216,614,o),
(256,614,cs),
(315,614,o),
(325,514,o),
(325,465,cs),
(325,416,o),
(305,358,o),
(254,358,cs)
);
}
);
width = 500;
},
{
layerId = "35DC4C3B-953E-41FE-A906-9781CEBB9B49";
shapes = (
{
closed = 1;
nodes = (
(393,-10,o),
(462,186,o),
(462,403,cs),
(462,608,o),
(377,724,o),
(240,724,cs),
(108,724,o),
(30,626,o),
(30,470,cs),
(30,326,o),
(89,238,o),
(191,238,cs),
(243,238,o),
(280,266,o),
(303,321,c),
(308,321,l),
(304,187,o),
(254,130,o),
(151,130,cs),
(121,130,o),
(92,133,o),
(65,140,c),
(65,-1,l),
(98,-7,o),
(132,-10,o),
(167,-10,cs)
);
},
{
closed = 1;
nodes = (
(211,378,o),
(195,410,o),
(195,473,cs),
(195,548,o),
(211,580,o),
(243,580,cs),
(272,580,o),
(294,547,o),
(294,462,cs),
(294,430,o),
(281,378,o),
(242,378,cs)
);
}
);
width = 500;
}
);
script = "";
subCategory = "Decimal Digit";
unicode = 57;
}
{
category = Symbol;
glyphname = at;
layers = (
{
layerId = UUID0;
shapes = (
{
closed = 1;
nodes = (
(396,-89,o),
(448,-73,o),
(496,-49,c),
(496,16,l),
(449,-6,o),
(394,-22,o),
(327,-22,cs),
(166,-22,o),
(84,100,o),
(84,297,cs),
(84,508,o),
(165,648,o),
(318,648,cs),
(437,648,o),
(518,543,o),
(518,358,cs),
(518,256,o),
(505,171,o),
(469,171,cs),
(451,171,o),
(434,188,o),
(434,257,cs),
(434,267,o),
(434,283,o),
(435,294,cs),
(446,497,l),
(421,508,o),
(369,520,o),
(321,520,cs),
(215,520,o),
(149,427,o),
(149,296,cs),
(149,184,o),
(195,108,o),
(276,108,cs),
(332,108,o),
(369,147,o),
(388,196,c),
(390,196,l),
(396,150,o),
(422,108,o),
(467,108,cs),
(554,108,o),
(585,235,o),
(585,357,cs),
(585,578,o),
(480,714,o),
(319,714,cs),
(121,714,o),
(15,539,o),
(15,294,cs),
(15,61,o),
(123,-89,o),
(324,-89,cs)
);
},
{
closed = 1;
nodes = (
(252,171,o),
(227,207,o),
(227,294,cs),
(227,375,o),
(251,457,o),
(317,457,cs),
(336,457,o),
(354,452,o),
(367,447,c),
(360,323,ls),
(355,233,o),
(338,171,o),
(289,171,cs)
);
}
);
width = 600;
},
{
layerId = "A3018D0F-8B4B-4295-AE04-84912D9BB11D";
shapes = (
{
closed = 1;
nodes = (
(389,-89,o),
(448,-74,o),
(496,-49,c),
(496,35,l),
(444,11,o),
(378,-6,o),
(315,-6,cs),
(178,-6,o),
(98,99,o),
(98,289,cs),
(98,487,o),
(181,632,o),
(326,632,cs),
(429,632,o),
(503,543,o),
(503,363,cs),
(503,270,o),
(486,197,o),
(460,197,cs),
(444,197,o),
(434,211,o),
(435,265,cs),
(435,277,o),
(435,286,o),
(436,296,cs),
(446,493,l),
(409,506,o),
(362,520,o),
(316,520,cs),
(214,520,o),
(154,428,o),
(154,299,cs),
(154,185,o),
(198,108,o),
(276,108,cs),
(321,108,o),
(351,135,o),
(370,165,c),
(372,165,l),
(386,132,o),
(413,108,o),
(454,108,cs),
(549,108,o),
(600,227,o),
(600,365,cs),
(600,576,o),
(489,714,o),
(326,714,cs),
(121,714,o),
(0,527,o),
(0,282,cs),
(0,52,o),
(119,-89,o),
(320,-89,cs)
);
},
{
closed = 1;
nodes = (
(262,197,o),
(249,226,o),
(249,297,cs),
(249,364,o),
(266,431,o),
(320,431,cs),
(328,431,o),
(339,429,o),
(346,426,c),
(341,326,ls),
(337,253,o),
(324,197,o),
(289,197,cs)
);
}
);
width = 600;
},
{
layerId = "963C7F4A-CFE2-43FC-8D10-B7434095D111";
shapes = (
{
closed = 1;
nodes = (
(382,-88,o),
(444,-74,o),
(494,-49,c),
(494,46,l),
(436,22,o),
(380,9,o),
(322,9,cs),
(170,9,o),
(98,121,o),
(98,293,cs),
(98,483,o),
(185,615,o),
(320,615,cs),
(440,615,o),
(502,516,o),
(502,361,cs),
(502,275,o),
(486,204,o),
(464,204,cs),
(455,204,o),
(448,219,o),
(448,258,cs),
(448,266,o),
(449,287,o),
(449,299,cs),
(456,490,l),
(422,505,o),
(374,520,o),
(325,520,cs),
(210,520,o),
(148,426,o),
(148,297,cs),
(148,185,o),
(193,108,o),
(275,108,cs),
(316,108,o),
(345,128,o),
(371,166,c),
(376,166,l),
(392,124,o),
(424,108,o),
(458,108,cs),
(555,108,o),
(600,235,o),
(600,369,cs),
(600,574,o),
(487,714,o),
(317,714,cs),
(126,714,o),
(0,542,o),
(0,287,cs),
(0,57,o),
(118,-88,o),
(319,-88,cs)
);
},
{
closed = 1;
nodes = (
(267,204,o),
(252,233,o),
(252,297,cs),
(252,368,o),
(274,423,o),
(328,423,cs),
(336,423,o),
(342,422,o),
(351,420,c),
(348,349,ls),
(344,246,o),
(329,204,o),
(292,204,cs)
);
}
);
width = 600;
},
{
layerId = "02EF4DD5-EF93-4764-9336-ED93C6797AC3";
shapes = (
{
closed = 1;
nodes = (
(386,-89,o),
(447,-74,o),
(496,-49,c),
(496,-21,l),
(441,-49,o),
(381,-64,o),
(323,-64,cs),
(147,-64,o),
(42,72,o),
(42,292,cs),
(42,545,o),
(157,688,o),
(321,688,cs),
(475,688,o),
(558,559,o),
(558,353,cs),
(558,232,o),
(531,139,o),
(469,139,cs),
(425,139,o),
(409,180,o),
(409,257,cs),
(409,285,o),
(412,324,o),
(413,348,cs),
(420,493,l),
(389,506,o),
(356,513,o),
(328,513,cs),
(226,513,o),
(167,419,o),
(167,287,cs),
(167,179,o),
(207,114,o),
(279,114,cs),
(327,114,o),
(369,144,o),
(388,197,c),
(390,197,l),
(395,146,o),
(425,114,o),
(471,114,cs),
(547,114,o),
(585,221,o),
(585,356,cs),
(585,576,o),
(486,713,o),
(318,713,cs),
(142,713,o),
(15,562,o),
(15,294,cs),
(15,59,o),
(129,-89,o),
(325,-89,cs)
);
},
{
closed = 1;
nodes = (
(222,139,o),
(194,195,o),
(194,288,cs),
(194,412,o),
(244,488,o),
(328,488,cs),
(349,488,o),
(372,483,o),
(394,473,c),
(385,323,ls),
(377,195,o),
(341,139,o),
(282,139,cs)
);
}
);
width = 600;
},
{
layerId = "82FB5ACD-33BC-4284-9837-1B4D88A7F1E9";
shapes = (
{
closed = 1;
nodes = (
(325,-89,o),
(379,-74,o),
(422,-49,c),
(422,-21,l),
(374,-49,o),
(321,-64,o),
(270,-64,cs),
(118,-64,o),
(27,72,o),
(27,292,cs),
(27,545,o),
(127,688,o),
(268,688,cs),
(402,688,o),
(473,559,o),
(473,353,cs),
(473,232,o),
(451,139,o),
(398,139,cs),
(360,139,o),
(346,180,o),
(346,257,cs),
(346,285,o),
(348,324,o),
(349,348,cs),
(355,493,l),
(328,506,o),
(299,513,o),
(275,513,cs),
(185,513,o),
(133,419,o),
(133,287,cs),
(133,179,o),
(168,114,o),
(232,114,cs),
(274,114,o),
(311,144,o),
(327,197,c),
(329,197,l),
(333,146,o),
(360,114,o),
(400,114,cs),
(467,114,o),
(500,221,o),
(500,356,cs),
(500,576,o),
(413,713,o),
(266,713,cs),
(111,713,o),
(0,562,o),
(0,294,cs),
(0,59,o),
(100,-89,o),
(272,-89,cs)
);
},
{
closed = 1;
nodes = (
(184,139,o),
(160,195,o),
(160,288,cs),
(160,412,o),
(203,488,o),
(275,488,cs),
(292,488,o),
(311,483,o),
(329,473,c),
(322,323,ls),
(316,195,o),
(284,139,o),
(234,139,cs)
);
}
);
width = 500;
},
{
layerId = "C5665599-2906-40DA-AF7F-7DBC0844951A";
shapes = (
{
closed = 1;
nodes = (
(328,-89,o),
(374,-76,o),
(422,-49,c),
(422,5,l),
(374,-19,o),
(326,-32,o),
(274,-32,cs),
(128,-32,o),
(61,87,o),
(61,297,cs),
(61,523,o),
(132,658,o),
(266,658,cs),
(381,658,o),
(441,542,o),
(441,358,cs),
(441,231,o),
(428,161,o),
(398,161,cs),
(377,161,o),
(368,193,o),
(368,256,cs),
(368,266,o),
(368,281,o),
(369,293,cs),
(378,497,l),
(357,508,o),
(317,520,o),
(280,520,cs),
(183,520,o),
(118,431,o),
(118,296,cs),
(118,180,o),
(161,108,o),
(229,108,cs),
(272,108,o),
(306,137,o),
(325,189,c),
(327,188,l),
(333,140,o),
(360,108,o),
(396,108,cs),
(473,108,o),
(500,234,o),
(500,357,cs),
(500,576,o),
(416,714,o),
(267,714,cs),
(98,714,o),
(0,554,o),
(0,294,cs),
(0,53,o),
(90,-89,o),
(271,-89,cs)
);
},
{
closed = 1;
nodes = (
(207,161,o),
(188,208,o),
(188,294,cs),
(188,401,o),
(222,467,o),
(278,467,cs),
(289,467,o),
(301,464,o),
(311,457,c),
(304,323,ls),
(298,215,o),
(281,161,o),
(244,161,cs)
);
}
);
width = 500;
},
{
layerId = "28AE7390-0F8D-4D03-A566-30BDF518EAE7";
shapes = (
{
closed = 1;
nodes = (
(305,-89,o),
(344,-76,o),
(390,-49,c),
(390,24,l),
(338,-3,o),
(296,-16,o),
(255,-16,cs),
(136,-16,o),
(88,98,o),
(88,289,cs),
(88,503,o),
(165,642,o),
(274,642,cs),
(369,642,o),
(413,534,o),
(413,363,cs),
(413,259,o),
(403,187,o),
(387,187,cs),
(373,187,o),
(368,210,o),
(368,265,cs),
(368,277,o),
(368,286,o),
(369,296,cs),
(380,494,l),
(353,507,o),
(321,520,o),
(286,520,cs),
(190,520,o),
(128,432,o),
(128,299,cs),
(128,179,o),
(163,108,o),
(233,108,cs),
(271,108,o),
(294,135,o),
(309,165,c),
(311,165,l),
(322,135,o),
(340,108,o),
(387,108,cs),
(457,108,o),
(500,214,o),
(500,365,cs),
(500,572,o),
(418,714,o),
(274,714,cs),
(100,714,o),
(0,532,o),
(0,282,cs),
(0,53,o),
(88,-89,o),
(253,-89,cs)
);
},
{
closed = 1;
nodes = (
(223,187,o),
(213,225,o),
(213,297,cs),
(213,386,o),
(240,441,o),
(270,441,cs),
(279,441,o),
(285,438,o),
(290,434,c),
(284,326,ls),
(278,224,o),
(269,187,o),
(246,187,cs)
);
}
);
width = 500;
},
{
layerId = "35DC4C3B-953E-41FE-A906-9781CEBB9B49";
shapes = (
{
closed = 1;
nodes = (
(300,-84,o),
(354,-69,o),
(398,-40,c),
(398,51,l),
(346,18,o),
(298,3,o),
(262,3,cs),
(133,3,o),
(88,132,o),
(88,292,cs),
(88,507,o),
(171,625,o),
(267,625,cs),
(357,625,o),
(413,545,o),
(413,361,cs),
(413,264,o),
(404,192,o),
(382,192,cs),
(370,192,o),
(368,216,o),
(368,258,cs),
(368,266,o),
(368,286,o),
(369,299,cs),
(379,502,l),
(348,517,o),
(312,527,o),
(279,527,cs),
(184,527,o),
(122,440,o),
(122,301,cs),
(122,180,o),
(162,106,o),
(228,106,cs),
(257,106,o),
(285,127,o),
(298,153,c),
(301,153,l),
(315,122,o),
(341,106,o),
(378,106,cs),
(460,106,o),
(500,214,o),
(500,369,cs),
(500,593,o),
(410,714,o),
(264,714,cs),
(111,714,o),
(0,561,o),
(0,287,cs),
(0,56,o),
(82,-84,o),
(259,-84,cs)
);
},
{
closed = 1;
nodes = (
(228,192,o),
(216,231,o),
(216,300,cs),
(216,388,o),
(239,440,o),
(271,440,cs),
(278,440,o),
(280,439,o),
(284,438,c),
(279,343,ls),
(273,228,o),
(267,192,o),
(248,192,cs)
);
}
);
width = 500;
}
);
script = "";
subCategory = Other;
unicode = 64;
}
{
category = Letter;
glyphname = C;
layers = (
{
anchors = (
{
name = bottom;
pos = (351,0);
},
{
name = top;
pos = (359,714);
},
{
name = topright;
pos = (580,714);
}
);
layerId = UUID0;
shapes = (
{
closed = 1;
nodes = (
(419,-10,o),
(465,-1,o),
(519,19,c),
(519,104,l),
(467,82,o),
(412,73,o),
(367,73,cs),
(219,73,o),
(158,180,o),
(158,357,cs),
(158,542,o),
(233,644,o),
(369,644,cs),
(418,644,o),
(475,631,o),
(516,609,c),
(550,682,l),
(499,709,o),
(438,724,o),
(369,724,cs),
(175,724,o),
(66,583,o),
(66,357,cs),
(66,141,o),
(155,-10,o),
(365,-10,cs)
);
}
);
width = 600;
},
{
anchors = (
{
name = bottom;
pos = (336,0);
},
{
name = top;
pos = (354,714);
},
{
name = topright;
pos = (580,714);
}
);
layerId = "A3018D0F-8B4B-4295-AE04-84912D9BB11D";
shapes = (
{
closed = 1;
nodes = (
(411,-10,o),
(474,2,o),
(532,27,c),
(532,157,l),
(466,127,o),
(422,117,o),
(375,117,cs),
(249,117,o),
(197,191,o),
(197,348,cs),
(197,498,o),
(244,597,o),
(383,597,cs),
(422,597,o),
(462,589,o),
(512,564,c),
(560,683,l),
(505,710,o),
(457,724,o),
(388,724,cs),
(168,724,o),
(50,579,o),
(50,342,cs),
(50,129,o),
(145,-10,o),
(351,-10,cs)
);
}
);
width = 600;
},
{
anchors = (
{
name = bottom;
pos = (340,0);
},
{
name = top;
pos = (357,714);
},
{
name = topright;
pos = (580,714);
}
);
layerId = "963C7F4A-CFE2-43FC-8D10-B7434095D111";
shapes = (
{
closed = 1;
nodes = (
(402,-10,o),
(475,3,o),
(538,31,c),
(538,192,l),
(486,160,o),
(416,144,o),
(363,144,cs),
(263,144,o),
(217,201,o),
(217,347,cs),
(217,484,o),
(257,569,o),
(381,569,cs),
(421,569,o),
(471,560,o),
(518,537,c),
(565,685,l),
(500,712,o),
(440,724,o),
(378,724,cs),
(168,724,o),
(40,586,o),
(40,348,cs),
(40,130,o),
(139,-10,o),
(333,-10,cs)
);
}
);
width = 600;
},
{
anchors = (
{
name = bottom;
pos = (347,0);
},
{
name = top;
pos = (360,714);
},
{
name = topright;
pos = (580,714);
}
);
layerId = "02EF4DD5-EF93-4764-9336-ED93C6797AC3";
shapes = (
{
closed = 1;
nodes = (
(435,-10,o),
(494,4,o),
(537,21,c),
(537,48,l),
(490,31,o),
(428,15,o),
(368,15,cs),
(187,15,o),
(97,152,o),
(97,349,cs),
(97,564,o),
(200,699,o),
(383,699,cs),
(425,699,o),
(482,691,o),
(540,663,c),
(550,687,l),
(496,713,o),
(436,724,o),
(382,724,cs),
(183,724,o),
(70,577,o),
(70,349,cs),
(70,139,o),
(167,-10,o),
(364,-10,cs)
);
}
);
width = 600;
},
{
anchors = (
{
name = bottom;
pos = (302,0);
},
{
name = top;
pos = (310,714);
},
{
name = topright;
pos = (480,714);
}
);
layerId = "82FB5ACD-33BC-4284-9837-1B4D88A7F1E9";
shapes = (
{
closed = 1;
nodes = (
(376,-10,o),
(426,2,o),
(460,17,c),
(460,44,l),
(426,29,o),
(379,15,o),
(318,15,cs),
(168,15,o),
(86,154,o),
(86,359,cs),
(86,542,o),
(164,699,o),
(325,699,cs),
(366,699,o),
(411,694,o),
(456,669,c),
(467,692,l),
(423,714,o),
(377,724,o),
(325,724,cs),
(147,724,o),
(59,558,o),
(59,359,cs),
(59,135,o),
(154,-10,o),
(318,-10,cs)
);
}
);
width = 500;
},
{
anchors = (
{
name = bottom;
pos = (287,0);
},
{
name = top;
pos = (308,714);
},
{
name = topright;
pos = (480,714);
}
);
layerId = "C5665599-2906-40DA-AF7F-7DBC0844951A";
shapes = (
{
closed = 1;
nodes = (
(367,-10,o),
(409,-3,o),
(452,16,c),
(452,91,l),
(409,76,o),
(368,65,o),
(319,65,cs),
(189,65,o),
(125,179,o),
(125,357,cs),
(125,522,o),
(186,651,o),
(317,651,cs),
(365,651,o),
(407,638,o),
(442,618,c),
(475,688,l),
(427,712,o),
(374,726,o),
(316,726,cs),
(135,726,o),
(40,567,o),
(40,358,cs),
(40,130,o),
(135,-10,o),
(307,-10,cs)
);
}
);
width = 500;
},
{
anchors = (
{
name = bottom;
pos = (299,0);
},
{
name = top;
pos = (308,714);
},
{
name = topright;
pos = (480,714);
}
);
layerId = "28AE7390-0F8D-4D03-A566-30BDF518EAE7";
shapes = (
{
closed = 1;
nodes = (
(368,-15,o),
(413,-3,o),
(454,20,c),
(454,141,l),
(415,120,o),
(377,105,o),
(332,105,cs),
(233,105,o),
(168,188,o),
(168,355,cs),
(168,498,o),
(222,606,o),
(325,606,cs),
(367,606,o),
(406,592,o),
(441,573,c),
(480,680,l),
(430,710,o),
(373,726,o),
(315,726,cs),
(137,726,o),
(35,569,o),
(35,356,cs),
(35,122,o),
(137,-15,o),
(312,-15,cs)
);
}
);
width = 500;
},
{
anchors = (
{
name = bottom;
pos = (306,0);
},
{
name = top;
pos = (298,714);
},
{
name = topright;
pos = (480,714);
}
);
layerId = "35DC4C3B-953E-41FE-A906-9781CEBB9B49";
shapes = (
{
closed = 1;
nodes = (
(355,-10,o),
(415,3,o),
(461,30,c),
(461,175,l),
(418,150,o),
(374,130,o),
(324,130,cs),
(235,130,o),
(186,205,o),
(186,351,cs),
(186,496,o),
(234,584,o),
(330,584,cs),
(364,584,o),
(403,575,o),
(441,546,c),
(485,674,l),
(434,708,o),
(385,725,o),
(306,725,cs),
(131,725,o),
(30,575,o),
(30,342,cs),
(30,119,o),
(123,-10,o),
(299,-10,cs)
);
}
);
width = 500;
}
);
script = latin;
subCategory = Uppercase;
unicode = 67;
}
{
category = Letter;
glyphname = L;
layers = (
{
anchors = (
{
name = bottom;
pos = (330,0);
},
{
name = center;
pos = (300,357);
},
{
name = top;
pos = (161,714);
},
{
name = topright;
pos = (446,714);
}
);
layerId = UUID0;
shapes = (
{
closed = 1;
nodes = (
(515,0,l),
(515,83,l),
(205,83,l),
(205,714,l),
(115,714,l),
(115,0,l)
);
}
);
width = 600;
},
{
anchors = (
{
name = bottom;
pos = (330,0);
},
{
name = center;
pos = (300,357);
},
{
name = top;
pos = (161,714);
},
{
name = topright;
pos = (454,714);
}
);
layerId = "A3018D0F-8B4B-4295-AE04-84912D9BB11D";
shapes = (
{
closed = 1;
nodes = (
(530,0,l),
(530,128,l),
(235,128,l),
(235,714,l),
(90,714,l),
(90,0,l)
);
}
);
width = 600;
},
{
anchors = (
{
name = bottom;
pos = (320,0);
},
{
name = center;
pos = (300,357);
},
{
name = top;
pos = (159,714);
},
{
name = topright;
pos = (467,714);
}
);
layerId = "963C7F4A-CFE2-43FC-8D10-B7434095D111";
shapes = (
{
closed = 1;
nodes = (
(540,0,l),
(540,155,l),
(250,155,l),
(250,714,l),
(75,714,l),
(75,0,l)
);
}
);
width = 600;
},
{
anchors = (
{
name = bottom;
pos = (340,0);
},
{
name = center;
pos = (300,357);
},
{
name = top;
pos = (163,714);
},
{
name = topright;
pos = (423,714);
}
);
layerId = "02EF4DD5-EF93-4764-9336-ED93C6797AC3";
shapes = (
{
closed = 1;
nodes = (
(510,0,l),
(510,25,l),
(176,25,l),
(176,714,l),
(150,714,l),
(150,0,l)
);
}
);
width = 600;
},
{
anchors = (
{
name = bottom;
pos = (260,0);
},
{
name = center;
pos = (250,357);
},
{
name = top;
pos = (104,714);
},
{
name = topright;
pos = (363,714);
}
);
layerId = "82FB5ACD-33BC-4284-9837-1B4D88A7F1E9";
shapes = (
{
closed = 1;
nodes = (
(405,0,l),
(405,25,l),
(118,25,l),
(118,714,l),
(92,714,l),
(92,0,l)
);
}
);
width = 500;
},
{
anchors = (
{
name = bottom;
pos = (270,0);
},
{
name = center;
pos = (250,357);
},
{
name = top;
pos = (119,714);
},
{
name = topright;
pos = (363,714);
}
);
layerId = "C5665599-2906-40DA-AF7F-7DBC0844951A";
shapes = (
{
closed = 1;
nodes = (
(440,0,l),
(440,80,l),
(159,80,l),
(159,714,l),
(75,714,l),
(75,0,l)
);
}
);
width = 500;
},
{
anchors = (
{
name = bottom;
pos = (270,0);
},
{
name = center;
pos = (250,357);
},
{
name = top;
pos = (128,714);
},
{
name = topright;
pos = (369,714);
}
);
layerId = "28AE7390-0F8D-4D03-A566-30BDF518EAE7";
shapes = (
{
closed = 1;
nodes = (
(450,0,l),
(450,116,l),
(193,116,l),
(193,714,l),
(65,714,l),
(65,0,l)
);
}
);
width = 500;
},
{
anchors = (
{
name = bottom;
pos = (269,0);
},
{
name = center;
pos = (250,357);
},
{
name = top;
pos = (131,714);
},
{
name = topright;
pos = (377,714);
}
);
layerId = "35DC4C3B-953E-41FE-A906-9781CEBB9B49";
shapes = (
{
closed = 1;
nodes = (
(460,0,l),
(460,140,l),
(210,140,l),
(210,714,l),
(55,714,l),
(55,0,l)
);
}
);
width = 500;
}
);
metricRight = E;
script = latin;
subCategory = Uppercase;
unicode = 76;
}
{
category = Letter;
glyphname = V;
layers = (
{
anchors = (
{
name = bottom;
pos = (300,0);
},
{
name = top;
pos = (300,714);
},
{
name = topright;
pos = (580,714);
}
);
layerId = UUID0;
shapes = (
{
closed = 1;
nodes = (
(349,0,l),
(575,714,l),
(480,714,l),
(346,253,ls),
(328,192,o),
(314,134,o),
(304,87,c),
(301,87,l),
(290,135,o),
(276,191,o),
(258,250,cs),
(119,714,l),
(25,714,l),
(255,0,l)
);
}
);
width = 600;
},
{
anchors = (
{
name = bottom;
pos = (300,0);
},
{
name = top;
pos = (300,714);
},
{
name = topright;
pos = (580,714);
}
);
layerId = "A3018D0F-8B4B-4295-AE04-84912D9BB11D";
shapes = (
{
closed = 1;
nodes = (
(381,0,l),
(590,714,l),
(442,714,l),
(337,290,ls),
(328,253,o),
(313,174,o),
(307,130,c),
(298,130,l),
(292,173,o),
(274,257,o),
(265,290,cs),
(156,714,l),
(10,714,l),
(219,0,l)
);
}
);
width = 600;
},
{
anchors = (
{
name = bottom;
pos = (300,0);
},
{
name = top;
pos = (300,714);
},
{
name = topright;
pos = (580,714);
}
);
layerId = "963C7F4A-CFE2-43FC-8D10-B7434095D111";
shapes = (
{
closed = 1;
nodes = (
(415,0,l),
(595,714,l),
(420,714,l),
(334,298,ls),
(326,259,o),
(313,185,o),
(306,140,c),
(301,140,l),
(294,185,o),
(279,257,o),
(270,298,cs),
(180,714,l),
(5,714,l),
(186,0,l)
);
}
);
width = 600;
},
{
anchors = (
{
name = bottom;
pos = (300,0);
},
{
name = top;
pos = (300,714);
},
{
name = topright;
pos = (580,714);
}
);
layerId = "02EF4DD5-EF93-4764-9336-ED93C6797AC3";
shapes = (
{
closed = 1;
nodes = (
(314,0,l),
(560,714,l),
(531,714,l),
(336,143,ls),
(321,99,o),
(311,64,o),
(301,34,c),
(300,34,l),
(290,64,o),
(280,98,o),
(265,143,cs),
(68,714,l),
(40,714,l),
(287,0,l)
);
}
);
width = 600;
},
{
anchors = (
{
name = bottom;
pos = (250,0);
},
{
name = top;
pos = (250,714);
},
{
name = topright;
pos = (480,714);
}
);
layerId = "82FB5ACD-33BC-4284-9837-1B4D88A7F1E9";
shapes = (
{
closed = 1;
nodes = (
(263,0,l),
(475,714,l),
(448,714,l),
(279,140,ls),
(267,100,o),
(258,67,o),
(250,34,c),
(249,34,l),
(241,68,o),
(230,102,o),
(219,140,cs),
(52,714,l),
(25,714,l),
(234,0,l)
);
}
);
width = 500;
},
{
anchors = (
{
name = bottom;
pos = (250,0);
},
{
name = top;
pos = (250,714);
},
{
name = topright;
pos = (480,714);
}
);
layerId = "C5665599-2906-40DA-AF7F-7DBC0844951A";
shapes = (
{
closed = 1;
nodes = (
(292,0,l),
(485,714,l),
(405,714,l),
(285,254,ls),
(269,192,o),
(257,127,o),
(249,81,c),
(248,81,l),
(241,128,o),
(228,192,o),
(213,251,cs),
(95,714,l),
(15,714,l),
(205,0,l)
);
}
);
width = 500;
},
{
anchors = (
{
name = bottom;
pos = (250,0);
},
{
name = top;
pos = (250,714);
},
{
name = topright;
pos = (480,714);
}
);
layerId = "28AE7390-0F8D-4D03-A566-30BDF518EAE7";
shapes = (
{
closed = 1;
nodes = (
(322,0,l),
(490,714,l),
(354,714,l),
(278,294,ls),
(270,249,o),
(258,174,o),
(253,131,c),
(252,131,l),
(247,174,o),
(235,249,o),
(227,294,cs),
(148,714,l),
(10,714,l),
(177,0,l)
);
}
);
width = 500;
},
{
anchors = (
{
name = bottom;
pos = (250,0);
},
{
name = top;
pos = (250,714);
},
{
name = topright;
pos = (480,714);
}
);
layerId = "35DC4C3B-953E-41FE-A906-9781CEBB9B49";
shapes = (
{
closed = 1;
nodes = (
(343,0,l),
(495,714,l),
(335,714,l),
(272,307,ls),
(265,264,o),
(256,185,o),
(252,137,c),
(249,137,l),
(244,185,o),
(235,264,o),
(228,307,cs),
(161,714,l),
(5,714,l),
(153,0,l)
);
}
);
width = 500;
}
);
script = latin;
subCategory = Uppercase;
unicode = 86;
}
{
category = Letter;
glyphname = X;
layers = (
{
anchors = (
{
name = bottom;
pos = (300,0);
},
{
name = top;
pos = (300,714);
},
{
name = topright;
pos = (580,714);
}
);
layerId = UUID0;
shapes = (
{
closed = 1;
nodes = (
(131,0,l),
(301,296,l),
(472,0,l),
(565,0,l),
(343,368,l),
(550,714,l),
(455,714,l),
(300,441,l),
(147,714,l),
(50,714,l),
(258,369,l),
(35,0,l)
);
}
);
width = 600;
},
{
anchors = (
{
name = bottom;
pos = (300,0);
},
{
name = top;
pos = (300,714);
},
{
name = topright;
pos = (580,714);
}
);
layerId = "A3018D0F-8B4B-4295-AE04-84912D9BB11D";
shapes = (
{
closed = 1;
nodes = (
(168,0,l),
(299,248,l),
(427,0,l),
(580,0,l),
(366,369,l),
(566,714,l),
(416,714,l),
(300,489,l),
(182,714,l),
(34,714,l),
(234,368,l),
(20,0,l)
);
}
);
width = 600;
},
{
anchors = (
{
name = bottom;
pos = (300,0);
},
{
name = top;
pos = (300,714);
},
{
name = topright;
pos = (580,714);
}
);
layerId = "963C7F4A-CFE2-43FC-8D10-B7434095D111";
shapes = (
{
closed = 1;
nodes = (
(197,0,l),
(299,204,l),
(398,0,l),
(585,0,l),
(384,370,l),
(568,714,l),
(384,714,l),
(299,534,l),
(210,714,l),
(29,714,l),
(215,367,l),
(15,0,l)
);
}
);
width = 600;
},
{
anchors = (
{
name = bottom;
pos = (300,0);
},
{
name = top;
pos = (300,714);
},
{
name = topright;
pos = (580,714);
}
);
layerId = "02EF4DD5-EF93-4764-9336-ED93C6797AC3";
shapes = (
{
closed = 1;
nodes = (
(81,0,l),
(302,352,l),
(519,0,l),
(550,0,l),
(316,373,l),
(532,714,l),
(502,714,l),
(302,393,l),
(106,714,l),
(75,714,l),
(288,372,l),
(50,0,l)
);
}
);
width = 600;
},
{
anchors = (
{
name = bottom;
pos = (260,0);
},
{
name = top;
pos = (260,714);
},
{
name = topright;
pos = (480,714);
}
);
layerId = "82FB5ACD-33BC-4284-9837-1B4D88A7F1E9";
shapes = (
{
closed = 1;
nodes = (
(64,0,l),
(255,348,l),
(437,0,l),
(465,0,l),
(270,372,l),
(458,714,l),
(428,714,l),
(254,396,l),
(87,714,l),
(59,714,l),
(239,372,l),
(35,0,l)
);
}
);
width = 500;
},
{
anchors = (
{
name = bottom;
pos = (250,0);
},
{
name = top;
pos = (250,714);
},
{
name = topright;
pos = (480,714);
}
);
layerId = "C5665599-2906-40DA-AF7F-7DBC0844951A";
shapes = (
{
closed = 1;
nodes = (
(109,0,l),
(245,301,l),
(388,0,l),
(480,0,l),
(295,370,l),
(467,714,l),
(377,714,l),
(250,444,l),
(124,714,l),
(33,714,l),
(199,373,l),
(20,0,l)
);
}
);
width = 500;
},
{
anchors = (
{
name = bottom;
pos = (250,0);
},
{
name = top;
pos = (250,714);
},
{
name = topright;
pos = (480,714);
}
);
layerId = "28AE7390-0F8D-4D03-A566-30BDF518EAE7";
shapes = (
{
closed = 1;
nodes = (
(151,0,l),
(248,268,l),
(349,0,l),
(490,0,l),
(331,364,l),
(475,714,l),
(332,714,l),
(250,463,l),
(163,714,l),
(21,714,l),
(164,366,l),
(10,0,l)
);
}
);
width = 500;
},
{
anchors = (
{
name = bottom;
pos = (250,0);
},
{
name = top;
pos = (250,714);
},
{
name = topright;
pos = (480,714);
}
);
layerId = "35DC4C3B-953E-41FE-A906-9781CEBB9B49";
shapes = (
{
closed = 1;
nodes = (
(169,0,l),
(247,238,l),
(324,0,l),
(495,0,l),
(342,359,l),
(484,714,l),
(315,714,l),
(249,486,l),
(180,714,l),
(11,714,l),
(153,362,l),
(5,0,l)
);
}
);
width = 500;
}
);
script = latin;
subCategory = Uppercase;
unicode = 88;
}
{
category = Mark;
glyphname = grave;
layers = (
{
layerId = UUID0;
shapes = (
{
closed = 1;
nodes = (
(390,606,l),
(390,618,l),
(359,655,o),
(316,721,o),
(294,766,c),
(189,766,l),
(189,756,l),
(212,719,o),
(285,642,o),
(331,606,c)
);
}
);
width = 600;
},
{
layerId = "A3018D0F-8B4B-4295-AE04-84912D9BB11D";
shapes = (
{
closed = 1;
nodes = (
(393,606,l),
(393,619,l),
(366,653,o),
(318,723,o),
(294,766,c),
(136,766,l),
(136,757,l),
(168,720,o),
(254,639,o),
(297,606,c)
);
}
);
width = 600;
},
{
layerId = "963C7F4A-CFE2-43FC-8D10-B7434095D111";
shapes = (
{
closed = 1;
nodes = (
(449,606,l),
(449,620,l),
(424,653,o),
(372,724,o),
(346,766,c),
(150,766,l),
(150,756,l),
(187,721,o),
(283,638,o),
(326,606,c)
);
}
);
width = 600;
},
{
layerId = "02EF4DD5-EF93-4764-9336-ED93C6797AC3";
shapes = (
{
closed = 1;
nodes = (
(380,606,l),
(380,612,l),
(335,652,o),
(270,723,o),
(241,766,c),
(211,766,l),
(211,759,l),
(246,714,o),
(306,650,o),
(359,606,c)
);
}
);
width = 600;
},
{
layerId = "82FB5ACD-33BC-4284-9837-1B4D88A7F1E9";
shapes = (
{
closed = 1;
nodes = (
(313,606,l),
(313,615,l),
(271,658,o),
(218,716,o),
(186,765,c),
(156,765,l),
(156,758,l),
(190,710,o),
(249,647,o),
(294,606,c)
);
}
);
width = 500;
},
{
layerId = "C5665599-2906-40DA-AF7F-7DBC0844951A";
shapes = (
{
closed = 1;
nodes = (
(292,606,l),
(292,617,l),
(264,654,o),
(224,720,o),
(203,766,c),
(106,766,l),
(106,757,l),
(132,714,o),
(200,640,o),
(240,606,c)
);
}
);
width = 500;
},
{
layerId = "28AE7390-0F8D-4D03-A566-30BDF518EAE7";
shapes = (
{
closed = 1;
nodes = (
(336,606,l),
(336,619,l),
(313,651,o),
(271,723,o),
(253,766,c),
(112,766,l),
(112,757,l),
(138,719,o),
(214,637,o),
(250,606,c)
);
}
);
width = 500;
},
{
layerId = "35DC4C3B-953E-41FE-A906-9781CEBB9B49";
shapes = (
{
closed = 1;
nodes = (
(351,606,l),
(351,619,l),
(330,649,o),
(288,725,o),
(270,766,c),
(109,766,l),
(109,757,l),
(135,721,o),
(214,637,o),
(248,606,c)
);
}
);
width = 500;
}
);
script = "";
subCategory = Spacing;
unicode = 96;
}
{
category = Letter;
glyphname = h;
layers = (
{
anchors = (
{
name = bottom;
pos = (300,0);
},
{
name = center;
pos = (300,268);
},
{
name = top;
pos = (126,760);
},
{
name = topright;
pos = (580,760);
}
);
layerId = UUID0;
shapes = (
{
closed = 1;
nodes = (
(170,0,l),
(170,278,ls),
(170,401,o),
(227,473,o),
(316,473,cs),
(392,473,o),
(435,429,o),
(435,332,cs),
(435,0,l),
(525,0,l),
(525,350,ls),
(525,487,o),
(450,546,o),
(339,546,cs),
(266,546,o),
(205,516,o),
(171,450,c),
(166,450,l),
(167,473,o),
(170,519,o),
(170,544,cs),
(170,760,l),
(80,760,l),
(80,0,l)
);
}
);
width = 600;
},
{
anchors = (
{
name = bottom;
pos = (300,0);
},
{
name = center;
pos = (300,273);
},
{
name = top;
pos = (129,760);
},
{
name = topright;
pos = (580,760);
}
);
layerId = "A3018D0F-8B4B-4295-AE04-84912D9BB11D";
shapes = (
{
closed = 1;
nodes = (
(200,0,l),
(200,257,ls),
(200,383,o),
(235,436,o),
(312,436,cs),
(369,436,o),
(405,408,o),
(405,319,cs),
(405,0,l),
(550,0,l),
(550,356,ls),
(550,485,o),
(482,556,o),
(360,556,cs),
(283,556,o),
(238,528,o),
(205,476,c),
(197,476,l),
(199,519,o),
(200,562,o),
(200,605,cs),
(200,760,l),
(55,760,l),
(55,0,l)
);
}
);
width = 600;
},
{
anchors = (
{
name = bottom;
pos = (300,0);
},
{
name = center;
pos = (300,277);
},
{
name = top;
pos = (131,760);
},
{
name = topright;
pos = (580,760);
}
);
layerId = "963C7F4A-CFE2-43FC-8D10-B7434095D111";
shapes = (
{
closed = 1;
nodes = (
(220,0,l),
(220,241,ls),
(220,381,o),
(249,422,o),
(308,422,cs),
(368,422,o),
(385,379,o),
(385,301,cs),
(385,0,l),
(560,0,l),
(560,359,ls),
(560,484,o),
(500,563,o),
(373,563,cs),
(301,563,o),
(256,537,o),
(221,483,c),
(211,483,l),
(214,537,o),
(220,590,o),
(220,645,cs),
(220,760,l),
(45,760,l),
(45,0,l)
);
}
);
width = 600;
},
{
anchors = (
{
name = bottom;
pos = (300,0);
},
{
name = center;
pos = (300,264);
},
{
name = top;
pos = (116,760);
},
{
name = topright;
pos = (580,760);
}
);
layerId = "02EF4DD5-EF93-4764-9336-ED93C6797AC3";
shapes = (
{
closed = 1;
nodes = (
(131,0,l),
(131,302,ls),
(131,446,o),
(207,512,o),
(319,512,cs),
(416,512,o),
(474,462,o),
(474,345,cs),
(474,0,l),
(500,0,l),
(500,350,ls),
(500,477,o),
(432,537,o),
(320,537,cs),
(209,537,o),
(151,478,o),
(131,412,c),
(129,412,l),
(130,443,o),
(131,464,o),
(131,496,cs),
(131,760,l),
(105,760,l),
(105,0,l)
);
}
);
width = 600;
},
{
anchors = (
{
name = bottom;
pos = (250,0);
},
{
name = center;
pos = (250,264);
},
{
name = top;
pos = (96,760);
},
{
name = topright;
pos = (480,760);
}
);
layerId = "82FB5ACD-33BC-4284-9837-1B4D88A7F1E9";
shapes = (
{
closed = 1;
nodes = (
(111,0,l),
(111,300,ls),
(111,447,o),
(180,513,o),
(270,513,cs),
(346,513,o),
(394,467,o),
(394,353,cs),
(394,0,l),
(420,0,l),
(420,356,ls),
(420,479,o),
(366,538,o),
(271,538,cs),
(176,538,o),
(129,478,o),
(111,421,c),
(109,421,l),
(110,446,o),
(111,464,o),
(111,494,cs),
(111,760,l),
(85,760,l),
(85,0,l)
);
}
);
width = 500;
},
{
anchors = (
{
name = bottom;
pos = (250,0);
},
{
name = center;
pos = (250,268);
},
{
name = top;
pos = (100,760);
},
{
name = topright;
pos = (480,760);
}
);
layerId = "C5665599-2906-40DA-AF7F-7DBC0844951A";
shapes = (
{
closed = 1;
nodes = (
(142,0,l),
(142,279,ls),
(142,403,o),
(180,474,o),
(262,474,cs),
(330,474,o),
(363,426,o),
(363,333,cs),
(363,0,l),
(445,0,l),
(445,350,ls),
(445,487,o),
(375,547,o),
(281,547,cs),
(211,547,o),
(170,513,o),
(143,463,c),
(138,463,l),
(139,486,o),
(142,509,o),
(142,532,cs),
(142,760,l),
(60,760,l),
(60,0,l)
);
}
);
width = 500;
},
{
anchors = (
{
name = bottom;
pos = (250,0);
},
{
name = center;
pos = (250,273);
},
{
name = top;
pos = (112,760);
},
{
name = topright;
pos = (480,760);
}
);
layerId = "28AE7390-0F8D-4D03-A566-30BDF518EAE7";
shapes = (
{
closed = 1;
nodes = (
(173,0,l),
(173,259,ls),
(173,376,o),
(191,440,o),
(262,440,cs),
(320,440,o),
(332,398,o),
(332,323,cs),
(332,0,l),
(460,0,l),
(460,355,ls),
(460,487,o),
(412,556,o),
(311,556,cs),
(248,556,o),
(199,529,o),
(174,475,c),
(165,475,l),
(170,515,o),
(173,555,o),
(173,594,cs),
(173,760,l),
(45,760,l),
(45,0,l)
);
}
);
width = 500;
},
{
anchors = (
{
name = bottom;
pos = (250,0);
},
{
name = center;
pos = (250,277);
},
{
name = top;
pos = (112,760);
},
{
name = topright;
pos = (480,760);
}
);
layerId = "35DC4C3B-953E-41FE-A906-9781CEBB9B49";
shapes = (
{
closed = 1;
nodes = (
(190,0,l),
(190,278,ls),
(190,366,o),
(204,418,o),
(258,418,cs),
(313,418,o),
(315,376,o),
(315,308,cs),
(315,0,l),
(470,0,l),
(470,360,ls),
(470,489,o),
(412,563,o),
(314,563,cs),
(251,563,o),
(208,532,o),
(186,484,c),
(177,484,l),
(186,528,o),
(190,575,o),
(190,621,cs),
(190,760,l),
(35,760,l),
(35,0,l)
);
}
);
width = 500;
}
);
metricLeft = n;
metricRight = n;
script = latin;
subCategory = Lowercase;
unicode = 104;
}
{
category = Letter;
glyphname = r;
layers = (
{
anchors = (
{
name = bottom;
pos = (271,0);
},
{
name = top;
pos = (340,536);
},
{
name = topright;
pos = (580,536);
}
);
layerId = UUID0;
shapes = (
{
closed = 1;
nodes = (
(472,0,l),
(472,60,l),
(316,75,l),
(316,269,ls),
(316,377,o),
(377,467,o),
(463,467,cs),
(496,467,o),
(526,457,o),
(548,445,c),
(572,524,l),
(543,537,o),
(508,546,o),
(463,546,cs),
(389,546,o),
(350,508,o),
(313,438,c),
(309,438,l),
(297,536,l),
(78,536,l),
(78,474,l),
(225,461,l),
(225,75,l),
(62,60,l),
(62,0,l)
);
}
);
width = 600;
},
{
anchors = (
{
name = bottom;
pos = (260,0);
},
{
name = top;
pos = (330,546);
},
{
name = topright;
pos = (580,546);
}
);
layerId = "A3018D0F-8B4B-4295-AE04-84912D9BB11D";
shapes = (
{
closed = 1;
nodes = (
(471,0,l),
(471,90,l),
(328,120,l),
(328,262,ls),
(328,350,o),
(373,417,o),
(465,417,cs),
(495,417,o),
(525,410,o),
(544,404,c),
(583,539,l),
(548,553,o),
(510,556,o),
(488,556,cs),
(406,556,o),
(356,515,o),
(321,454,c),
(314,454,l),
(293,546,l),
(68,546,l),
(68,443,l),
(183,426,l),
(183,120,l),
(41,90,l),
(41,0,l)
);
}
);
width = 600;
},
{
anchors = (
{
name = bottom;
pos = (270,0);
},
{
name = top;
pos = (314,553);
},
{
name = topright;
pos = (580,553);
}
);
layerId = "963C7F4A-CFE2-43FC-8D10-B7434095D111";
shapes = (
{
closed = 1;
nodes = (
(490,0,l),
(490,124,l),
(336,140,l),
(336,246,ls),
(336,351,o),
(387,397,o),
(462,397,cs),
(482,397,o),
(522,393,o),
(545,383,c),
(586,548,l),
(534,563,o),
(498,563,o),
(480,563,cs),
(406,563,o),
(353,520,o),
(331,463,c),
(323,463,l),
(296,553,l),
(53,553,l),
(53,427,l),
(176,413,l),
(176,140,l),
(30,124,l),
(30,0,l)
);
}
);
width = 600;
},
{
anchors = (
{
name = bottom;
pos = (286,0);
},
{
name = top;
pos = (346,528);
},
{
name = topright;
pos = (580,528);
}
);
layerId = "02EF4DD5-EF93-4764-9336-ED93C6797AC3";
shapes = (
{
closed = 1;
nodes = (
(500,0,l),
(500,21,l),
(300,25,l),
(300,273,ls),
(300,417,o),
(357,510,o),
(472,510,cs),
(505,510,o),
(536,505,o),
(561,497,c),
(567,523,l),
(545,530,o),
(508,536,o),
(473,536,cs),
(382,536,o),
(320,479,o),
(303,407,c),
(300,407,l),
(300,528,l),
(118,528,l),
(118,507,l),
(274,503,l),
(274,25,l),
(100,21,l),
(100,0,l)
);
}
);
width = 600;
},
{
anchors = (
{
name = bottom;
pos = (226,0);
},
{
name = top;
pos = (279,528);
},
{
name = topright;
pos = (480,528);
}
);
layerId = "82FB5ACD-33BC-4284-9837-1B4D88A7F1E9";
shapes = (
{
closed = 1;
nodes = (
(395,0,l),
(395,21,l),
(238,25,l),
(238,303,ls),
(238,434,o),
(288,510,o),
(381,510,cs),
(405,510,o),
(434,505,o),
(456,497,c),
(462,523,l),
(443,530,o),
(409,536,o),
(381,536,cs),
(300,536,o),
(257,484,o),
(240,427,c),
(238,427,l),
(234,528,l),
(83,528,l),
(83,507,l),
(212,503,l),
(212,25,l),
(65,21,l),
(65,0,l)
);
}
);
width = 500;
},
{
anchors = (
{
name = bottom;
pos = (202,0);
},
{
name = top;
pos = (260,536);
},
{
name = topright;
pos = (480,536);
}
);
layerId = "C5665599-2906-40DA-AF7F-7DBC0844951A";
shapes = (
{
closed = 1;
nodes = (
(368,0,l),
(368,59,l),
(242,69,l),
(242,267,ls),
(242,377,o),
(292,462,o),
(378,462,cs),
(398,462,o),
(426,459,o),
(447,448,c),
(470,530,l),
(441,542,o),
(414,547,o),
(389,547,cs),
(316,547,o),
(266,506,o),
(239,441,c),
(235,441,l),
(227,536,l),
(43,536,l),
(43,477,l),
(159,463,l),
(159,69,l),
(38,59,l),
(38,0,l)
);
}
);
width = 500;
},
{
anchors = (
{
name = bottom;
pos = (201,0);
},
{
name = top;
pos = (269,546);
},
{
name = topright;
pos = (480,546);
}
);
layerId = "28AE7390-0F8D-4D03-A566-30BDF518EAE7";
shapes = (
{
closed = 1;
nodes = (
(386,0,l),
(386,95,l),
(264,107,l),
(264,267,ls),
(264,367,o),
(311,428,o),
(392,428,cs),
(418,428,o),
(441,423,o),
(461,413,c),
(496,537,l),
(464,551,o),
(431,556,o),
(394,556,cs),
(317,556,o),
(284,512,o),
(260,452,c),
(254,452,l),
(230,546,l),
(34,546,l),
(34,450,l),
(136,440,l),
(136,107,l),
(26,95,l),
(26,0,l)
);
}
);
width = 500;
},
{
anchors = (
{
name = bottom;
pos = (213,0);
},
{
name = top;
pos = (271,553);
},
{
name = topright;
pos = (480,553);
}
);
layerId = "35DC4C3B-953E-41FE-A906-9781CEBB9B49";
shapes = (
{
closed = 1;
nodes = (
(410,0,l),
(410,114,l),
(278,132,l),
(278,278,ls),
(278,353,o),
(312,398,o),
(376,398,cs),
(399,398,o),
(430,392,o),
(451,381,c),
(490,542,l),
(455,559,o),
(421,563,o),
(399,563,cs),
(325,563,o),
(281,519,o),
(264,461,c),
(256,461,l),
(242,553,l),
(36,553,l),
(36,431,l),
(133,419,l),
(133,132,l),
(25,114,l),
(25,0,l)
);
}
);
width = 500;
}
);
script = latin;
subCategory = Lowercase;
unicode = 114;
}
{
category = Punctuation;
glyphname = braceleft;
layers = (
{
layerId = UUID0;
shapes = (
{
closed = 1;
nodes = (
(460,-86,l),
(389,-85,o),
(349,-58,o),
(349,7,cs),
(349,154,ls),
(349,222,o),
(314,263,o),
(240,276,c),
(240,282,l),
(313,295,o),
(349,336,o),
(349,404,cs),
(349,548,ls),
(349,613,o),
(391,640,o),
(460,642,c),
(460,714,l),
(343,714,o),
(262,662,o),
(262,556,cs),
(262,408,ls),
(262,341,o),
(219,316,o),
(140,315,c),
(140,242,l),
(219,242,o),
(262,216,o),
(262,148,cs),
(262,1,ls),
(262,-106,o),
(337,-157,o),
(460,-158,c)
);
}
);
width = 600;
},
{
layerId = "A3018D0F-8B4B-4295-AE04-84912D9BB11D";
shapes = (
{
closed = 1;
nodes = (
(463,-55,l),
(404,-53,o),
(376,-38,o),
(376,15,cs),
(376,161,ls),
(376,226,o),
(344,264,o),
(274,275,c),
(274,281,l),
(343,292,o),
(376,329,o),
(376,397,cs),
(376,542,ls),
(376,597,o),
(408,609,o),
(463,611,c),
(463,718,l),
(295,717,o),
(250,674,o),
(250,568,cs),
(250,421,ls),
(250,359,o),
(212,333,o),
(137,333,c),
(137,223,l),
(213,223,o),
(250,195,o),
(250,135,cs),
(250,-12,ls),
(250,-123,o),
(300,-162,o),
(463,-162,c)
);
}
);
width = 600;
},
{
layerId = "963C7F4A-CFE2-43FC-8D10-B7434095D111";
shapes = (
{
closed = 1;
nodes = (
(475,-36,l),
(424,-34,o),
(390,-27,o),
(390,17,cs),
(390,155,ls),
(390,228,o),
(356,263,o),
(286,275,c),
(286,281,l),
(355,292,o),
(390,327,o),
(390,404,cs),
(390,540,ls),
(390,588,o),
(430,590,o),
(475,592,c),
(475,724,l),
(276,724,o),
(234,677,o),
(234,558,cs),
(234,430,ls),
(234,373,o),
(191,347,o),
(125,347,c),
(125,209,l),
(189,209,o),
(234,182,o),
(234,126,cs),
(234,0,ls),
(234,-128,o),
(286,-168,o),
(475,-168,c)
);
}
);
width = 600;
},
{
layerId = "02EF4DD5-EF93-4764-9336-ED93C6797AC3";
shapes = (
{
closed = 1;
nodes = (
(440,-133,l),
(335,-133,o),
(303,-103,o),
(303,-23,cs),
(303,155,ls),
(303,221,o),
(283,267,o),
(224,279,c),
(224,281,l),
(283,290,o),
(303,336,o),
(303,403,cs),
(303,579,ls),
(303,659,o),
(335,689,o),
(440,689,c),
(440,714,l),
(320,714,o),
(276,674,o),
(276,582,cs),
(276,408,ls),
(276,323,o),
(246,291,o),
(166,291,c),
(166,266,l),
(246,266,o),
(276,234,o),
(276,151,cs),
(276,-26,ls),
(276,-118,o),
(320,-158,o),
(440,-158,c)
);
}
);
width = 600;
},
{
layerId = "82FB5ACD-33BC-4284-9837-1B4D88A7F1E9";
shapes = (
{
closed = 1;
nodes = (
(388,-137,l),
(294,-137,o),
(260,-108,o),
(260,-16,cs),
(260,157,ls),
(260,234,o),
(240,267,o),
(182,277,c),
(182,278,l),
(240,288,o),
(260,327,o),
(260,398,cs),
(260,571,ls),
(260,659,o),
(301,693,o),
(388,693,c),
(388,714,l),
(289,714,o),
(235,672,o),
(235,578,cs),
(235,405,ls),
(235,314,o),
(205,289,o),
(129,289,c),
(129,266,l),
(214,266,o),
(235,238,o),
(235,150,cs),
(235,-23,ls),
(235,-125,o),
(280,-157,o),
(388,-158,c)
);
}
);
width = 500;
},
{
layerId = "C5665599-2906-40DA-AF7F-7DBC0844951A";
shapes = (
{
closed = 1;
nodes = (
(390,-95,l),
(320,-94,o),
(291,-65,o),
(291,1,cs),
(291,151,ls),
(291,221,o),
(268,263,o),
(198,276,c),
(198,280,l),
(266,292,o),
(291,331,o),
(291,405,cs),
(291,555,ls),
(291,624,o),
(324,649,o),
(390,651,c),
(390,717,l),
(265,715,o),
(212,662,o),
(212,558,cs),
(212,407,ls),
(212,332,o),
(180,309,o),
(111,309,c),
(111,247,l),
(188,247,o),
(212,215,o),
(212,149,cs),
(212,-1,ls),
(212,-109,o),
(269,-159,o),
(390,-161,c)
);
}
);
width = 500;
},
{
layerId = "28AE7390-0F8D-4D03-A566-30BDF518EAE7";
shapes = (
{
closed = 1;
nodes = (
(403,-67,l),
(336,-65,o),
(313,-44,o),
(313,8,cs),
(313,154,ls),
(313,224,o),
(289,263,o),
(222,275,c),
(222,281,l),
(287,292,o),
(313,330,o),
(313,405,cs),
(313,549,ls),
(313,607,o),
(345,621,o),
(403,623,c),
(403,720,l),
(245,719,o),
(197,671,o),
(197,558,cs),
(197,416,ls),
(197,353,o),
(166,326,o),
(96,326,c),
(96,229,l),
(169,229,o),
(197,198,o),
(197,139,cs),
(197,-1,ls),
(197,-124,o),
(254,-164,o),
(403,-164,c)
);
}
);
width = 500;
},
{
layerId = "35DC4C3B-953E-41FE-A906-9781CEBB9B49";
shapes = (
{
closed = 1;
nodes = (
(411,-50,ls),
(346,-48,o),
(327,-32,o),
(327,11,c),
(327,154,l),
(327,224,o),
(301,263,o),
(236,275,cs),
(236,281,ls),
(300,292,o),
(327,330,o),
(327,405,c),
(327,546,l),
(327,597,o),
(357,604,o),
(411,606,cs),
(411,722,ls),
(234,722,o),
(189,677,o),
(189,558,c),
(189,421,l),
(189,365,o),
(158,335,o),
(88,335,cs),
(88,220,ls),
(158,220,o),
(189,189,o),
(189,134,c),
(189,-1,l),
(189,-132,o),
(247,-166,o),
(411,-166,cs)
);
}
);
width = 500;
}
);
script = "";
subCategory = Parenthesis;
unicode = 123;
}
{
category = Symbol;
glyphname = yen;
layers = (
{
layerId = UUID0;
shapes = (
{
closed = 1;
nodes = (
(342,0,l),
(342,129,l),
(488,129,l),
(488,193,l),
(342,193,l),
(342,275,l),
(488,275,l),
(488,339,l),
(369,339,l),
(565,714,l),
(473,714,l),
(299,365,l),
(128,714,l),
(35,714,l),
(227,339,l),
(112,339,l),
(112,275,l),
(256,275,l),
(256,193,l),
(112,193,l),
(112,129,l),
(256,129,l),
(256,0,l)
);
}
);
width = 600;
},
{
layerId = "A3018D0F-8B4B-4295-AE04-84912D9BB11D";
shapes = (
{
closed = 1;
nodes = (
(368,0,l),
(368,111,l),
(512,111,l),
(512,197,l),
(368,197,l),
(368,265,l),
(512,265,l),
(512,352,l),
(391,352,l),
(575,714,l),
(428,714,l),
(300,427,l),
(172,714,l),
(25,714,l),
(206,352,l),
(88,352,l),
(88,265,l),
(232,265,l),
(232,197,l),
(88,197,l),
(88,111,l),
(232,111,l),
(232,0,l)
);
}
);
width = 600;
},
{
layerId = "963C7F4A-CFE2-43FC-8D10-B7434095D111";
shapes = (
{
closed = 1;
nodes = (
(386,0,l),
(386,99,l),
(523,99,l),
(523,201,l),
(386,201,l),
(386,264,l),
(523,264,l),
(523,367,l),
(410,367,l),
(585,714,l),
(399,714,l),
(301,469,l),
(200,714,l),
(15,714,l),
(188,367,l),
(76,367,l),
(76,264,l),
(215,264,l),
(215,201,l),
(76,201,l),
(76,99,l),
(215,99,l),
(215,0,l)
);
}
);
width = 600;
},
{
layerId = "02EF4DD5-EF93-4764-9336-ED93C6797AC3";
shapes = (
{
closed = 1;
nodes = (
(314,0,l),
(314,162,l),
(489,162,l),
(489,187,l),
(314,187,l),
(314,298,l),
(489,298,l),
(489,323,l),
(321,323,l),
(560,714,l),
(529,714,l),
(301,336,l),
(71,714,l),
(40,714,l),
(279,323,l),
(112,323,l),
(112,298,l),
(288,298,l),
(288,187,l),
(112,187,l),
(112,162,l),
(288,162,l),
(288,0,l)
);
}
);
width = 600;
},
{
layerId = "82FB5ACD-33BC-4284-9837-1B4D88A7F1E9";
shapes = (
{
closed = 1;
nodes = (
(263,0,l),
(263,159,l),
(410,159,l),
(410,183,l),
(263,183,l),
(263,295,l),
(410,295,l),
(410,319,l),
(268,319,l),
(452,714,l),
(424,714,l),
(250,338,l),
(76,714,l),
(47,714,l),
(232,319,l),
(91,319,l),
(91,295,l),
(237,295,l),
(237,183,l),
(91,183,l),
(91,159,l),
(237,159,l),
(237,0,l)
);
}
);
width = 500;
},
{
layerId = "C5665599-2906-40DA-AF7F-7DBC0844951A";
shapes = (
{
closed = 1;
nodes = (
(292,0,l),
(292,130,l),
(405,130,l),
(405,189,l),
(292,189,l),
(292,275,l),
(405,275,l),
(405,334,l),
(308,334,l),
(442,714,l),
(356,714,l),
(251,378,l),
(143,714,l),
(58,714,l),
(191,334,l),
(97,334,l),
(97,275,l),
(208,275,l),
(208,189,l),
(97,189,l),
(97,130,l),
(208,130,l),
(208,0,l)
);
}
);
width = 500;
},
{
layerId = "28AE7390-0F8D-4D03-A566-30BDF518EAE7";
shapes = (
{
closed = 1;
nodes = (
(312,0,l),
(312,117,l),
(431,117,l),
(431,197,l),
(312,197,l),
(312,269,l),
(431,269,l),
(431,351,l),
(333,351,l),
(463,714,l),
(331,714,l),
(251,425,l),
(168,714,l),
(37,714,l),
(165,351,l),
(70,351,l),
(70,269,l),
(188,269,l),
(188,197,l),
(70,197,l),
(70,117,l),
(188,117,l),
(188,0,l)
);
}
);
width = 500;
},
{
layerId = "35DC4C3B-953E-41FE-A906-9781CEBB9B49";
shapes = (
{
closed = 1;
nodes = (
(324,0,l),
(324,109,l),
(445,109,l),
(445,202,l),
(324,202,l),
(324,266,l),
(445,266,l),
(445,360,l),
(347,360,l),
(483,714,l),
(325,714,l),
(250,451,l),
(173,714,l),
(16,714,l),
(150,360,l),
(55,360,l),
(55,266,l),
(176,266,l),
(176,202,l),
(55,202,l),
(55,109,l),
(176,109,l),
(176,0,l)
);
}
);
width = 500;
}
);
script = "";
subCategory = Currency;
unicode = 165;
}
{
category = Symbol;
glyphname = degree;
layers = (
{
layerId = UUID0;
shapes = (
{
closed = 1;
nodes = (
(389,421,o),
(451,486,o),
(451,572,cs),
(451,658,o),
(384,724,o),
(301,724,cs),
(214,724,o),
(149,658,o),
(149,572,cs),
(149,486,o),
(210,421,o),
(301,421,cs)
);
},
{
closed = 1;
nodes = (
(252,480,o),
(210,516,o),
(210,572,cs),
(210,630,o),
(249,664,o),
(302,664,cs),
(352,664,o),
(391,629,o),
(391,572,cs),
(391,515,o),
(352,480,o),
(302,480,cs)
);
}
);
width = 600;
},
{
layerId = "A3018D0F-8B4B-4295-AE04-84912D9BB11D";
shapes = (
{
closed = 1;
nodes = (
(399,409,o),
(460,478,o),
(460,567,cs),
(460,654,o),
(389,724,o),
(300,724,cs),
(212,724,o),
(141,655,o),
(141,567,cs),
(141,478,o),
(208,409,o),
(300,409,cs)
);
},
{
closed = 1;
nodes = (
(257,495,o),
(231,527,o),
(231,567,cs),
(231,608,o),
(261,639,o),
(300,639,cs),
(339,639,o),
(370,610,o),
(370,567,cs),
(370,527,o),
(345,495,o),
(300,495,cs)
);
}
);
width = 600;
},
{
layerId = "963C7F4A-CFE2-43FC-8D10-B7434095D111";
shapes = (
{
closed = 1;
nodes = (
(394,389,o),
(470,459,o),
(470,557,cs),
(470,655,o),
(394,724,o),
(300,724,cs),
(207,724,o),
(131,655,o),
(131,557,cs),
(131,458,o),
(203,389,o),
(300,389,cs)
);
},
{
closed = 1;
nodes = (
(265,494,o),
(237,519,o),
(237,557,cs),
(237,597,o),
(265,620,o),
(300,620,cs),
(335,620,o),
(364,597,o),
(364,557,cs),
(364,523,o),
(340,494,o),
(300,494,cs)
);
}
);
width = 600;
},
{
layerId = "02EF4DD5-EF93-4764-9336-ED93C6797AC3";
shapes = (
{
closed = 1;
nodes = (
(378,441,o),
(441,494,o),
(441,581,cs),
(441,667,o),
(378,724,o),
(300,724,cs),
(223,724,o),
(159,669,o),
(159,582,cs),
(159,494,o),
(224,441,o),
(301,441,cs)
);
},
{
closed = 1;
nodes = (
(234,464,o),
(184,513,o),
(184,583,cs),
(184,653,o),
(235,701,o),
(298,701,cs),
(363,701,o),
(416,653,o),
(416,582,cs),
(416,511,o),
(364,464,o),
(300,464,cs)
);
}
);
width = 600;
},
{
layerId = "82FB5ACD-33BC-4284-9837-1B4D88A7F1E9";
shapes = (
{
closed = 1;
nodes = (
(326,460,o),
(381,511,o),
(381,592,cs),
(381,675,o),
(321,724,o),
(249,724,cs),
(178,724,o),
(118,677,o),
(118,592,cs),
(118,506,o),
(180,460,o),
(250,460,cs)
);
},
{
closed = 1;
nodes = (
(189,483,o),
(143,524,o),
(143,592,cs),
(143,657,o),
(186,701,o),
(249,701,cs),
(314,701,o),
(356,657,o),
(356,591,cs),
(356,524,o),
(311,483,o),
(249,483,cs)
);
}
);
width = 500;
},
{
layerId = "C5665599-2906-40DA-AF7F-7DBC0844951A";
shapes = (
{
closed = 1;
nodes = (
(323,455,o),
(384,505,o),
(384,588,cs),
(384,671,o),
(324,723,o),
(249,723,cs),
(175,723,o),
(115,672,o),
(115,589,cs),
(115,506,o),
(173,455,o),
(249,455,cs)
);
},
{
closed = 1;
nodes = (
(207,507,o),
(170,536,o),
(170,588,cs),
(170,637,o),
(202,671,o),
(250,671,cs),
(295,671,o),
(329,640,o),
(329,589,cs),
(329,537,o),
(294,507,o),
(250,507,cs)
);
}
);
width = 500;
},
{
layerId = "28AE7390-0F8D-4D03-A566-30BDF518EAE7";
shapes = (
{
closed = 1;
nodes = (
(334,435,o),
(394,494,o),
(394,580,cs),
(394,661,o),
(335,724,o),
(249,724,cs),
(164,724,o),
(105,662,o),
(105,580,cs),
(105,495,o),
(164,435,o),
(249,435,cs)
);
},
{
closed = 1;
nodes = (
(207,509,o),
(180,539,o),
(180,580,cs),
(180,618,o),
(203,650,o),
(249,650,cs),
(294,650,o),
(319,618,o),
(319,580,cs),
(319,541,o),
(293,509,o),
(249,509,cs)
);
}
);
width = 500;
},
{
layerId = "35DC4C3B-953E-41FE-A906-9781CEBB9B49";
shapes = (
{
closed = 1;
nodes = (
(331,426,o),
(399,482,o),
(399,574,cs),
(399,665,o),
(332,724,o),
(249,724,cs),
(167,724,o),
(100,666,o),
(100,575,cs),
(100,483,o),
(167,426,o),
(249,426,cs)
);
},
{
closed = 1;
nodes = (
(213,509,o),
(185,534,o),
(185,575,cs),
(185,614,o),
(212,640,o),
(249,640,cs),
(285,640,o),
(314,615,o),
(314,575,cs),
(314,534,o),
(285,509,o),
(249,509,cs)
);
}
);
width = 500;
}
);
script = "";
subCategory = Other;
unicode = 176;
}
{
category = Number;
glyphname = threesuperior;
layers = (
{
layerId = UUID0;
shapes = (
{
closed = 1;
nodes = (
(392,408,o),
(445,462,o),
(445,537,cs),
(445,594,o),
(414,628,o),
(366,638,c),
(366,641,l),
(402,654,o),
(432,689,o),
(432,742,cs),
(432,808,o),
(385,853,o),
(296,853,cs),
(237,853,o),
(198,834,o),
(157,804,c),
(193,758,l),
(227,780,o),
(260,796,o),
(294,796,cs),
(332,796,o),
(360,777,o),
(360,735,cs),
(360,693,o),
(332,665,o),
(270,665,cs),
(213,665,l),
(213,610,l),
(270,610,ls),
(335,610,o),
(373,589,o),
(373,539,cs),
(373,495,o),
(344,465,o),
(282,465,cs),
(242,465,o),
(200,477,o),
(155,499,c),
(155,436,l),
(195,416,o),
(234,408,o),
(278,408,cs)
);
}
);
width = 600;
},
{
layerId = "A3018D0F-8B4B-4295-AE04-84912D9BB11D";
shapes = (
{
closed = 1;
nodes = (
(389,408,o),
(450,455,o),
(450,530,cs),
(450,584,o),
(420,623,o),
(360,637,c),
(360,642,l),
(412,662,o),
(437,696,o),
(437,743,cs),
(437,811,o),
(380,853,o),
(299,853,cs),
(239,853,o),
(189,832,o),
(150,799,c),
(196,733,l),
(228,759,o),
(256,770,o),
(288,770,cs),
(323,770,o),
(339,752,o),
(339,725,cs),
(339,695,o),
(321,672,o),
(263,672,cs),
(223,672,l),
(223,595,l),
(271,595,ls),
(328,595,o),
(349,574,o),
(349,542,cs),
(349,509,o),
(327,492,o),
(282,492,cs),
(233,492,o),
(189,507,o),
(152,533,c),
(152,440,l),
(189,418,o),
(233,408,o),
(283,408,cs)
);
}
);
width = 600;
},
{
layerId = "963C7F4A-CFE2-43FC-8D10-B7434095D111";
shapes = (
{
closed = 1;
nodes = (
(389,408,o),
(455,453,o),
(455,532,cs),
(455,588,o),
(428,621,o),
(375,637,c),
(375,641,l),
(421,662,o),
(442,698,o),
(442,748,cs),
(442,813,o),
(387,853,o),
(301,853,cs),
(239,853,o),
(186,831,o),
(145,796,c),
(198,717,l),
(229,744,o),
(256,755,o),
(287,755,cs),
(318,755,o),
(329,738,o),
(329,717,cs),
(329,693,o),
(313,678,o),
(265,678,cs),
(229,678,l),
(229,586,l),
(276,586,ls),
(325,586,o),
(337,571,o),
(337,551,cs),
(337,522,o),
(318,511,o),
(278,511,cs),
(235,511,o),
(186,524,o),
(150,554,c),
(150,442,l),
(186,419,o),
(234,408,o),
(290,408,cs)
);
}
);
width = 600;
},
{
layerId = "02EF4DD5-EF93-4764-9336-ED93C6797AC3";
shapes = (
{
closed = 1;
nodes = (
(377,412,o),
(434,458,o),
(434,538,cs),
(434,594,o),
(406,629,o),
(348,642,c),
(348,644,l),
(392,654,o),
(424,691,o),
(424,746,cs),
(424,813,o),
(376,851,o),
(298,851,cs),
(247,851,o),
(202,835,o),
(165,810,c),
(175,788,l),
(213,811,o),
(251,826,o),
(297,826,cs),
(362,826,o),
(398,797,o),
(398,744,cs),
(398,688,o),
(357,652,o),
(286,652,cs),
(219,652,l),
(219,630,l),
(286,630,ls),
(368,630,o),
(408,600,o),
(408,539,cs),
(408,475,o),
(363,437,o),
(280,437,cs),
(235,437,o),
(196,448,o),
(156,465,c),
(156,437,l),
(190,422,o),
(235,412,o),
(280,412,cs)
);
}
);
width = 600;
},
{
layerId = "82FB5ACD-33BC-4284-9837-1B4D88A7F1E9";
shapes = (
{
closed = 1;
nodes = (
(309,411,o),
(363,455,o),
(363,535,cs),
(363,593,o),
(332,628,o),
(278,642,c),
(278,643,l),
(320,655,o),
(352,691,o),
(352,748,cs),
(352,814,o),
(306,851,o),
(238,851,cs),
(190,851,o),
(152,835,o),
(120,811,c),
(132,790,l),
(163,812,o),
(195,827,o),
(238,827,cs),
(295,827,o),
(326,797,o),
(326,748,cs),
(326,689,o),
(288,652,o),
(223,652,cs),
(173,652,l),
(173,628,l),
(223,628,ls),
(299,628,o),
(337,594,o),
(337,535,cs),
(337,473,o),
(296,435,o),
(219,435,cs),
(181,435,o),
(148,444,o),
(115,460,c),
(115,432,l),
(143,419,o),
(180,411,o),
(219,411,cs)
);
}
);
width = 500;
},
{
layerId = "C5665599-2906-40DA-AF7F-7DBC0844951A";
shapes = (
{
closed = 1;
nodes = (
(322,407,o),
(385,452,o),
(385,532,cs),
(385,587,o),
(356,623,o),
(305,638,c),
(305,642,l),
(348,659,o),
(372,695,o),
(372,743,cs),
(372,812,o),
(321,853,o),
(245,853,cs),
(198,853,o),
(161,837,o),
(126,805,c),
(158,759,l),
(184,783,o),
(207,794,o),
(238,794,cs),
(282,794,o),
(309,772,o),
(309,734,cs),
(309,692,o),
(277,663,o),
(220,663,cs),
(188,663,l),
(188,608,l),
(222,608,ls),
(287,608,o),
(319,582,o),
(319,535,cs),
(319,492,o),
(293,467,o),
(232,467,cs),
(195,467,o),
(161,476,o),
(130,496,c),
(130,431,l),
(162,415,o),
(196,407,o),
(233,407,cs)
);
}
);
width = 500;
},
{
layerId = "28AE7390-0F8D-4D03-A566-30BDF518EAE7";
shapes = (
{
closed = 1;
nodes = (
(321,407,o),
(383,454,o),
(383,531,cs),
(383,587,o),
(356,622,o),
(306,637,c),
(306,641,l),
(349,661,o),
(372,696,o),
(372,746,cs),
(372,813,o),
(320,853,o),
(244,853,cs),
(197,853,o),
(154,834,o),
(117,799,c),
(157,739,l),
(184,764,o),
(207,774,o),
(235,774,cs),
(269,774,o),
(285,756,o),
(285,726,cs),
(285,691,o),
(262,670,o),
(217,670,cs),
(183,670,l),
(183,597,l),
(222,597,ls),
(271,597,o),
(294,578,o),
(294,539,cs),
(294,508,o),
(274,490,o),
(233,490,cs),
(190,490,o),
(152,501,o),
(121,524,c),
(121,437,l),
(153,417,o),
(191,407,o),
(234,407,cs)
);
}
);
width = 500;
},
{
layerId = "35DC4C3B-953E-41FE-A906-9781CEBB9B49";
shapes = (
{
closed = 1;
nodes = (
(333,407,o),
(398,453,o),
(398,532,cs),
(398,590,o),
(363,623,o),
(312,637,c),
(312,641,l),
(362,661,o),
(387,698,o),
(387,744,cs),
(387,813,o),
(330,853,o),
(252,853,cs),
(198,853,o),
(152,834,o),
(111,796,c),
(156,727,l),
(186,753,o),
(210,763,o),
(238,763,cs),
(274,763,o),
(287,747,o),
(287,722,cs),
(287,690,o),
(264,673,o),
(219,673,cs),
(180,673,l),
(180,591,l),
(227,591,ls),
(272,591,o),
(295,576,o),
(295,544,cs),
(295,519,o),
(281,502,o),
(232,502,cs),
(189,502,o),
(149,515,o),
(117,540,c),
(117,440,l),
(150,418,o),
(191,407,o),
(238,407,cs)
);
}
);
width = 500;
}
);
script = "";
subCategory = Small;
unicode = 179;
}
{
category = Number;
glyphname = onehalf;
layers = (
{
layerId = UUID0;
shapes = (
{
closed = 1;
nodes = (
(160,0,l),
(529,714,l),
(453,714,l),
(83,0,l)
);
},
{
closed = 1;
nodes = (
(255,367,l),
(255,418,l),
(167,425,l),
(112,425,l),
(32,418,l),
(32,367,l)
);
},
{
closed = 1;
nodes = (
(574,0,l),
(574,62,l),
(418,62,l),
(473,111,ls),
(536,168,o),
(566,200,o),
(566,252,cs),
(566,316,o),
(521,355,o),
(447,355,cs),
(402,355,o),
(366,336,o),
(335,309,c),
(370,263,l),
(395,283,o),
(417,297,o),
(446,297,cs),
(477,297,o),
(498,280,o),
(498,248,cs),
(498,214,o),
(483,197,o),
(420,138,cs),
(331,54,l),
(331,0,l)
);
},
{
closed = 1;
nodes = (
(109,367,l),
(174,367,l),
(174,714,l),
(107,714,l),
(4,655,l),
(38,599,l),
(67,615,ls),
(83,624,o),
(98,635,o),
(111,647,c),
(109,619,o),
(109,596,o),
(109,562,cs)
);
}
);
width = 600;
},
{
layerId = "A3018D0F-8B4B-4295-AE04-84912D9BB11D";
shapes = (
{
closed = 1;
nodes = (
(156,73,l),
(566,617,l),
(456,617,l),
(45,73,l)
);
},
{
closed = 1;
nodes = (
(264,379,l),
(264,441,l),
(172,449,l),
(129,449,l),
(32,441,l),
(32,379,l)
);
},
{
closed = 1;
nodes = (
(584,0,l),
(584,73,l),
(445,73,l),
(475,99,ls),
(538,158,o),
(571,193,o),
(571,247,cs),
(571,306,o),
(533,344,o),
(461,344,cs),
(409,344,o),
(369,323,o),
(341,294,c),
(383,240,l),
(406,261,o),
(424,273,o),
(448,273,cs),
(472,273,o),
(486,260,o),
(486,238,cs),
(486,212,o),
(473,198,o),
(424,150,cs),
(344,68,l),
(344,0,l)
);
},
{
closed = 1;
nodes = (
(109,379,l),
(189,379,l),
(189,714,l),
(121,714,l),
(8,648,l),
(46,583,l),
(79,602,ls),
(89,608,o),
(101,617,o),
(112,625,c),
(110,598,o),
(109,566,o),
(109,539,cs)
);
}
);
width = 600;
},
{
layerId = "963C7F4A-CFE2-43FC-8D10-B7434095D111";
shapes = (
{
closed = 1;
nodes = (
(153,120,l),
(590,555,l),
(458,555,l),
(21,120,l)
);
},
{
closed = 1;
nodes = (
(269,387,l),
(269,456,l),
(175,465,l),
(140,465,l),
(32,456,l),
(32,387,l)
);
},
{
closed = 1;
nodes = (
(591,0,l),
(591,80,l),
(463,80,l),
(476,92,ls),
(540,151,o),
(575,189,o),
(575,244,cs),
(575,299,o),
(540,337,o),
(470,337,cs),
(414,337,o),
(371,314,o),
(345,285,c),
(392,226,l),
(413,247,o),
(429,257,o),
(449,257,cs),
(469,257,o),
(478,247,o),
(478,231,cs),
(478,211,o),
(466,199,o),
(427,157,cs),
(352,77,l),
(352,0,l)
);
},
{
closed = 1;
nodes = (
(109,387,l),
(199,387,l),
(199,714,l),
(130,714,l),
(10,644,l),
(51,573,l),
(87,594,ls),
(93,598,o),
(103,605,o),
(112,611,c),
(110,584,o),
(109,546,o),
(109,524,cs)
);
}
);
width = 600;
},
{
layerId = "02EF4DD5-EF93-4764-9336-ED93C6797AC3";
shapes = (
{
closed = 1;
nodes = (
(126,0,l),
(496,714,l),
(466,714,l),
(96,0,l)
);
},
{
closed = 1;
nodes = (
(240,367,l),
(240,386,l),
(154,391,l),
(129,391,l),
(40,386,l),
(40,367,l)
);
},
{
closed = 1;
nodes = (
(574,0,l),
(574,25,l),
(385,25,l),
(462,104,ls),
(526,170,o),
(565,206,o),
(565,263,cs),
(565,316,o),
(528,355,o),
(463,355,cs),
(425,355,o),
(390,342,o),
(361,317,c),
(374,297,l),
(403,320,o),
(430,330,o),
(463,330,cs),
(512,330,o),
(538,302,o),
(538,263,cs),
(538,215,o),
(502,180,o),
(445,121,cs),
(348,21,l),
(348,0,l)
);
},
{
closed = 1;
nodes = (
(129,367,l),
(155,367,l),
(155,714,l),
(135,714,l),
(20,652,l),
(31,630,l),
(57,644,ls),
(90,662,o),
(107,670,o),
(130,685,c),
(129,649,o),
(129,604,o),
(129,566,cs)
);
}
);
width = 600;
},
{
layerId = "82FB5ACD-33BC-4284-9837-1B4D88A7F1E9";
shapes = (
{
closed = 1;
nodes = (
(106,0,l),
(413,714,l),
(385,714,l),
(78,0,l)
);
},
{
closed = 1;
nodes = (
(200,367,l),
(200,386,l),
(128,391,l),
(105,391,l),
(32,386,l),
(32,367,l)
);
},
{
closed = 1;
nodes = (
(476,0,l),
(476,25,l),
(321,25,l),
(384,104,ls),
(436,170,o),
(469,206,o),
(469,263,cs),
(469,316,o),
(437,355,o),
(383,355,cs),
(351,355,o),
(322,342,o),
(297,317,c),
(310,297,l),
(333,320,o),
(356,330,o),
(383,330,cs),
(422,330,o),
(443,302,o),
(443,263,cs),
(443,215,o),
(415,180,o),
(368,121,cs),
(288,21,l),
(287,0,l)
);
},
{
closed = 1;
nodes = (
(105,367,l),
(129,367,l),
(129,714,l),
(110,714,l),
(15,652,l),
(26,630,l),
(48,644,ls),
(74,661,o),
(88,670,o),
(106,685,c),
(105,649,o),
(105,604,o),
(105,566,cs)
);
}
);
width = 500;
},
{
layerId = "C5665599-2906-40DA-AF7F-7DBC0844951A";
shapes = (
{
closed = 1;
nodes = (
(131,0,l),
(448,714,l),
(377,714,l),
(60,0,l)
);
},
{
closed = 1;
nodes = (
(214,367,l),
(214,417,l),
(140,424,l),
(98,424,l),
(27,417,l),
(27,367,l)
);
},
{
closed = 1;
nodes = (
(479,0,l),
(479,61,l),
(352,61,l),
(393,110,ls),
(443,169,o),
(471,200,o),
(471,252,cs),
(471,316,o),
(436,355,o),
(375,355,cs),
(336,355,o),
(306,336,o),
(281,309,c),
(311,264,l),
(331,284,o),
(349,298,o),
(371,298,cs),
(396,298,o),
(412,281,o),
(412,248,cs),
(412,214,o),
(399,196,o),
(350,138,cs),
(278,53,l),
(279,0,l)
);
},
{
closed = 1;
nodes = (
(91,367,l),
(148,367,l),
(148,714,l),
(93,714,l),
(5,655,l),
(34,600,l),
(58,616,ls),
(71,625,o),
(83,636,o),
(93,648,c),
(92,620,o),
(91,596,o),
(91,562,cs)
);
}
);
width = 500;
},
{
layerId = "28AE7390-0F8D-4D03-A566-30BDF518EAE7";
shapes = (
{
closed = 1;
nodes = (
(129,65,l),
(482,629,l),
(380,629,l),
(27,65,l)
);
},
{
closed = 1;
nodes = (
(222,378,l),
(222,438,l),
(145,446,l),
(113,446,l),
(28,438,l),
(28,378,l)
);
},
{
closed = 1;
nodes = (
(489,0,l),
(489,71,l),
(378,71,l),
(397,98,ls),
(437,165,o),
(476,194,o),
(476,248,cs),
(476,307,o),
(446,345,o),
(388,345,cs),
(343,345,o),
(308,324,o),
(286,296,c),
(323,243,l),
(341,264,o),
(356,276,o),
(373,276,cs),
(392,276,o),
(401,263,o),
(401,239,cs),
(401,212,o),
(391,197,o),
(353,148,cs),
(290,66,l),
(291,0,l)
);
},
{
closed = 1;
nodes = (
(92,378,l),
(162,378,l),
(162,714,l),
(106,714,l),
(9,649,l),
(41,585,l),
(70,604,ls),
(77,610,o),
(86,620,o),
(94,628,c),
(93,600,o),
(92,569,o),
(92,542,cs)
);
}
);
width = 500;
},
{
layerId = "35DC4C3B-953E-41FE-A906-9781CEBB9B49";
shapes = (
{
closed = 1;
nodes = (
(127,106,l),
(503,574,l),
(382,574,l),
(6,106,l)
);
},
{
closed = 1;
nodes = (
(227,385,l),
(227,451,l),
(148,460,l),
(123,460,l),
(28,451,l),
(28,385,l)
);
},
{
closed = 1;
nodes = (
(495,0,l),
(495,78,l),
(394,78,l),
(400,91,ls),
(433,162,o),
(480,190,o),
(480,245,cs),
(480,301,o),
(453,339,o),
(396,339,cs),
(347,339,o),
(310,317,o),
(290,288,c),
(331,230,l),
(348,251,o),
(360,262,o),
(374,262,cs),
(389,262,o),
(394,251,o),
(394,233,cs),
(394,211,o),
(386,198,o),
(355,155,cs),
(297,74,l),
(298,0,l)
);
},
{
closed = 1;
nodes = (
(92,385,l),
(171,385,l),
(171,714,l),
(114,714,l),
(11,645,l),
(46,576,l),
(77,597,ls),
(81,600,o),
(88,609,o),
(94,615,c),
(93,588,o),
(92,552,o),
(92,529,cs)
);
}
);
width = 500;
}
);
script = "";
subCategory = Fraction;
unicode = 189;
}
{
category = Number;
glyphname = threequarters;
layers = (
{
layerId = UUID0;
shapes = (
{
closed = 1;
nodes = (
(160,0,l),
(529,714,l),
(453,714,l),
(83,0,l)
);
},
{
closed = 1;
nodes = (
(522,0,l),
(522,78,l),
(574,78,l),
(574,134,l),
(522,134,l),
(522,349,l),
(455,349,l),
(300,130,l),
(300,78,l),
(458,78,l),
(458,0,l)
);
},
{
closed = 1;
nodes = (
(433,226,ls),
(444,242,o),
(455,259,o),
(460,271,c),
(460,247,o),
(458,234,o),
(458,208,cs),
(458,134,l),
(370,134,l)
);
},
{
closed = 1;
nodes = (
(219,361,o),
(262,406,o),
(262,471,cs),
(262,513,o),
(242,538,o),
(203,549,c),
(203,552,l),
(231,560,o),
(253,586,o),
(253,627,cs),
(253,684,o),
(212,723,o),
(133,723,cs),
(85,723,o),
(53,707,o),
(19,683,c),
(55,637,l),
(81,654,o),
(106,666,o),
(131,666,cs),
(160,666,o),
(181,652,o),
(181,622,cs),
(181,592,o),
(160,573,o),
(114,573,cs),
(66,573,l),
(66,518,l),
(114,518,ls),
(161,518,o),
(190,505,o),
(190,471,cs),
(190,439,o),
(169,418,o),
(122,418,cs),
(92,418,o),
(61,427,o),
(27,443,c),
(27,380,l),
(56,366,o),
(85,361,o),
(118,361,cs)
);
}
);
width = 600;
},
{
layerId = "A3018D0F-8B4B-4295-AE04-84912D9BB11D";
shapes = (
{
closed = 1;
nodes = (
(156,73,l),
(566,617,l),
(456,617,l),
(45,73,l)
);
},
{
closed = 1;
nodes = (
(526,0,l),
(526,62,l),
(578,62,l),
(578,129,l),
(526,129,l),
(526,336,l),
(439,336,l),
(299,125,l),
(299,62,l),
(445,62,l),
(445,0,l)
);
},
{
closed = 1;
nodes = (
(421,203,ls),
(429,215,o),
(441,234,o),
(447,251,c),
(447,231,o),
(445,217,o),
(445,196,cs),
(445,129,l),
(372,129,l)
);
},
{
closed = 1;
nodes = (
(223,374,o),
(271,413,o),
(271,475,cs),
(271,518,o),
(251,543,o),
(210,554,c),
(210,557,l),
(243,570,o),
(262,598,o),
(262,637,cs),
(262,689,o),
(220,723,o),
(149,723,cs),
(101,723,o),
(64,707,o),
(31,681,c),
(70,626,l),
(95,645,o),
(117,655,o),
(141,655,cs),
(167,655,o),
(180,642,o),
(180,620,cs),
(180,597,o),
(165,583,o),
(124,583,cs),
(89,583,l),
(89,519,l),
(130,519,ls),
(171,519,o),
(188,507,o),
(188,484,cs),
(188,458,o),
(171,445,o),
(134,445,cs),
(102,445,o),
(67,454,o),
(37,475,c),
(37,398,l),
(65,381,o),
(99,374,o),
(138,374,cs)
);
}
);
width = 600;
},
{
layerId = "963C7F4A-CFE2-43FC-8D10-B7434095D111";
shapes = (
{
closed = 1;
nodes = (
(153,120,l),
(590,555,l),
(458,555,l),
(21,120,l)
);
},
{
closed = 1;
nodes = (
(529,0,l),
(529,52,l),
(580,52,l),
(580,125,l),
(529,125,l),
(529,328,l),
(428,328,l),
(299,121,l),
(299,52,l),
(437,52,l),
(437,0,l)
);
},
{
closed = 1;
nodes = (
(414,189,ls),
(420,198,o),
(432,218,o),
(439,238,c),
(438,221,o),
(437,206,o),
(437,188,cs),
(437,125,l),
(373,125,l)
);
},
{
closed = 1;
nodes = (
(226,383,o),
(277,417,o),
(277,478,cs),
(277,521,o),
(256,546,o),
(215,558,c),
(215,561,l),
(251,577,o),
(267,605,o),
(267,643,cs),
(267,693,o),
(225,723,o),
(159,723,cs),
(111,723,o),
(71,707,o),
(39,680,c),
(80,619,l),
(104,640,o),
(124,648,o),
(148,648,cs),
(172,648,o),
(180,635,o),
(180,619,cs),
(180,601,o),
(168,590,o),
(131,590,cs),
(104,590,l),
(104,519,l),
(140,519,ls),
(177,519,o),
(186,508,o),
(186,492,cs),
(186,470,o),
(172,462,o),
(141,462,cs),
(108,462,o),
(71,472,o),
(43,495,c),
(43,409,l),
(71,391,o),
(108,383,o),
(150,383,cs)
);
}
);
width = 600;
},
{
layerId = "02EF4DD5-EF93-4764-9336-ED93C6797AC3";
shapes = (
{
closed = 1;
nodes = (
(126,0,l),
(496,714,l),
(466,714,l),
(96,0,l)
);
},
{
closed = 1;
nodes = (
(507,0,l),
(507,96,l),
(567,96,l),
(567,120,l),
(507,120,l),
(507,349,l),
(479,349,l),
(312,114,l),
(312,96,l),
(482,96,l),
(482,0,l)
);
},
{
closed = 1;
nodes = (
(449,268,ls),
(464,289,o),
(470,298,o),
(483,320,c),
(482,294,o),
(482,269,o),
(482,237,cs),
(482,120,l),
(344,120,l)
);
},
{
closed = 1;
nodes = (
(204,361,o),
(250,400,o),
(250,467,cs),
(250,513,o),
(227,541,o),
(179,552,c),
(179,554,l),
(215,562,o),
(242,592,o),
(242,636,cs),
(242,691,o),
(203,723,o),
(140,723,cs),
(99,723,o),
(62,710,o),
(32,690,c),
(42,668,l),
(72,686,o),
(102,698,o),
(139,698,cs),
(189,698,o),
(216,675,o),
(216,634,cs),
(216,590,o),
(180,562,o),
(117,562,cs),
(76,562,l),
(76,540,l),
(117,540,ls),
(189,540,o),
(224,516,o),
(224,468,cs),
(224,417,o),
(189,386,o),
(125,386,cs),
(89,386,o),
(57,395,o),
(25,410,c),
(25,382,l),
(52,369,o),
(89,361,o),
(125,361,cs)
);
}
);
width = 600;
},
{
layerId = "82FB5ACD-33BC-4284-9837-1B4D88A7F1E9";
shapes = (
{
closed = 1;
nodes = (
(107,0,l),
(414,714,l),
(386,714,l),
(79,0,l)
);
},
{
closed = 1;
nodes = (
(422,0,l),
(422,96,l),
(471,96,l),
(471,120,l),
(422,120,l),
(422,349,l),
(396,349,l),
(258,114,l),
(258,96,l),
(399,96,l),
(399,0,l)
);
},
{
closed = 1;
nodes = (
(372,268,ls),
(384,289,o),
(389,298,o),
(399,320,c),
(399,294,o),
(399,269,o),
(399,237,cs),
(399,120,l),
(288,120,l)
);
},
{
closed = 1;
nodes = (
(170,361,o),
(208,400,o),
(208,467,cs),
(208,513,o),
(190,541,o),
(150,552,c),
(150,554,l),
(180,562,o),
(202,592,o),
(202,636,cs),
(202,691,o),
(169,723,o),
(116,723,cs),
(81,723,o),
(51,710,o),
(26,690,c),
(36,668,l),
(60,686,o),
(85,698,o),
(115,698,cs),
(155,698,o),
(177,675,o),
(177,634,cs),
(177,590,o),
(148,562,o),
(97,562,cs),
(63,562,l),
(63,540,l),
(97,540,ls),
(155,540,o),
(184,516,o),
(184,468,cs),
(184,417,o),
(156,386,o),
(104,386,cs),
(74,386,o),
(48,395,o),
(21,410,c),
(21,382,l),
(44,369,o),
(74,361,o),
(103,361,cs)
);
}
);
width = 500;
},
{
layerId = "C5665599-2906-40DA-AF7F-7DBC0844951A";
shapes = (
{
closed = 1;
nodes = (
(130,0,l),
(447,714,l),
(377,714,l),
(60,0,l)
);
},
{
closed = 1;
nodes = (
(434,0,l),
(434,79,l),
(477,79,l),
(477,134,l),
(434,134,l),
(434,349,l),
(374,349,l),
(249,130,l),
(249,79,l),
(377,79,l),
(377,0,l)
);
},
{
closed = 1;
nodes = (
(357,227,ls),
(365,243,o),
(374,260,o),
(379,273,c),
(379,248,o),
(377,235,o),
(377,209,cs),
(377,134,l),
(307,134,l)
);
},
{
closed = 1;
nodes = (
(182,361,o),
(219,406,o),
(219,471,cs),
(219,513,o),
(202,538,o),
(169,549,c),
(169,552,l),
(194,560,o),
(212,586,o),
(212,627,cs),
(212,684,o),
(177,723,o),
(114,723,cs),
(75,723,o),
(47,707,o),
(19,683,c),
(49,638,l),
(70,655,o),
(90,667,o),
(111,667,cs),
(135,667,o),
(151,653,o),
(151,622,cs),
(151,592,o),
(134,573,o),
(97,573,cs),
(61,573,l),
(61,519,l),
(98,519,ls),
(137,519,o),
(158,505,o),
(158,471,cs),
(158,438,o),
(141,417,o),
(104,417,cs),
(78,417,o),
(52,426,o),
(25,442,c),
(25,380,l),
(48,366,o),
(74,361,o),
(103,361,cs)
);
}
);
width = 500;
},
{
layerId = "28AE7390-0F8D-4D03-A566-30BDF518EAE7";
shapes = (
{
closed = 1;
nodes = (
(128,65,l),
(481,629,l),
(380,629,l),
(27,65,l)
);
},
{
closed = 1;
nodes = (
(439,0,l),
(439,64,l),
(481,64,l),
(481,129,l),
(439,129,l),
(439,338,l),
(360,338,l),
(249,125,l),
(249,64,l),
(367,64,l),
(367,0,l)
);
},
{
closed = 1;
nodes = (
(347,206,ls),
(353,219,o),
(362,237,o),
(368,254,c),
(367,233,o),
(367,219,o),
(367,197,cs),
(367,129,l),
(310,129,l)
);
},
{
closed = 1;
nodes = (
(187,373,o),
(228,412,o),
(228,475,cs),
(228,517,o),
(211,542,o),
(177,554,c),
(177,557,l),
(206,569,o),
(221,596,o),
(221,636,cs),
(221,689,o),
(186,723,o),
(129,723,cs),
(90,723,o),
(57,707,o),
(31,681,c),
(64,628,l),
(83,647,o),
(101,657,o),
(121,657,cs),
(142,657,o),
(150,643,o),
(150,620,cs),
(150,597,o),
(139,582,o),
(107,582,cs),
(82,582,l),
(82,519,l),
(113,519,ls),
(146,519,o),
(156,507,o),
(156,482,cs),
(156,455,o),
(143,441,o),
(115,441,cs),
(88,441,o),
(58,451,o),
(34,471,c),
(34,396,l),
(57,379,o),
(87,373,o),
(121,373,cs)
);
}
);
width = 500;
},
{
layerId = "35DC4C3B-953E-41FE-A906-9781CEBB9B49";
shapes = (
{
closed = 1;
nodes = (
(127,106,l),
(503,574,l),
(382,574,l),
(6,106,l)
);
},
{
closed = 1;
nodes = (
(442,0,l),
(442,55,l),
(484,55,l),
(484,126,l),
(442,126,l),
(442,331,l),
(351,331,l),
(249,122,l),
(249,55,l),
(360,55,l),
(360,0,l)
);
},
{
closed = 1;
nodes = (
(341,193,ls),
(345,203,o),
(355,223,o),
(361,242,c),
(360,224,o),
(360,209,o),
(360,190,cs),
(360,126,l),
(312,126,l)
);
},
{
closed = 1;
nodes = (
(190,380,o),
(234,416,o),
(234,477,cs),
(234,520,o),
(216,545,o),
(182,557,c),
(182,560,l),
(214,575,o),
(226,603,o),
(226,641,cs),
(226,692,o),
(191,723,o),
(138,723,cs),
(99,723,o),
(64,707,o),
(38,680,c),
(73,621,l),
(92,642,o),
(108,650,o),
(127,650,cs),
(146,650,o),
(150,637,o),
(150,619,cs),
(150,600,o),
(142,588,o),
(113,588,cs),
(95,588,l),
(95,519,l),
(123,519,ls),
(151,519,o),
(155,508,o),
(155,489,cs),
(155,466,o),
(145,457,o),
(122,457,cs),
(94,457,o),
(62,467,o),
(40,489,c),
(40,406,l),
(63,388,o),
(95,380,o),
(132,380,cs)
);
}
);
width = 500;
}
);
script = "";
subCategory = Fraction;
unicode = 190;
}
{
category = Letter;
glyphname = dcaron;
layers = (
{
anchors = (
{
name = bottom;
pos = (271,0);
},
{
name = center;
pos = (266,264);
},
{
name = top;
pos = (320,760);
},
{
name = topright;
pos = (580,760);
}
);
layerId = "02EF4DD5-EF93-4764-9336-ED93C6797AC3";
shapes = (
{
closed = 1;
nodes = (
(350,-10,o),
(402,42,o),
(429,113,c),
(431,113,l),
(433,0,l),
(455,0,l),
(455,760,l),
(429,760,l),
(429,543,ls),
(429,501,o),
(429,454,o),
(431,409,c),
(429,409,l),
(407,477,o),
(358,537,o),
(260,537,cs),
(133,537,o),
(60,437,o),
(60,254,cs),
(60,86,o),
(122,-10,o),
(253,-10,cs)
);
},
{
closed = 1;
nodes = (
(143,15,o),
(87,92,o),
(87,255,cs),
(87,427,o),
(149,512,o),
(261,512,cs),
(374,512,o),
(429,426,o),
(429,266,cs),
(429,263,ls),
(429,108,o),
(380,15,o),
(256,15,cs)
);
},
{
alignment = -1;
pos = (270,46);
ref = caroncommaaccent;
}
);
width = 600;
},
{
anchors = (
{
name = bottom;
pos = (300,0);
},
{
name = center;
pos = (261,268);
},
{
name = top;
pos = (327,760);
},
{
name = topright;
pos = (580,760);
}
);
layerId = UUID0;
shapes = (
{
closed = 1;
nodes = (
(317,-10,o),
(363,22,o),
(392,72,c),
(396,72,l),
(406,0,l),
(480,0,l),
(480,760,l),
(391,760,l),
(391,551,ls),
(391,520,o),
(394,491,o),
(397,468,c),
(391,468,l),
(365,513,o),
(327,546,o),
(249,546,cs),
(116,546,o),
(45,449,o),
(45,270,cs),
(45,81,o),
(124,-10,o),
(245,-10,cs)
);
},
{
closed = 1;
nodes = (
(177,63,o),
(137,129,o),
(137,262,cs),
(137,405,o),
(183,473,o),
(265,473,cs),
(359,473,o),
(391,383,o),
(391,267,cs),
(391,247,ls),
(391,134,o),
(349,63,o),
(261,63,cs)
);
},
{
alignment = -1;
pos = (282,46);
ref = caroncommaaccent;
}
);
width = 600;
},
{
anchors = (
{
name = bottom;
pos = (240,0);
},
{
name = center;
pos = (240,273);
},
{
name = top;
pos = (281,760);
},
{
name = topright;
pos = (520,760);
}
);
layerId = "A3018D0F-8B4B-4295-AE04-84912D9BB11D";
shapes = (
{
closed = 1;
nodes = (
(271,-10,o),
(315,17,o),
(349,71,c),
(355,71,l),
(385,0,l),
(495,0,l),
(495,760,l),
(353,760,l),
(353,596,ls),
(353,553,o),
(357,517,o),
(364,476,c),
(359,476,l),
(322,530,o),
(285,556,o),
(223,556,cs),
(89,556,o),
(30,437,o),
(30,273,cs),
(30,115,o),
(85,-10,o),
(212,-10,cs)
);
},
{
closed = 1;
nodes = (
(207,110,o),
(177,158,o),
(177,280,cs),
(177,371,o),
(194,436,o),
(268,436,cs),
(341,436,o),
(364,374,o),
(364,271,cs),
(364,255,ls),
(364,159,o),
(328,110,o),
(267,110,cs)
);
},
{
alignment = -1;
pos = (299,0);
ref = caroncommaaccent;
}
);
width = 600;
},
{
anchors = (
{
name = bottom;
pos = (268,0);
},
{
name = center;
pos = (268,277);
},
{
name = top;
pos = (286,760);
},
{
name = topright;
pos = (548,760);
}
);
layerId = "963C7F4A-CFE2-43FC-8D10-B7434095D111";
shapes = (
{
closed = 1;
nodes = (
(258,-10,o),
(303,13,o),
(343,70,c),
(351,70,l),
(385,0,l),
(515,0,l),
(515,760,l),
(343,760,l),
(343,606,ls),
(343,568,o),
(345,544,o),
(356,480,c),
(352,480,l),
(312,540,o),
(268,563,o),
(212,563,cs),
(77,563,o),
(20,430,o),
(20,274,cs),
(20,129,o),
(69,-10,o),
(203,-10,cs)
);
},
{
closed = 1;
nodes = (
(212,130,o),
(189,167,o),
(189,272,cs),
(189,373,o),
(210,422,o),
(270,422,cs),
(340,422,o),
(358,357,o),
(358,273,cs),
(358,259,ls),
(358,182,o),
(330,130,o),
(266,130,cs)
);
},
{
alignment = -1;
pos = (331,0);
ref = caroncommaaccent;
}
);
width = 600;
},
{
anchors = (
{
name = bottom;
pos = (210,0);
},
{
name = center;
pos = (210,264);
},
{
name = top;
pos = (265,760);
},
{
name = topright;
pos = (440,760);
}
);
layerId = "82FB5ACD-33BC-4284-9837-1B4D88A7F1E9";
shapes = (
{
closed = 1;
nodes = (
(291,-10,o),
(329,43,o),
(349,110,c),
(351,110,l),
(354,0,l),
(375,0,l),
(375,760,l),
(349,760,l),
(349,520,ls),
(349,488,o),
(350,457,o),
(351,422,c),
(349,422,l),
(333,482,o),
(294,538,o),
(215,538,cs),
(111,538,o),
(50,439,o),
(50,255,cs),
(50,83,o),
(104,-10,o),
(211,-10,cs)
);
},
{
closed = 1;
nodes = (
(119,15,o),
(77,99,o),
(77,255,cs),
(77,427,o),
(128,513,o),
(218,513,cs),
(307,513,o),
(349,428,o),
(349,291,cs),
(349,242,ls),
(349,102,o),
(309,15,o),
(213,15,cs)
);
},
{
alignment = -1;
pos = (221,0);
ref = caroncommaaccent;
}
);
width = 500;
},
{
anchors = (
{
name = bottom;
pos = (210,0);
},
{
name = center;
pos = (210,268);
},
{
name = top;
pos = (247,760);
},
{
name = topright;
pos = (440,760);
}
);
layerId = "C5665599-2906-40DA-AF7F-7DBC0844951A";
shapes = (
{
closed = 1;
nodes = (
(260,-10,o),
(302,27,o),
(328,72,c),
(332,72,l),
(347,0,l),
(410,0,l),
(410,760,l),
(328,760,l),
(328,547,ls),
(328,520,o),
(330,494,o),
(334,467,c),
(329,467,l),
(303,511,o),
(264,547,o),
(201,547,cs),
(98,547,o),
(30,450,o),
(30,265,cs),
(30,86,o),
(94,-10,o),
(196,-10,cs)
);
},
{
closed = 1;
nodes = (
(145,63,o),
(116,128,o),
(116,262,cs),
(116,402,o),
(148,474,o),
(225,474,cs),
(305,474,o),
(330,395,o),
(330,267,cs),
(330,247,ls),
(330,136,o),
(303,63,o),
(222,63,cs)
);
},
{
alignment = -1;
pos = (248,0);
ref = caroncommaaccent;
}
);
width = 500;
},
{
anchors = (
{
name = bottom;
pos = (230,0);
},
{
name = center;
pos = (230,273);
},
{
name = top;
pos = (230,761);
},
{
name = topright;
pos = (460,761);
}
);
layerId = "28AE7390-0F8D-4D03-A566-30BDF518EAE7";
shapes = (
{
closed = 1;
nodes = (
(219,-10,o),
(256,19,o),
(287,71,c),
(294,71,l),
(323,0,l),
(415,0,l),
(415,761,l),
(287,761,l),
(287,577,ls),
(287,548,o),
(290,508,o),
(298,476,c),
(294,476,l),
(268,527,o),
(225,556,o),
(173,556,cs),
(68,556,o),
(20,442,o),
(20,272,cs),
(20,111,o),
(63,-10,o),
(167,-10,cs)
);
},
{
closed = 1;
nodes = (
(177,107,o),
(151,159,o),
(151,279,cs),
(151,371,o),
(166,440,o),
(228,440,cs),
(281,440,o),
(297,388,o),
(297,277,cs),
(297,260,ls),
(297,158,o),
(280,107,o),
(229,107,cs)
);
},
{
alignment = -1;
pos = (261,0);
ref = caroncommaaccent;
}
);
width = 500;
},
{
anchors = (
{
name = bottom;
pos = (220,0);
},
{
name = center;
pos = (220,277);
},
{
name = top;
pos = (239,760);
},
{
name = topright;
pos = (450,760);
}
);
layerId = "35DC4C3B-953E-41FE-A906-9781CEBB9B49";
shapes = (
{
closed = 1;
nodes = (
(224,-10,o),
(258,17,o),
(279,73,c),
(287,73,l),
(298,0,l),
(425,0,l),
(425,760,l),
(275,760,l),
(275,593,ls),
(275,554,o),
(281,511,o),
(284,484,c),
(275,484,l),
(251,546,o),
(216,563,o),
(176,563,cs),
(72,563,o),
(10,450,o),
(10,275,cs),
(10,108,o),
(66,-10,o),
(173,-10,cs)
);
},
{
closed = 1;
nodes = (
(172,128,o),
(159,178,o),
(159,275,cs),
(159,372,o),
(172,424,o),
(221,424,cs),
(253,424,o),
(277,402,o),
(277,286,cs),
(277,270,ls),
(277,162,o),
(253,128,o),
(217,128,cs)
);
},
{
alignment = -1;
pos = (273,0);
ref = caroncommaaccent;
}
);
width = 500;
}
);
script = latin;
subCategory = Lowercase;
unicode = 271;
}
{
category = Letter;
glyphname = Hbar;
layers = (
{
anchors = (
{
name = bottom;
pos = (300,0);
},
{
name = center;
pos = (300,357);
},
{
name = top;
pos = (300,714);
},
{
name = topleft;
pos = (20,714);
}
);
layerId = "02EF4DD5-EF93-4764-9336-ED93C6797AC3";
shapes = (
{
closed = 1;
nodes = (
(600,527,l),
(600,552,l),
(0,552,l),
(0,527,l)
);
},
{
closed = 1;
nodes = (
(121,0,l),
(121,363,l),
(479,363,l),
(479,0,l),
(505,0,l),
(505,714,l),
(479,714,l),
(479,388,l),
(121,388,l),
(121,714,l),
(95,714,l),
(95,0,l)
);
}
);
width = 600;
},
{
anchors = (
{
name = bottom;
pos = (300,0);
},
{
name = center;
pos = (300,357);
},
{
name = top;
pos = (300,714);
},
{
name = topleft;
pos = (20,714);
}
);
layerId = UUID0;
shapes = (
{
closed = 1;
nodes = (
(600,523,l),
(600,595,l),
(0,595,l),
(0,523,l)
);
},
{
closed = 1;
nodes = (
(160,0,l),
(160,333,l),
(440,333,l),
(440,0,l),
(530,0,l),
(530,714,l),
(440,714,l),
(440,413,l),
(160,413,l),
(160,714,l),
(70,714,l),
(70,0,l)
);
}
);
width = 600;
},
{
anchors = (
{
name = bottom;
pos = (300,0);
},
{
name = center;
pos = (300,357);
},
{
name = top;
pos = (300,714);
},
{
name = topleft;
pos = (20,714);
}
);
layerId = "A3018D0F-8B4B-4295-AE04-84912D9BB11D";
shapes = (
{
closed = 1;
nodes = (
(600,522,l),
(600,617,l),
(0,617,l),
(0,522,l)
);
},
{
closed = 1;
nodes = (
(202,0,l),
(202,310,l),
(399,310,l),
(399,0,l),
(544,0,l),
(544,714,l),
(399,714,l),
(399,435,l),
(202,435,l),
(202,714,l),
(57,714,l),
(57,0,l)
);
}
);
width = 600;
},
{
anchors = (
{
name = bottom;
pos = (300,0);
},
{
name = center;
pos = (300,357);
},
{
name = top;
pos = (300,714);
},
{
name = topleft;
pos = (20,714);
}
);
layerId = "963C7F4A-CFE2-43FC-8D10-B7434095D111";
shapes = (
{
closed = 1;
nodes = (
(600,521,l),
(600,629,l),
(0,629,l),
(0,521,l)
);
},
{
closed = 1;
nodes = (
(227,0,l),
(227,297,l),
(373,297,l),
(373,0,l),
(550,0,l),
(550,714,l),
(373,714,l),
(373,447,l),
(227,447,l),
(227,714,l),
(50,714,l),
(50,0,l)
);
}
);
width = 600;
},
{
anchors = (
{
name = bottom;
pos = (250,0);
},
{
name = center;
pos = (250,357);
},
{
name = top;
pos = (250,714);
},
{
name = topleft;
pos = (20,714);
}
);
layerId = "82FB5ACD-33BC-4284-9837-1B4D88A7F1E9";
shapes = (
{
closed = 1;
nodes = (
(500,548,l),
(500,573,l),
(0,573,l),
(0,548,l)
);
},
{
closed = 1;
nodes = (
(91,0,l),
(91,363,l),
(409,363,l),
(409,0,l),
(435,0,l),
(435,714,l),
(409,714,l),
(409,388,l),
(91,388,l),
(91,714,l),
(65,714,l),
(65,0,l)
);
}
);
width = 500;
},
{
anchors = (
{
name = bottom;
pos = (250,0);
},
{
name = center;
pos = (250,357);
},
{
name = top;
pos = (250,714);
},
{
name = topleft;
pos = (20,714);
}
);
layerId = "C5665599-2906-40DA-AF7F-7DBC0844951A";
shapes = (
{
closed = 1;
nodes = (
(500,527,l),
(500,595,l),
(0,595,l),
(0,527,l)
);
},
{
closed = 1;
nodes = (
(129,0,l),
(129,330,l),
(371,330,l),
(371,0,l),
(455,0,l),
(455,714,l),
(371,714,l),
(371,408,l),
(129,408,l),
(129,714,l),
(45,714,l),
(45,0,l)
);
}
);
width = 500;
},
{
anchors = (
{
name = bottom;
pos = (250,0);
},
{
name = center;
pos = (250,357);
},
{
name = top;
pos = (250,714);
},
{
name = topleft;
pos = (20,714);
}
);
layerId = "28AE7390-0F8D-4D03-A566-30BDF518EAE7";
shapes = (
{
closed = 1;
nodes = (
(500,526,l),
(500,615,l),
(0,615,l),
(0,526,l)
);
},
{
closed = 1;
nodes = (
(168,0,l),
(168,307,l),
(332,307,l),
(332,0,l),
(460,0,l),
(460,714,l),
(332,714,l),
(332,431,l),
(168,431,l),
(168,714,l),
(40,714,l),
(40,0,l)
);
}
);
width = 500;
},
{
anchors = (
{
name = bottom;
pos = (250,0);
},
{
name = center;
pos = (250,357);
},
{
name = top;
pos = (250,714);
},
{
name = topleft;
pos = (20,714);
}
);
layerId = "35DC4C3B-953E-41FE-A906-9781CEBB9B49";
shapes = (
{
closed = 1;
nodes = (
(500,523,l),
(500,627,l),
(0,627,l),
(0,523,l)
);
},
{
closed = 1;
nodes = (
(188,0,l),
(188,298,l),
(311,298,l),
(311,0,l),
(464,0,l),
(464,714,l),
(311,714,l),
(311,438,l),
(188,438,l),
(188,714,l),
(35,714,l),
(35,0,l)
);
}
);
width = 500;
}
);
script = latin;
subCategory = Uppercase;
unicode = 294;
}
{
category = Letter;
glyphname = hbar;
layers = (
{
anchors = (
{
name = bottom;
pos = (300,0);
},
{
name = center;
pos = (300,264);
},
{
name = top;
pos = (116,760);
}
);
layerId = "02EF4DD5-EF93-4764-9336-ED93C6797AC3";
shapes = (
{
closed = 1;
nodes = (
(342,630,l),
(342,655,l),
(0,655,l),
(0,630,l)
);
},
{
closed = 1;
nodes = (
(131,0,l),
(131,302,ls),
(131,446,o),
(207,512,o),
(319,512,cs),
(416,512,o),
(474,462,o),
(474,345,cs),
(474,0,l),
(500,0,l),
(500,350,ls),
(500,477,o),
(432,537,o),
(320,537,cs),
(209,537,o),
(151,478,o),
(131,412,c),
(129,412,l),
(130,443,o),
(131,464,o),
(131,496,cs),
(131,760,l),
(105,760,l),
(105,0,l)
);
}
);
width = 600;
},
{
anchors = (
{
name = bottom;
pos = (300,0);
},
{
name = center;
pos = (300,268);
},
{
name = top;
pos = (126,760);
}
);
layerId = UUID0;
shapes = (
{
closed = 1;
nodes = (
(346,604,l),
(346,670,l),
(0,670,l),
(0,604,l)
);
},
{
closed = 1;
nodes = (
(170,0,l),
(170,278,ls),
(170,401,o),
(227,473,o),
(316,473,cs),
(392,473,o),
(435,429,o),
(435,332,cs),
(435,0,l),
(525,0,l),
(525,350,ls),
(525,487,o),
(450,546,o),
(339,546,cs),
(266,546,o),
(205,516,o),
(171,450,c),
(166,450,l),
(167,473,o),
(170,519,o),
(170,544,cs),
(170,760,l),
(80,760,l),
(80,0,l)
);
}
);
width = 600;
},
{
anchors = (
{
name = bottom;
pos = (300,0);
},
{
name = center;
pos = (300,273);
},
{
name = top;
pos = (129,760);
}
);
layerId = "A3018D0F-8B4B-4295-AE04-84912D9BB11D";
shapes = (
{
closed = 1;
nodes = (
(348,586,l),
(348,680,l),
(0,680,l),
(0,586,l)
);
},
{
closed = 1;
nodes = (
(200,0,l),
(200,247,ls),
(200,373,o),
(235,426,o),
(312,426,cs),
(369,426,o),
(405,398,o),
(405,309,cs),
(405,0,l),
(550,0,l),
(550,346,ls),
(550,475,o),
(482,546,o),
(360,546,cs),
(283,546,o),
(238,518,o),
(205,466,c),
(197,466,l),
(199,509,o),
(200,551,o),
(200,595,cs),
(200,760,l),
(55,760,l),
(55,0,l)
);
}
);
width = 600;
},
{
anchors = (
{
name = bottom;
pos = (300,0);
},
{
name = center;
pos = (300,277);
},
{
name = top;
pos = (131,760);
}
);
layerId = "963C7F4A-CFE2-43FC-8D10-B7434095D111";
shapes = (
{
closed = 1;
nodes = (
(380,575,l),
(380,685,l),
(0,685,l),
(0,575,l)
);
},
{
closed = 1;
nodes = (
(220,0,l),
(220,201,ls),
(220,341,o),
(249,382,o),
(308,382,cs),
(368,382,o),
(385,339,o),
(385,261,cs),
(385,0,l),
(560,0,l),
(560,319,ls),
(560,444,o),
(500,523,o),
(373,523,cs),
(301,523,o),
(256,497,o),
(221,443,c),
(211,443,l),
(214,497,o),
(220,576,o),
(220,645,cs),
(220,760,l),
(45,760,l),
(45,0,l)
);
}
);
width = 600;
},
{
anchors = (
{
name = bottom;
pos = (250,0);
},
{
name = center;
pos = (250,264);
},
{
name = top;
pos = (96,760);
}
);
layerId = "82FB5ACD-33BC-4284-9837-1B4D88A7F1E9";
shapes = (
{
closed = 1;
nodes = (
(295,632,l),
(295,657,l),
(0,657,l),
(0,632,l)
);
},
{
closed = 1;
nodes = (
(111,0,l),
(111,300,ls),
(111,447,o),
(180,513,o),
(270,513,cs),
(346,513,o),
(394,467,o),
(394,353,cs),
(394,0,l),
(420,0,l),
(420,356,ls),
(420,479,o),
(366,538,o),
(271,538,cs),
(176,538,o),
(129,478,o),
(111,421,c),
(109,421,l),
(110,446,o),
(111,464,o),
(111,494,cs),
(111,760,l),
(85,760,l),
(85,0,l)
);
}
);
width = 500;
},
{
anchors = (
{
name = bottom;
pos = (250,0);
},
{
name = center;
pos = (250,268);
},
{
name = top;
pos = (100,760);
}
);
layerId = "C5665599-2906-40DA-AF7F-7DBC0844951A";
shapes = (
{
closed = 1;
nodes = (
(315,605,l),
(315,670,l),
(0,670,l),
(0,605,l)
);
},
{
closed = 1;
nodes = (
(142,0,l),
(142,279,ls),
(142,403,o),
(180,474,o),
(262,474,cs),
(330,474,o),
(363,426,o),
(363,333,cs),
(363,0,l),
(445,0,l),
(445,350,ls),
(445,487,o),
(375,547,o),
(281,547,cs),
(211,547,o),
(170,513,o),
(143,463,c),
(138,463,l),
(139,486,o),
(142,509,o),
(142,532,cs),
(142,760,l),
(60,760,l),
(60,0,l)
);
}
);
width = 500;
},
{
anchors = (
{
name = bottom;
pos = (250,0);
},
{
name = center;
pos = (250,273);
},
{
name = top;
pos = (112,760);
}
);
layerId = "28AE7390-0F8D-4D03-A566-30BDF518EAE7";
shapes = (
{
closed = 1;
nodes = (
(281,590,l),
(281,678,l),
(0,678,l),
(0,590,l)
);
},
{
closed = 1;
nodes = (
(173,0,l),
(173,249,ls),
(173,366,o),
(191,430,o),
(262,430,cs),
(320,430,o),
(332,388,o),
(332,313,cs),
(332,0,l),
(460,0,l),
(460,345,ls),
(460,477,o),
(412,546,o),
(311,546,cs),
(248,546,o),
(199,519,o),
(174,465,c),
(165,465,l),
(170,505,o),
(173,545,o),
(173,584,cs),
(173,760,l),
(45,760,l),
(45,0,l)
);
}
);
width = 500;
},
{
anchors = (
{
name = bottom;
pos = (250,0);
},
{
name = center;
pos = (250,277);
},
{
name = top;
pos = (112,760);
}
);
layerId = "35DC4C3B-953E-41FE-A906-9781CEBB9B49";
shapes = (
{
closed = 1;
nodes = (
(297,581,l),
(297,684,l),
(0,684,l),
(0,581,l)
);
},
{
closed = 1;
nodes = (
(190,0,l),
(190,268,ls),
(190,356,o),
(204,408,o),
(258,408,cs),
(313,408,o),
(315,366,o),
(315,298,cs),
(315,0,l),
(470,0,l),
(470,350,ls),
(470,479,o),
(412,553,o),
(314,553,cs),
(251,553,o),
(208,522,o),
(186,474,c),
(177,474,l),
(186,518,o),
(190,565,o),
(190,611,cs),
(190,760,l),
(35,760,l),
(35,0,l)
);
}
);
width = 500;
}
);
metricRight = h;
script = latin;
subCategory = Lowercase;
unicode = 295;
}
{
category = Letter;
glyphname = longs;
layers = (
{
anchors = (
{
name = bottom;
pos = (300,0);
},
{
name = top;
pos = (409,765);
}
);
layerId = "02EF4DD5-EF93-4764-9336-ED93C6797AC3";
shapes = (
{
closed = 1;
nodes = (
(261,0,l),
(287,0,l),
(287,552,ls),
(287,675,o),
(337,740,o),
(440,740,cs),
(469,740,o),
(486,737,o),
(507,730,c),
(510,756,l),
(487,762,o),
(466,765,o),
(440,765,cs),
(322,765,o),
(261,682,o),
(261,555,cs)
);
}
);
width = 600;
},
{
anchors = (
{
name = bottom;
pos = (300,0);
},
{
name = top;
pos = (410,765);
}
);
layerId = UUID0;
shapes = (
{
closed = 1;
nodes = (
(221,0,l),
(309,0,l),
(309,562,ls),
(309,661,o),
(351,692,o),
(424,692,cs),
(461,692,o),
(504,684,o),
(525,677,c),
(548,746,l),
(522,756,o),
(476,765,o),
(425,765,cs),
(302,765,o),
(221,714,o),
(221,577,cs)
);
}
);
width = 600;
},
{
anchors = (
{
name = bottom;
pos = (300,0);
},
{
name = top;
pos = (376,765);
}
);
layerId = "A3018D0F-8B4B-4295-AE04-84912D9BB11D";
shapes = (
{
closed = 1;
nodes = (
(199,0,l),
(342,0,l),
(342,574,ls),
(342,619,o),
(359,645,o),
(411,645,cs),
(438,645,o),
(465,638,o),
(488,631,c),
(522,742,l),
(492,754,o),
(451,765,o),
(390,765,cs),
(273,765,o),
(199,724,o),
(199,585,cs)
);
}
);
width = 600;
},
{
anchors = (
{
name = bottom;
pos = (300,0);
},
{
name = top;
pos = (388,765);
}
);
layerId = "963C7F4A-CFE2-43FC-8D10-B7434095D111";
shapes = (
{
closed = 1;
nodes = (
(191,0,l),
(365,0,l),
(365,555,ls),
(365,601,o),
(378,625,o),
(425,625,cs),
(452,625,o),
(477,620,o),
(500,610,c),
(536,740,l),
(504,753,o),
(457,765,o),
(388,765,cs),
(268,765,o),
(191,714,o),
(191,569,cs)
);
}
);
width = 600;
},
{
anchors = (
{
name = bottom;
pos = (250,0);
},
{
name = top;
pos = (355,765);
}
);
layerId = "82FB5ACD-33BC-4284-9837-1B4D88A7F1E9";
shapes = (
{
closed = 1;
nodes = (
(231,0,l),
(257,0,l),
(257,582,ls),
(257,696,o),
(300,741,o),
(381,741,cs),
(402,741,o),
(424,738,o),
(441,732,c),
(445,757,l),
(427,762,o),
(403,765,o),
(381,765,cs),
(275,765,o),
(231,698,o),
(231,585,cs)
);
}
);
width = 500;
},
{
anchors = (
{
name = bottom;
pos = (250,0);
},
{
name = top;
pos = (336,765);
}
);
layerId = "C5665599-2906-40DA-AF7F-7DBC0844951A";
shapes = (
{
closed = 1;
nodes = (
(188,0,l),
(272,0,l),
(272,562,ls),
(272,660,o),
(300,693,o),
(359,693,cs),
(384,693,o),
(407,687,o),
(425,681,c),
(447,748,l),
(420,758,o),
(393,765,o),
(355,765,cs),
(244,765,o),
(188,704,o),
(188,574,cs)
);
}
);
width = 500;
},
{
anchors = (
{
name = bottom;
pos = (250,0);
},
{
name = top;
pos = (325,765);
}
);
layerId = "28AE7390-0F8D-4D03-A566-30BDF518EAE7";
shapes = (
{
closed = 1;
nodes = (
(172,0,l),
(300,0,l),
(300,566,ls),
(300,630,o),
(321,654,o),
(371,654,cs),
(391,654,o),
(412,650,o),
(432,644,c),
(458,744,l),
(416,759,o),
(386,765,o),
(348,765,cs),
(221,765,o),
(172,702,o),
(172,565,cs)
);
}
);
width = 500;
},
{
anchors = (
{
name = bottom;
pos = (250,0);
},
{
name = top;
pos = (306,765);
}
);
layerId = "35DC4C3B-953E-41FE-A906-9781CEBB9B49";
shapes = (
{
closed = 1;
nodes = (
(152,0,l),
(307,0,l),
(307,553,ls),
(307,622,o),
(330,638,o),
(362,638,cs),
(380,638,o),
(400,634,o),
(420,628,c),
(449,744,l),
(401,762,o),
(366,765,o),
(337,765,cs),
(204,765,o),
(152,708,o),
(152,562,cs)
);
}
);
width = 500;
}
);
script = latin;
subCategory = Lowercase;
unicode = 383;
}
{
category = Letter;
glyphname = chook;
layers = (
{
anchors = (
{
name = bottom;
pos = (300,0);
},
{
name = top;
pos = (300,770);
}
);
layerId = "02EF4DD5-EF93-4764-9336-ED93C6797AC3";
shapes = (
{
closed = 1;
nodes = (
(475,513,l),
(500,513,l),
(500,657,ls),
(500,725,o),
(525,746,o),
(568,746,cs),
(590,746,o),
(605,741,o),
(615,737,c),
(615,762,l),
(604,766,o),
(593,770,o),
(568,770,cs),
(512,770,o),
(475,737,o),
(475,662,cs)
);
},
{
alignment = -1;
ref = c;
}
);
width = 600;
},
{
anchors = (
{
name = bottom;
pos = (300,0);
},
{
name = top;
pos = (300,765);
}
);
layerId = UUID0;
shapes = (
{
closed = 1;
nodes = (
(429,509,l),
(505,509,l),
(505,641,ls),
(505,673,o),
(522,689,o),
(552,689,cs),
(574,689,o),
(595,683,o),
(604,679,c),
(604,752,l),
(590,758,o),
(569,765,o),
(544,765,cs),
(462,765,o),
(429,717,o),
(429,631,cs)
);
},
{
alignment = -1;
ref = c;
}
);
width = 600;
},
{
anchors = (
{
name = bottom;
pos = (300,0);
},
{
name = top;
pos = (300,765);
}
);
layerId = "A3018D0F-8B4B-4295-AE04-84912D9BB11D";
shapes = (
{
closed = 1;
nodes = (
(400,522,l),
(520,522,l),
(520,590,ls),
(520,630,o),
(538,646,o),
(569,646,cs),
(592,646,o),
(613,640,o),
(624,636,c),
(624,750,l),
(612,756,o),
(585,765,o),
(555,765,cs),
(463,765,o),
(400,716,o),
(400,593,cs)
);
},
{
alignment = -1;
ref = c;
}
);
width = 600;
},
{
anchors = (
{
name = bottom;
pos = (300,0);
},
{
name = top;
pos = (300,764);
}
);
layerId = "963C7F4A-CFE2-43FC-8D10-B7434095D111";
shapes = (
{
closed = 1;
nodes = (
(383,520,l),
(530,520,l),
(530,568,ls),
(530,605,o),
(549,624,o),
(582,624,cs),
(606,624,o),
(618,619,o),
(632,615,c),
(632,747,l),
(621,753,o),
(589,764,o),
(557,764,c),
(451,764,o),
(383,711,o),
(383,564,c)
);
},
{
alignment = -1;
ref = c;
}
);
width = 600;
},
{
anchors = (
{
name = bottom;
pos = (250,0);
},
{
name = top;
pos = (250,769);
}
);
layerId = "82FB5ACD-33BC-4284-9837-1B4D88A7F1E9";
shapes = (
{
closed = 1;
nodes = (
(395,517,l),
(420,517,l),
(420,685,ls),
(420,734,o),
(434,746,o),
(459,746,cs),
(470,746,o),
(478,744,o),
(490,737,c),
(490,761,l),
(481,766,o),
(470,769,o),
(456,769,cs),
(413,769,o),
(395,742,o),
(395,680,cs)
);
},
{
alignment = -1;
ref = c;
}
);
width = 500;
},
{
anchors = (
{
name = bottom;
pos = (250,0);
},
{
name = top;
pos = (250,767);
}
);
layerId = "C5665599-2906-40DA-AF7F-7DBC0844951A";
shapes = (
{
closed = 1;
nodes = (
(369,517,l),
(440,517,l),
(440,641,ls),
(440,685,o),
(454,697,o),
(476,697,cs),
(492,697,o),
(507,690,o),
(514,686,c),
(514,754,l),
(505,760,o),
(488,767,o),
(465,767,cs),
(409,767,o),
(369,731,o),
(369,646,cs)
);
},
{
alignment = -1;
ref = c;
}
);
width = 500;
},
{
anchors = (
{
name = bottom;
pos = (250,0);
},
{
name = top;
pos = (250,765);
}
);
layerId = "28AE7390-0F8D-4D03-A566-30BDF518EAE7";
shapes = (
{
closed = 1;
nodes = (
(345,519,l),
(455,519,l),
(455,602,ls),
(455,642,o),
(469,655,o),
(492,655,cs),
(510,655,o),
(524,649,o),
(533,645,c),
(533,751,l),
(524,757,o),
(501,765,o),
(470,765,cs),
(400,765,o),
(345,719,o),
(345,615,cs)
);
},
{
alignment = -1;
ref = c;
}
);
width = 500;
},
{
anchors = (
{
name = bottom;
pos = (250,0);
},
{
name = top;
pos = (250,764);
}
);
layerId = "35DC4C3B-953E-41FE-A906-9781CEBB9B49";
shapes = (
{
closed = 1;
nodes = (
(338,521,l),
(469,521,l),
(469,590,ls),
(469,627,o),
(483,642,o),
(505,642,cs),
(524,642,o),
(539,636,o),
(549,632,c),
(549,748,l),
(540,754,o),
(513,764,o),
(476,764,cs),
(397,764,o),
(338,712,o),
(338,596,cs)
);
},
{
alignment = -1;
ref = c;
}
);
width = 500;
}
);
script = latin;
subCategory = Lowercase;
unicode = 392;
}
{
category = Letter;
glyphname = Mturned;
layers = (
{
anchors = (
{
name = bottom;
pos = (300,0);
},
{
name = center;
pos = (300,357);
},
{
name = top;
pos = (300,714);
},
{
name = topleft;
pos = (20,714);
}
);
layerId = "02EF4DD5-EF93-4764-9336-ED93C6797AC3";
shapes = (
{
closed = 1;
nodes = (
(241,-11,o),
(271,35,o),
(291,95,c),
(294,95,l),
(301,40,o),
(326,-11,o),
(396,-11,cs),
(473,-11,o),
(501,50,o),
(516,96,c),
(518,96,l),
(521,-1,l),
(540,-1,l),
(540,714,l),
(514,714,l),
(514,198,ls),
(514,115,o),
(481,14,o),
(397,14,cs),
(343,14,o),
(311,46,o),
(311,171,cs),
(311,714,l),
(285,714,l),
(285,185,ls),
(285,83,o),
(244,14,o),
(175,14,cs),
(126,14,o),
(86,50,o),
(86,154,cs),
(86,714,l),
(60,714,l),
(60,138,ls),
(60,40,o),
(104,-11,o),
(174,-11,cs)
);
}
);
width = 600;
},
{
anchors = (
{
name = bottom;
pos = (300,0);
},
{
name = center;
pos = (300,357);
},
{
name = top;
pos = (300,714);
},
{
name = topleft;
pos = (20,714);
}
);
layerId = UUID0;
shapes = (
{
closed = 1;
nodes = (
(216,-10,o),
(247,18,o),
(270,67,c),
(273,67,l),
(289,16,o),
(317,-10,o),
(371,-10,cs),
(413,-10,o),
(444,6,o),
(470,59,c),
(475,59,l),
(488,0,l),
(550,0,l),
(550,714,l),
(470,714,l),
(470,268,ls),
(470,145,o),
(452,68,o),
(399,68,cs),
(350,68,o),
(339,116,o),
(339,201,cs),
(339,714,l),
(259,714,l),
(259,268,ls),
(259,135,o),
(232,68,o),
(183,68,cs),
(134,68,o),
(130,117,o),
(130,201,cs),
(130,714,l),
(50,714,l),
(50,186,ls),
(50,51,o),
(78,-10,o),
(160,-10,cs)
);
}
);
width = 600;
},
{
anchors = (
{
name = bottom;
pos = (300,0);
},
{
name = center;
pos = (300,357);
},
{
name = top;
pos = (300,714);
},
{
name = topleft;
pos = (20,714);
}
);
layerId = "A3018D0F-8B4B-4295-AE04-84912D9BB11D";
shapes = (
{
closed = 1;
nodes = (
(190,-10,o),
(217,15,o),
(244,80,c),
(249,80,l),
(260,19,o),
(291,-10,o),
(345,-10,cs),
(396,-10,o),
(417,15,o),
(437,68,c),
(445,68,l),
(461,0,l),
(559,0,l),
(559,714,l),
(434,714,l),
(434,285,ls),
(434,150,o),
(433,110,o),
(399,110,cs),
(367,110,o),
(363,146,o),
(363,222,cs),
(363,714,l),
(236,714,l),
(236,265,ls),
(236,152,o),
(233,110,o),
(201,110,cs),
(168,110,o),
(165,154,o),
(165,219,cs),
(165,714,l),
(40,714,l),
(40,191,ls),
(40,64,o),
(55,-10,o),
(140,-10,cs)
);
}
);
width = 600;
},
{
anchors = (
{
name = bottom;
pos = (300,0);
},
{
name = center;
pos = (300,357);
},
{
name = top;
pos = (300,714);
},
{
name = topleft;
pos = (20,714);
}
);
layerId = "963C7F4A-CFE2-43FC-8D10-B7434095D111";
shapes = (
{
closed = 1;
nodes = (
(182,-10,o),
(209,19,o),
(230,74,c),
(236,74,l),
(246,24,o),
(268,-10,o),
(328,-10,cs),
(382,-10,o),
(408,19,o),
(424,72,c),
(434,72,l),
(451,0,l),
(570,0,l),
(570,714,l),
(423,714,l),
(423,194,ls),
(423,149,o),
(419,127,o),
(397,127,cs),
(376,127,o),
(371,147,o),
(371,194,cs),
(371,714,l),
(229,714,l),
(229,195,ls),
(229,150,o),
(228,127,o),
(203,127,cs),
(183,127,o),
(177,145,o),
(177,194,cs),
(177,714,l),
(30,714,l),
(30,151,ls),
(30,56,o),
(47,-10,o),
(127,-10,cs)
);
}
);
width = 600;
},
{
anchors = (
{
name = bottom;
pos = (250,0);
},
{
name = center;
pos = (250,357);
},
{
name = top;
pos = (250,714);
},
{
name = topleft;
pos = (20,714);
}
);
layerId = "82FB5ACD-33BC-4284-9837-1B4D88A7F1E9";
shapes = (
{
closed = 1;
nodes = (
(196,-9,o),
(228,27,o),
(242,68,c),
(245,68,l),
(251,32,o),
(275,-9,o),
(337,-9,cs),
(400,-9,o),
(426,36,o),
(436,71,c),
(438,71,l),
(441,0,l),
(460,0,l),
(460,714,l),
(434,714,l),
(434,162,ls),
(434,88,o),
(401,15,o),
(339,15,cs),
(297,15,o),
(262,31,o),
(262,144,cs),
(262,714,l),
(236,714,l),
(236,162,ls),
(236,70,o),
(198,15,o),
(138,15,cs),
(98,15,o),
(66,35,o),
(66,127,cs),
(66,714,l),
(40,714,l),
(40,125,ls),
(40,23,o),
(76,-9,o),
(135,-9,cs)
);
}
);
width = 500;
},
{
anchors = (
{
name = bottom;
pos = (250,0);
},
{
name = center;
pos = (250,357);
},
{
name = top;
pos = (250,714);
},
{
name = topleft;
pos = (20,714);
}
);
layerId = "C5665599-2906-40DA-AF7F-7DBC0844951A";
shapes = (
{
closed = 1;
nodes = (
(168,-11,o),
(199,10,o),
(220,58,c),
(223,58,l),
(239,12,o),
(269,-11,o),
(309,-11,cs),
(348,-11,o),
(377,10,o),
(395,54,c),
(400,54,l),
(411,0,l),
(470,0,l),
(470,714,l),
(392,714,l),
(392,205,ls),
(392,135,o),
(384,62,o),
(332,62,cs),
(298,62,o),
(291,93,o),
(291,145,cs),
(291,714,l),
(210,714,l),
(210,195,ls),
(210,120,o),
(203,62,o),
(153,62,cs),
(116,62,o),
(108,93,o),
(108,145,cs),
(108,714,l),
(30,714,l),
(30,135,ls),
(30,31,o),
(66,-11,o),
(126,-11,cs)
);
}
);
width = 500;
},
{
anchors = (
{
name = bottom;
pos = (250,0);
},
{
name = center;
pos = (250,357);
},
{
name = top;
pos = (250,714);
},
{
name = topleft;
pos = (20,714);
}
);
layerId = "28AE7390-0F8D-4D03-A566-30BDF518EAE7";
shapes = (
{
closed = 1;
nodes = (
(160,-10,o),
(182,22,o),
(197,62,c),
(202,62,l),
(210,26,o),
(226,-10,o),
(281,-10,cs),
(326,-10,o),
(349,14,o),
(365,62,c),
(373,62,l),
(387,0,l),
(480,0,l),
(480,714,l),
(368,714,l),
(368,194,ls),
(368,131,o),
(367,96,o),
(335,96,cs),
(312,96,o),
(305,114,o),
(305,164,cs),
(305,714,l),
(193,714,l),
(193,184,ls),
(193,120,o),
(185,96,o),
(160,96,cs),
(136,96,o),
(132,118,o),
(132,171,cs),
(132,714,l),
(20,714,l),
(20,129,ls),
(20,30,o),
(45,-10,o),
(106,-10,cs)
);
}
);
width = 500;
},
{
anchors = (
{
name = bottom;
pos = (250,0);
},
{
name = center;
pos = (250,357);
},
{
name = top;
pos = (250,714);
},
{
name = topleft;
pos = (20,714);
}
);
layerId = "35DC4C3B-953E-41FE-A906-9781CEBB9B49";
shapes = (
{
closed = 1;
nodes = (
(147,-10,o),
(168,23,o),
(189,70,c),
(193,70,l),
(205,17,o),
(225,-10,o),
(274,-10,cs),
(310,-10,o),
(337,5,o),
(354,59,c),
(358,59,l),
(377,0,l),
(489,0,l),
(489,714,l),
(364,714,l),
(364,177,ls),
(364,134,o),
(360,109,o),
(336,109,cs),
(310,109,o),
(309,137,o),
(309,178,cs),
(309,714,l),
(190,714,l),
(190,176,ls),
(190,147,o),
(188,109,o),
(160,109,cs),
(135,109,o),
(134,138,o),
(134,175,cs),
(134,714,l),
(10,714,l),
(10,198,ls),
(10,69,o),
(16,-10,o),
(96,-10,cs)
);
}
);
width = 500;
}
);
metricLeft = M;
metricRight = M;
script = latin;
subCategory = Uppercase;
unicode = 412;
}
{
category = Letter;
glyphname = clickalveolar;
layers = (
{
anchors = (
{
name = bottom;
pos = (300,0);
},
{
name = top;
pos = (300,760);
}
);
layerId = "02EF4DD5-EF93-4764-9336-ED93C6797AC3";
shapes = (
{
closed = 1;
nodes = (
(490,477,l),
(490,502,l),
(110,502,l),
(110,477,l)
);
},
{
closed = 1;
nodes = (
(490,265,l),
(490,290,l),
(110,290,l),
(110,265,l)
);
},
{
alignment = -1;
ref = clickdental;
}
);
width = 600;
},
{
anchors = (
{
name = bottom;
pos = (300,0);
},
{
name = top;
pos = (300,760);
}
);
layerId = UUID0;
shapes = (
{
closed = 1;
nodes = (
(493,452,l),
(493,524,l),
(107,524,l),
(107,452,l)
);
},
{
closed = 1;
nodes = (
(493,256,l),
(493,328,l),
(107,328,l),
(107,256,l)
);
},
{
alignment = -1;
ref = clickdental;
}
);
width = 600;
},
{
anchors = (
{
name = bottom;
pos = (300,0);
},
{
name = top;
pos = (300,760);
}
);
layerId = "A3018D0F-8B4B-4295-AE04-84912D9BB11D";
shapes = (
{
closed = 1;
nodes = (
(508,427,l),
(508,524,l),
(92,524,l),
(92,427,l)
);
},
{
closed = 1;
nodes = (
(508,218,l),
(508,315,l),
(92,315,l),
(92,218,l)
);
},
{
alignment = -1;
pos = (1,0);
ref = clickdental;
}
);
width = 600;
},
{
anchors = (
{
name = bottom;
pos = (300,0);
},
{
name = top;
pos = (300,760);
}
);
layerId = "963C7F4A-CFE2-43FC-8D10-B7434095D111";
shapes = (
{
closed = 1;
nodes = (
(516,418,l),
(516,544,l),
(84,544,l),
(84,418,l)
);
},
{
closed = 1;
nodes = (
(516,197,l),
(516,323,l),
(84,323,l),
(84,197,l)
);
},
{
alignment = -1;
pos = (1,0);
ref = clickdental;
}
);
width = 600;
},
{
anchors = (
{
name = bottom;
pos = (250,0);
},
{
name = top;
pos = (250,760);
}
);
layerId = "82FB5ACD-33BC-4284-9837-1B4D88A7F1E9";
shapes = (
{
closed = 1;
nodes = (
(373,474,l),
(373,499,l),
(127,499,l),
(127,474,l)
);
},
{
closed = 1;
nodes = (
(373,258,l),
(373,283,l),
(127,283,l),
(127,258,l)
);
},
{
alignment = -1;
ref = clickdental;
}
);
width = 500;
},
{
anchors = (
{
name = bottom;
pos = (250,0);
},
{
name = top;
pos = (250,763);
}
);
layerId = "C5665599-2906-40DA-AF7F-7DBC0844951A";
shapes = (
{
closed = 1;
nodes = (
(397,454,l),
(397,521,l),
(103,521,l),
(103,454,l)
);
},
{
closed = 1;
nodes = (
(397,241,l),
(397,309,l),
(103,309,l),
(103,241,l)
);
},
{
alignment = -1;
pos = (1,0);
ref = clickdental;
}
);
width = 500;
},
{
anchors = (
{
name = bottom;
pos = (250,0);
},
{
name = top;
pos = (250,760);
}
);
layerId = "28AE7390-0F8D-4D03-A566-30BDF518EAE7";
shapes = (
{
closed = 1;
nodes = (
(418,433,l),
(418,537,l),
(81,537,l),
(81,433,l)
);
},
{
closed = 1;
nodes = (
(418,210,l),
(418,315,l),
(81,315,l),
(81,210,l)
);
},
{
alignment = -1;
ref = clickdental;
}
);
width = 500;
},
{
anchors = (
{
name = bottom;
pos = (250,0);
},
{
name = top;
pos = (250,760);
}
);
layerId = "35DC4C3B-953E-41FE-A906-9781CEBB9B49";
shapes = (
{
closed = 1;
nodes = (
(425,420,l),
(425,536,l),
(75,536,l),
(75,420,l)
);
},
{
closed = 1;
nodes = (
(425,194,l),
(425,310,l),
(75,310,l),
(75,194,l)
);
},
{
alignment = -1;
ref = clickdental;
}
);
width = 500;
}
);
script = latin;
subCategory = Other;
unicode = 450;
}
{
category = Letter;
glyphname = gstroke;
layers = (
{
anchors = (
{
name = bottom;
pos = (300,-247);
},
{
name = top;
pos = (300,528);
}
);
layerId = "02EF4DD5-EF93-4764-9336-ED93C6797AC3";
shapes = (
{
closed = 1;
nodes = (
(424,-240,o),
(483,-188,o),
(493,-98,c),
(576,-98,l),
(576,-73,l),
(495,-73,l),
(495,528,l),
(473,528,l),
(468,437,l),
(466,437,l),
(437,498,o),
(391,538,o),
(299,538,cs),
(148,538,o),
(71,430,o),
(71,257,cs),
(71,81,o),
(150,-10,o),
(287,-10,cs),
(382,-10,o),
(445,34,o),
(469,117,c),
(471,117,l),
(469,78,o),
(469,56,o),
(469,27,cs),
(469,-73,l),
(282,-73,l),
(282,-98,l),
(467,-98,l),
(455,-176,o),
(404,-215,o),
(301,-215,cs),
(229,-215,o),
(166,-196,o),
(118,-173,c),
(118,-203,l),
(166,-223,o),
(224,-240,o),
(297,-240,cs)
);
},
{
closed = 1;
nodes = (
(163,15,o),
(98,99,o),
(98,258,cs),
(98,416,o),
(162,513,o),
(298,513,cs),
(433,513,o),
(469,419,o),
(469,294,cs),
(469,246,ls),
(469,140,o),
(440,15,o),
(288,15,cs)
);
}
);
width = 600;
},
{
anchors = (
{
name = bottom;
pos = (300,-245);
},
{
name = top;
pos = (300,536);
}
);
layerId = UUID0;
shapes = (
{
closed = 1;
nodes = (
(436,-240,o),
(498,-186,o),
(517,-103,c),
(580,-103,l),
(580,-32,l),
(525,-32,l),
(525,536,l),
(455,536,l),
(443,465,l),
(438,465,l),
(398,520,o),
(340,546,o),
(270,546,cs),
(132,546,o),
(55,444,o),
(55,280,cs),
(55,116,o),
(132,18,o),
(272,18,cs),
(344,18,o),
(400,44,o),
(437,99,c),
(441,99,l),
(439,84,o),
(438,55,o),
(438,33,cs),
(438,-32,l),
(258,-32,l),
(258,-103,l),
(425,-103,l),
(408,-150,o),
(370,-167,o),
(302,-167,cs),
(241,-167,o),
(164,-153,o),
(112,-125,c),
(112,-206,l),
(164,-230,o),
(237,-240,o),
(297,-240,cs)
);
},
{
closed = 1;
nodes = (
(190,90,o),
(146,151,o),
(146,279,cs),
(146,410,o),
(192,472,o),
(290,472,cs),
(390,472,o),
(439,408,o),
(439,277,cs),
(439,261,ls),
(439,145,o),
(392,90,o),
(294,90,cs)
);
}
);
width = 600;
},
{
anchors = (
{
name = bottom;
pos = (300,-245);
},
{
name = top;
pos = (300,546);
}
);
layerId = "A3018D0F-8B4B-4295-AE04-84912D9BB11D";
shapes = (
{
closed = 1;
nodes = (
(432,-240,o),
(505,-190,o),
(534,-91,c),
(606,-91,l),
(606,-14,l),
(546,-14,l),
(546,546,l),
(420,546,l),
(408,476,l),
(404,476,l),
(366,529,o),
(314,556,o),
(244,556,cs),
(112,556,o),
(41,458,o),
(41,286,cs),
(41,128,o),
(109,27,o),
(242,27,cs),
(307,27,o),
(360,51,o),
(397,108,c),
(401,108,l),
(398,86,o),
(397,58,o),
(397,36,cs),
(397,-14,l),
(234,-14,l),
(234,-91,l),
(380,-91,l),
(368,-122,o),
(347,-136,o),
(291,-136,cs),
(235,-136,o),
(154,-122,o),
(89,-94,c),
(89,-208,l),
(148,-231,o),
(219,-240,o),
(282,-240,cs)
);
},
{
closed = 1;
nodes = (
(216,139,o),
(193,186,o),
(193,286,cs),
(193,403,o),
(234,435,o),
(297,435,cs),
(373,435,o),
(407,389,o),
(407,282,cs),
(407,270,ls),
(407,173,o),
(371,139,o),
(300,139,cs)
);
}
);
width = 600;
},
{
anchors = (
{
name = bottom;
pos = (300,-245);
},
{
name = top;
pos = (300,553);
}
);
layerId = "963C7F4A-CFE2-43FC-8D10-B7434095D111";
shapes = (
{
closed = 1;
nodes = (
(436,-240,o),
(513,-192,o),
(546,-80,c),
(605,-80,l),
(605,15,l),
(555,15,l),
(555,553,l),
(396,553,l),
(382,491,l),
(378,491,l),
(341,542,o),
(300,563,o),
(238,563,cs),
(114,563,o),
(32,470,o),
(32,298,cs),
(32,131,o),
(105,44,o),
(227,44,cs),
(283,44,o),
(348,64,o),
(384,119,c),
(388,119,l),
(385,103,o),
(384,73,o),
(384,55,cs),
(384,15,l),
(222,15,l),
(222,-80,l),
(369,-80,l),
(356,-100,o),
(330,-111,o),
(266,-111,cs),
(211,-111,o),
(134,-103,o),
(81,-73,c),
(81,-209,l),
(128,-231,o),
(200,-240,o),
(294,-240,c)
);
},
{
closed = 1;
nodes = (
(239,182,o),
(211,216,o),
(211,299,cs),
(211,374,o),
(238,417,o),
(301,417,cs),
(360,417,o),
(392,389,o),
(392,303,cs),
(392,288,ls),
(392,220,o),
(361,182,o),
(303,182,c)
);
}
);
width = 600;
},
{
anchors = (
{
name = bottom;
pos = (250,-245);
},
{
name = top;
pos = (250,546);
}
);
layerId = "82FB5ACD-33BC-4284-9837-1B4D88A7F1E9";
shapes = (
{
closed = 1;
nodes = (
(354,-241,o),
(407,-181,o),
(414,-95,c),
(490,-95,l),
(490,-70,l),
(415,-70,l),
(415,528,l),
(394,528,l),
(390,439,l),
(388,439,l),
(366,493,o),
(321,538,o),
(240,538,cs),
(115,538,o),
(60,432,o),
(60,265,cs),
(60,90,o),
(120,2,o),
(230,2,cs),
(313,2,o),
(371,53,o),
(389,126,c),
(392,126,l),
(389,86,o),
(389,62,o),
(389,27,cs),
(389,-70,l),
(226,-70,l),
(226,-95,l),
(388,-95,l),
(381,-167,o),
(337,-216,o),
(228,-216,cs),
(168,-216,o),
(124,-201,o),
(85,-179,c),
(85,-208,l),
(123,-228,o),
(167,-241,o),
(226,-241,cs)
);
},
{
closed = 1;
nodes = (
(135,27,o),
(86,103,o),
(86,264,cs),
(86,415,o),
(129,513,o),
(241,513,cs),
(348,513,o),
(389,423,o),
(389,312,cs),
(389,240,ls),
(389,136,o),
(351,27,o),
(233,27,cs)
);
}
);
width = 500;
},
{
anchors = (
{
name = bottom;
pos = (250,-245);
},
{
name = top;
pos = (250,546);
}
);
layerId = "C5665599-2906-40DA-AF7F-7DBC0844951A";
shapes = (
{
closed = 1;
nodes = (
(370,-240,o),
(427,-177,o),
(437,-91,c),
(507,-91,l),
(507,-36,l),
(440,-36,l),
(440,537,l),
(373,537,l),
(364,466,l),
(358,466,l),
(328,520,o),
(286,547,o),
(226,547,cs),
(116,547,o),
(40,455,o),
(40,277,cs),
(40,113,o),
(104,21,o),
(214,21,cs),
(271,21,o),
(324,46,o),
(358,105,c),
(363,105,l),
(359,73,o),
(358,42,o),
(358,20,cs),
(358,-36,l),
(174,-36,l),
(174,-91,l),
(355,-91,l),
(347,-145,o),
(307,-174,o),
(223,-174,cs),
(179,-174,o),
(137,-166,o),
(79,-140,c),
(79,-210,l),
(124,-230,o),
(166,-240,o),
(224,-240,cs)
);
},
{
closed = 1;
nodes = (
(165,92,o),
(126,151,o),
(126,278,cs),
(126,404,o),
(164,475,o),
(245,475,cs),
(321,475,o),
(362,414,o),
(362,295,cs),
(362,271,ls),
(362,152,o),
(320,92,o),
(242,92,cs)
);
}
);
width = 500;
},
{
anchors = (
{
name = bottom;
pos = (250,-245);
},
{
name = top;
pos = (250,546);
}
);
layerId = "28AE7390-0F8D-4D03-A566-30BDF518EAE7";
shapes = (
{
closed = 1;
nodes = (
(371,-240,o),
(440,-178,o),
(453,-80,c),
(509,-80,l),
(509,-4,l),
(455,-4,l),
(455,547,l),
(339,547,l),
(329,477,l),
(320,477,l),
(289,536,o),
(252,557,o),
(201,557,cs),
(93,557,o),
(30,461,o),
(30,299,cs),
(30,141,o),
(90,45,o),
(197,45,cs),
(251,45,o),
(293,70,o),
(321,123,c),
(327,123,l),
(324,98,o),
(321,65,o),
(321,43,cs),
(321,-4,l),
(184,-4,l),
(184,-80,l),
(317,-80,l),
(306,-126,o),
(271,-142,o),
(215,-142,cs),
(169,-142,o),
(121,-131,o),
(67,-106,c),
(67,-206,l),
(112,-228,o),
(160,-240,o),
(224,-240,cs)
);
},
{
closed = 1;
nodes = (
(189,157,o),
(166,202,o),
(166,299,cs),
(166,395,o),
(189,444,o),
(244,444,cs),
(298,444,o),
(321,395,o),
(321,305,cs),
(321,280,ls),
(321,200,o),
(295,157,o),
(243,157,cs)
);
}
);
width = 500;
},
{
anchors = (
{
name = bottom;
pos = (250,-245);
},
{
name = top;
pos = (250,546);
}
);
layerId = "35DC4C3B-953E-41FE-A906-9781CEBB9B49";
shapes = (
{
closed = 1;
nodes = (
(371,-240,o),
(447,-181,o),
(462,-73,c),
(513,-73,l),
(513,17,l),
(465,17,l),
(465,553,l),
(334,553,l),
(321,484,l),
(315,484,l),
(291,537,o),
(246,563,o),
(189,563,cs),
(83,563,o),
(21,472,o),
(21,309,cs),
(21,148,o),
(81,60,o),
(186,60,cs),
(251,60,o),
(291,94,o),
(312,134,c),
(317,134,l),
(314,114,o),
(312,80,o),
(312,58,cs),
(312,17,l),
(185,17,l),
(185,-73,l),
(306,-73,l),
(295,-112,o),
(263,-122,o),
(215,-122,cs),
(162,-122,o),
(113,-110,o),
(53,-84,c),
(53,-203,l),
(101,-226,o),
(150,-240,o),
(222,-240,cs)
);
},
{
closed = 1;
nodes = (
(206,199,o),
(185,231,o),
(185,307,cs),
(185,385,o),
(207,424,o),
(255,424,cs),
(300,424,o),
(315,390,o),
(315,321,cs),
(315,296,ls),
(315,239,o),
(301,199,o),
(251,199,cs)
);
}
);
width = 500;
}
);
script = latin;
subCategory = Lowercase;
unicode = 485;
}
{
category = Letter;
glyphname = dcurl;
layers = (
{
anchors = (
{
name = bottom;
pos = (326,-99);
},
{
name = top;
pos = (326,760);
}
);
layerId = "02EF4DD5-EF93-4764-9336-ED93C6797AC3";
shapes = (
{
closed = 1;
nodes = (
(371,-99,l),
(374,-60,o),
(378,-19,o),
(384,18,c),
(412,5,o),
(442,0,o),
(465,0,cs),
(538,0,o),
(575,47,o),
(575,113,cs),
(575,173,o),
(538,213,o),
(485,213,cs),
(410,213,o),
(382,148,o),
(367,60,c),
(349,79,o),
(339,106,o),
(339,147,cs),
(339,760,l),
(313,760,l),
(313,510,ls),
(313,488,o),
(314,467,o),
(315,442,c),
(313,442,l),
(302,492,o),
(263,537,o),
(202,537,cs),
(100,537,o),
(44,440,o),
(44,256,cs),
(44,84,o),
(93,-10,o),
(198,-10,cs),
(266,-10,o),
(303,44,o),
(317,96,c),
(321,96,l),
(326,72,o),
(341,50,o),
(362,33,c),
(355,-7,o),
(350,-51,o),
(346,-97,c)
);
},
{
closed = 1;
nodes = (
(107,15,o),
(70,103,o),
(70,256,cs),
(70,426,o),
(116,512,o),
(203,512,cs),
(268,512,o),
(313,456,o),
(313,315,cs),
(313,211,ls),
(313,87,o),
(270,15,o),
(200,15,cs)
);
},
{
closed = 1;
nodes = (
(444,23,o),
(412,29,o),
(388,43,c),
(400,122,o),
(419,190,o),
(485,190,cs),
(528,190,o),
(550,153,o),
(550,113,cs),
(550,56,o),
(515,23,o),
(463,23,cs)
);
}
);
width = 600;
},
{
anchors = (
{
name = bottom;
pos = (326,-102);
},
{
name = top;
pos = (326,760);
}
);
layerId = UUID0;
shapes = (
{
closed = 1;
nodes = (
(383,-102,l),
(384,-66,o),
(391,-22,o),
(397,6,c),
(410,2,o),
(423,-2,o),
(454,-2,cs),
(540,-2,o),
(585,51,o),
(585,124,cs),
(585,190,o),
(539,228,o),
(484,228,cs),
(420,228,o),
(382,185,o),
(359,106,c),
(349,122,o),
(348,141,o),
(348,161,c),
(348,760,l),
(267,760,l),
(267,562,ls),
(267,541,o),
(268,522,o),
(270,499,c),
(266,499,l),
(247,527,o),
(225,547,o),
(179,547,cs),
(89,547,o),
(29,467,o),
(29,268,cs),
(29,67,o),
(83,-10,o),
(172,-10,cs),
(223,-10,o),
(264,16,o),
(282,75,c),
(287,75,l),
(293,55,o),
(315,36,o),
(336,24,c),
(328,-9,o),
(322,-56,o),
(319,-97,c)
);
},
{
closed = 1;
nodes = (
(141,59,o),
(112,110,o),
(112,268,cs),
(112,422,o),
(140,475,o),
(189,475,cs),
(236,475,o),
(267,432,o),
(267,274,cs),
(267,244,ls),
(267,110,o),
(238,59,o),
(191,59,cs)
);
},
{
closed = 1;
nodes = (
(435,61,o),
(424,64,o),
(410,68,c),
(428,138,o),
(444,166,o),
(475,166,cs),
(496,166,o),
(509,151,o),
(509,119,cs),
(509,86,o),
(491,61,o),
(457,61,cs)
);
}
);
width = 600;
},
{
anchors = (
{
name = bottom;
pos = (326,-104);
},
{
name = top;
pos = (326,760);
}
);
layerId = "A3018D0F-8B4B-4295-AE04-84912D9BB11D";
shapes = (
{
closed = 1;
nodes = (
(412,-104,l),
(413,-68,o),
(416,-32,o),
(420,0,c),
(431,-2,o),
(443,-4,o),
(459,-4,cs),
(549,-4,o),
(586,55,o),
(586,125,cs),
(586,196,o),
(548,241,o),
(484,241,cs),
(430,241,o),
(396,208,o),
(380,170,c),
(376,184,o),
(374,198,o),
(374,217,cs),
(374,760,l),
(255,760,l),
(255,583,ls),
(255,562,o),
(256,529,o),
(258,500,c),
(254,500,l),
(239,531,o),
(213,557,o),
(169,557,cs),
(80,557,o),
(21,473,o),
(21,274,cs),
(21,76,o),
(69,-10,o),
(162,-10,cs),
(218,-10,o),
(259,16,o),
(277,78,c),
(281,78,l),
(290,59,o),
(309,36,o),
(336,24,c),
(330,-13,o),
(326,-52,o),
(324,-99,c)
);
},
{
closed = 1;
nodes = (
(161,85,o),
(141,133,o),
(141,275,cs),
(141,416,o),
(160,464,o),
(195,464,cs),
(236,464,o),
(255,426,o),
(255,288,cs),
(255,257,ls),
(255,124,o),
(234,85,o),
(195,85,cs)
);
},
{
closed = 1;
nodes = (
(449,78,o),
(438,80,o),
(432,82,c),
(439,129,o),
(450,159,o),
(474,159,cs),
(491,159,o),
(502,148,o),
(502,125,cs),
(502,95,o),
(483,78,o),
(460,78,cs)
);
}
);
width = 600;
},
{
anchors = (
{
name = bottom;
pos = (326,-106);
},
{
name = top;
pos = (326,760);
}
);
layerId = "963C7F4A-CFE2-43FC-8D10-B7434095D111";
shapes = (
{
closed = 1;
nodes = (
(422,-106,l),
(423,-75,o),
(425,-38,o),
(429,-4,c),
(435,-5,o),
(449,-6,o),
(453,-6,cs),
(552,-6,o),
(589,58,o),
(589,127,cs),
(589,197,o),
(548,245,o),
(479,245,cs),
(441,245,o),
(408,232,o),
(385,200,c),
(383,216,o),
(383,231,o),
(383,242,c),
(383,760,l),
(246,760,l),
(246,610,ls),
(246,579,o),
(246,559,o),
(249,509,c),
(245,509,l),
(229,546,o),
(200,563,o),
(158,563,cs),
(68,563,o),
(15,475,o),
(15,278,cs),
(15,75,o),
(69,-10,o),
(162,-10,cs),
(225,-10,o),
(257,24,o),
(278,77,c),
(283,77,l),
(290,61,o),
(311,37,o),
(330,24,c),
(326,-15,o),
(322,-56,o),
(320,-101,c)
);
},
{
closed = 1;
nodes = (
(172,115,o),
(155,155,o),
(155,280,cs),
(155,401,o),
(171,439,o),
(201,439,cs),
(231,439,o),
(246,410,o),
(246,297,cs),
(246,265,ls),
(246,146,o),
(231,115,o),
(200,115,cs)
);
},
{
closed = 1;
nodes = (
(456,89,o),
(447,90,o),
(445,91,c),
(448,130,o),
(459,151,o),
(474,151,cs),
(485,151,o),
(492,143,o),
(492,121,cs),
(492,100,o),
(482,89,o),
(461,89,cs)
);
}
);
width = 600;
},
{
anchors = (
{
name = bottom;
pos = (250,-98);
},
{
name = top;
pos = (250,760);
}
);
layerId = "82FB5ACD-33BC-4284-9837-1B4D88A7F1E9";
shapes = (
{
closed = 1;
nodes = (
(332,-98,l),
(334,-59,o),
(337,-19,o),
(342,18,c),
(365,5,o),
(385,0,o),
(408,0,cs),
(466,0,o),
(495,47,o),
(495,113,cs),
(495,177,o),
(466,213,o),
(417,213,cs),
(356,213,o),
(334,152,o),
(323,59,c),
(308,75,o),
(301,106,o),
(301,147,cs),
(301,760,l),
(275,760,l),
(275,514,ls),
(275,492,o),
(276,470,o),
(277,455,c),
(275,455,l),
(264,505,o),
(229,537,o),
(175,537,cs),
(76,537,o),
(32,450,o),
(32,256,cs),
(32,63,o),
(71,-10,o),
(171,-10,cs),
(237,-10,o),
(268,39,o),
(280,92,c),
(283,92,l),
(288,68,o),
(302,45,o),
(320,31,c),
(314,-9,o),
(311,-51,o),
(308,-97,c)
);
},
{
closed = 1;
nodes = (
(90,15,o),
(58,82,o),
(58,256,cs),
(58,436,o),
(92,512,o),
(176,512,cs),
(233,512,o),
(275,456,o),
(275,315,cs),
(275,211,ls),
(275,87,o),
(235,15,o),
(173,15,cs)
);
},
{
closed = 1;
nodes = (
(387,23,o),
(365,29,o),
(346,43,c),
(355,122,o),
(365,190,o),
(417,190,cs),
(456,190,o),
(470,153,o),
(470,113,cs),
(470,52,o),
(443,23,o),
(406,23,cs)
);
}
);
width = 500;
},
{
anchors = (
{
name = bottom;
pos = (250,-99);
},
{
name = top;
pos = (250,760);
}
);
layerId = "C5665599-2906-40DA-AF7F-7DBC0844951A";
shapes = (
{
closed = 1;
nodes = (
(341,-99,l),
(341,-63,o),
(346,-23,o),
(351,5,c),
(362,-1,o),
(375,-2,o),
(392,-2,cs),
(460,-2,o),
(498,51,o),
(498,124,cs),
(498,190,o),
(462,228,o),
(415,228,cs),
(356,228,o),
(322,185,o),
(310,106,c),
(306,119,o),
(305,135,o),
(305,155,cs),
(305,760,l),
(230,760,l),
(230,562,ls),
(230,541,o),
(231,527,o),
(232,504,c),
(229,504,l),
(216,530,o),
(191,547,o),
(156,547,cs),
(76,547,o),
(23,467,o),
(23,268,cs),
(23,57,o),
(71,-10,o),
(150,-10,cs),
(195,-10,o),
(228,11,o),
(242,70,c),
(247,70,l),
(255,53,o),
(273,34,o),
(293,24,c),
(287,-9,o),
(282,-56,o),
(279,-97,c)
);
},
{
closed = 1;
nodes = (
(117,57,o),
(102,98,o),
(102,268,cs),
(102,435,o),
(128,478,o),
(164,478,cs),
(207,478,o),
(230,446,o),
(230,274,cs),
(230,244,ls),
(230,98,o),
(207,57,o),
(166,57,cs)
);
},
{
closed = 1;
nodes = (
(377,61,o),
(370,64,o),
(359,68,c),
(366,115,o),
(375,166,o),
(402,166,cs),
(420,166,o),
(429,151,o),
(429,119,cs),
(429,86,o),
(417,61,o),
(396,61,cs)
);
}
);
width = 500;
},
{
anchors = (
{
name = bottom;
pos = (250,-104);
},
{
name = top;
pos = (250,760);
}
);
layerId = "28AE7390-0F8D-4D03-A566-30BDF518EAE7";
shapes = (
{
closed = 1;
nodes = (
(345,-104,l),
(346,-68,o),
(348,-32,o),
(351,0,c),
(361,-2,o),
(371,-4,o),
(384,-4,cs),
(458,-4,o),
(489,55,o),
(489,125,cs),
(489,196,o),
(457,241,o),
(404,241,cs),
(356,241,o),
(329,208,o),
(317,165,c),
(314,179,o),
(313,193,o),
(313,212,cs),
(313,760,l),
(212,760,l),
(212,583,ls),
(212,562,o),
(213,535,o),
(214,506,c),
(211,506,l),
(200,536,o),
(180,557,o),
(144,557,cs),
(69,557,o),
(21,483,o),
(21,274,cs),
(21,60,o),
(65,-10,o),
(142,-10,cs),
(187,-10,o),
(215,15,o),
(230,72,c),
(233,72,l),
(242,53,o),
(260,36,o),
(282,24,c),
(277,-13,o),
(274,-52,o),
(272,-99,c)
);
},
{
closed = 1;
nodes = (
(143,80,o),
(128,116,o),
(128,275,cs),
(128,430,o),
(144,468,o),
(172,468,cs),
(202,468,o),
(212,440,o),
(212,288,cs),
(212,257,ls),
(212,119,o),
(202,80,o),
(170,80,cs)
);
},
{
closed = 1;
nodes = (
(371,73,o),
(364,75,o),
(359,77,c),
(364,129,o),
(372,165,o),
(392,165,cs),
(407,165,o),
(415,155,o),
(415,122,cs),
(415,86,o),
(400,73,o),
(381,73,cs)
);
}
);
width = 500;
},
{
anchors = (
{
name = bottom;
pos = (250,-106);
},
{
name = top;
pos = (250,760);
}
);
layerId = "35DC4C3B-953E-41FE-A906-9781CEBB9B49";
shapes = (
{
closed = 1;
nodes = (
(343,-106,l),
(344,-75,o),
(347,-38,o),
(351,-4,c),
(356,-5,o),
(368,-6,o),
(371,-6,cs),
(454,-6,o),
(487,58,o),
(487,127,cs),
(487,197,o),
(453,245,o),
(395,245,cs),
(363,245,o),
(336,232,o),
(317,200,c),
(315,212,o),
(314,226,o),
(314,243,cs),
(314,760,l),
(195,760,l),
(195,610,ls),
(195,579,o),
(195,564,o),
(197,524,c),
(194,524,l),
(182,548,o),
(163,563,o),
(134,563,cs),
(65,563,o),
(22,499,o),
(22,278,cs),
(22,52,o),
(66,-10,o),
(138,-10,cs),
(184,-10,o),
(210,16,o),
(226,66,c),
(231,66,l),
(237,50,o),
(259,30,o),
(275,21,c),
(272,-18,o),
(267,-56,o),
(265,-101,c)
);
},
{
closed = 1;
nodes = (
(152,110,o),
(143,133,o),
(143,280,cs),
(143,430,o),
(157,445,o),
(171,445,cs),
(186,445,o),
(195,430,o),
(195,297,cs),
(195,265,ls),
(195,131,o),
(186,110,o),
(170,110,cs)
);
},
{
closed = 1;
nodes = (
(370,83,o),
(363,84,o),
(361,85,c),
(364,131,o),
(372,158,o),
(385,158,cs),
(394,158,o),
(404,151,o),
(404,122,cs),
(404,95,o),
(393,83,o),
(376,83,cs)
);
}
);
width = 500;
}
);
script = latin;
subCategory = Lowercase;
unicode = 545;
}
{
category = Letter;
glyphname = sswashtail;
layers = (
{
anchors = (
{
name = bottom;
pos = (320,-240);
},
{
name = top;
pos = (300,528);
}
);
layerId = "02EF4DD5-EF93-4764-9336-ED93C6797AC3";
shapes = (
{
closed = 1;
nodes = (
(412,-240,o),
(434,-232,o),
(449,-225,c),
(449,-201,l),
(433,-209,o),
(410,-216,o),
(383,-216,cs),
(310,-216,o),
(283,-181,o),
(256,-86,cs),
(239,-25,o),
(224,-4,o),
(194,9,c),
(149,16,l),
(196,-1,o),
(209,-17,o),
(232,-97,cs),
(260,-195,o),
(295,-240,o),
(382,-240,cs)
);
},
{
alignment = -1;
ref = s;
}
);
width = 600;
},
{
anchors = (
{
name = bottom;
pos = (320,-240);
},
{
name = top;
pos = (300,536);
}
);
layerId = UUID0;
shapes = (
{
closed = 1;
nodes = (
(437,-240,o),
(465,-231,o),
(482,-223,c),
(482,-151,l),
(465,-159,o),
(439,-167,o),
(407,-167,cs),
(352,-167,o),
(325,-138,o),
(301,-74,cs),
(283,-26,o),
(270,-10,o),
(251,0,c),
(136,13,l),
(188,-2,o),
(201,-28,o),
(222,-91,cs),
(257,-197,o),
(299,-240,o),
(402,-240,cs)
);
},
{
alignment = -1;
ref = s;
}
);
width = 600;
},
{
anchors = (
{
name = bottom;
pos = (320,-240);
},
{
name = top;
pos = (300,546);
}
);
layerId = "A3018D0F-8B4B-4295-AE04-84912D9BB11D";
shapes = (
{
closed = 1;
nodes = (
(412,-240,o),
(446,-234,o),
(465,-227,c),
(465,-111,l),
(446,-117,o),
(425,-120,o),
(404,-120,cs),
(362,-120,o),
(336,-103,o),
(314,-56,cs),
(302,-30,o),
(292,-13,o),
(278,-5,c),
(101,17,l),
(150,-5,o),
(161,-23,o),
(186,-88,cs),
(224,-187,o),
(267,-240,o),
(377,-240,cs)
);
},
{
alignment = -1;
ref = s;
}
);
width = 600;
},
{
anchors = (
{
name = bottom;
pos = (320,-240);
},
{
name = top;
pos = (300,553);
}
);
layerId = "963C7F4A-CFE2-43FC-8D10-B7434095D111";
shapes = (
{
closed = 1;
nodes = (
(424,-240,o),
(452,-231,o),
(473,-223,c),
(473,-90,l),
(459,-96,o),
(439,-101,o),
(417,-101,cs),
(380,-101,o),
(359,-87,o),
(336,-48,cs),
(323,-26,o),
(312,-13,o),
(296,-5,c),
(104,13,l),
(138,-2,o),
(161,-33,o),
(182,-86,cs),
(217,-174,o),
(257,-240,o),
(382,-240,cs)
);
},
{
alignment = -1;
ref = s;
}
);
width = 600;
},
{
anchors = (
{
name = bottom;
pos = (280,-240);
},
{
name = top;
pos = (250,528);
}
);
layerId = "82FB5ACD-33BC-4284-9837-1B4D88A7F1E9";
shapes = (
{
closed = 1;
nodes = (
(356,-232,o),
(372,-227,o),
(381,-222,c),
(381,-196,l),
(369,-203,o),
(354,-207,o),
(336,-207,cs),
(276,-207,o),
(257,-156,o),
(242,-98,cs),
(225,-33,o),
(213,-15,o),
(195,-3,c),
(146,9,l),
(186,-11,o),
(199,-29,o),
(216,-97,cs),
(234,-169,o),
(257,-232,o),
(335,-232,cs)
);
},
{
alignment = -1;
ref = s;
}
);
width = 500;
},
{
anchors = (
{
name = bottom;
pos = (280,-240);
},
{
name = top;
pos = (250,536);
}
);
layerId = "C5665599-2906-40DA-AF7F-7DBC0844951A";
shapes = (
{
closed = 1;
nodes = (
(332,-240,o),
(352,-235,o),
(364,-230,c),
(364,-167,l),
(355,-171,o),
(338,-175,o),
(323,-175,cs),
(286,-175,o),
(268,-149,o),
(250,-76,cs),
(242,-45,o),
(232,-19,o),
(212,-4,c),
(115,10,l),
(151,-2,o),
(169,-23,o),
(183,-91,cs),
(204,-194,o),
(232,-240,o),
(309,-240,cs)
);
},
{
alignment = -1;
ref = s;
}
);
width = 500;
},
{
anchors = (
{
name = bottom;
pos = (280,-240);
},
{
name = top;
pos = (250,546);
}
);
layerId = "28AE7390-0F8D-4D03-A566-30BDF518EAE7";
shapes = (
{
closed = 1;
nodes = (
(348,-240,o),
(368,-234,o),
(382,-228,c),
(382,-132,l),
(373,-136,o),
(360,-139,o),
(343,-139,cs),
(308,-139,o),
(293,-113,o),
(275,-59,cs),
(268,-38,o),
(258,-19,o),
(245,-9,c),
(98,13,l),
(134,0,o),
(150,-22,o),
(170,-88,cs),
(198,-181,o),
(221,-240,o),
(321,-240,cs)
);
},
{
alignment = -1;
ref = s;
}
);
width = 500;
},
{
anchors = (
{
name = bottom;
pos = (280,-240);
},
{
name = top;
pos = (250,553);
}
);
layerId = "35DC4C3B-953E-41FE-A906-9781CEBB9B49";
shapes = (
{
closed = 1;
nodes = (
(351,-240,o),
(374,-234,o),
(391,-226,c),
(391,-107,l),
(381,-112,o),
(367,-116,o),
(350,-116,cs),
(313,-116,o),
(297,-94,o),
(282,-54,cs),
(274,-33,o),
(265,-15,o),
(251,-6,c),
(89,13,l),
(125,-1,o),
(136,-19,o),
(156,-87,cs),
(182,-174,o),
(210,-240,o),
(319,-240,cs)
);
},
{
alignment = -1;
ref = s;
}
);
width = 500;
}
);
script = latin;
subCategory = Lowercase;
unicode = 575;
}
{
category = Letter;
glyphname = Glottalstopcased;
layers = (
{
anchors = (
{
name = bottom;
pos = (272,0);
},
{
name = top;
pos = (272,714);
}
);
layerId = "02EF4DD5-EF93-4764-9336-ED93C6797AC3";
shapes = (
{
closed = 1;
nodes = (
(260,0,l),
(286,0,l),
(286,283,l),
(392,320,o),
(499,373,o),
(499,528,cs),
(499,650,o),
(426,723,o),
(275,723,cs),
(176,723,o),
(120,697,o),
(75,674,c),
(85,651,l),
(123,670,o),
(180,698,o),
(274,698,cs),
(408,698,o),
(472,638,o),
(472,526,cs),
(472,385,o),
(376,338,o),
(260,299,c)
);
}
);
width = 600;
},
{
anchors = (
{
name = bottom;
pos = (277,0);
},
{
name = top;
pos = (277,714);
}
);
layerId = UUID0;
shapes = (
{
closed = 1;
nodes = (
(237,0,l),
(327,0,l),
(327,271,l),
(481,330,o),
(538,405,o),
(538,517,cs),
(538,642,o),
(455,724,o),
(285,724,cs),
(185,724,o),
(111,693,o),
(59,659,c),
(92,587,l),
(138,619,o),
(205,645,o),
(281,645,cs),
(406,645,o),
(443,589,o),
(443,514,cs),
(443,415,o),
(368,359,o),
(237,322,c)
);
}
);
width = 600;
},
{
anchors = (
{
name = bottom;
pos = (277,0);
},
{
name = top;
pos = (277,714);
}
);
layerId = "A3018D0F-8B4B-4295-AE04-84912D9BB11D";
shapes = (
{
closed = 1;
nodes = (
(194,0,l),
(343,0,l),
(343,263,l),
(484,320,o),
(545,388,o),
(545,512,cs),
(545,632,o),
(461,725,o),
(290,725,cs),
(181,725,o),
(101,693,o),
(43,657,c),
(96,550,l),
(127,571,o),
(185,605,o),
(272,605,cs),
(353,605,o),
(395,569,o),
(395,498,cs),
(395,433,o),
(362,373,o),
(194,326,c)
);
}
);
width = 600;
},
{
anchors = (
{
name = bottom;
pos = (277,0);
},
{
name = top;
pos = (277,714);
}
);
layerId = "963C7F4A-CFE2-43FC-8D10-B7434095D111";
shapes = (
{
closed = 1;
nodes = (
(166,0,l),
(363,0,l),
(363,254,l),
(507,306,o),
(556,394,o),
(556,498,cs),
(556,632,o),
(459,725,o),
(286,725,cs),
(164,725,o),
(79,696,o),
(9,656,c),
(78,516,l),
(106,537,o),
(163,570,o),
(253,570,cs),
(322,570,o),
(359,539,o),
(359,485,cs),
(359,421,o),
(321,377,o),
(166,335,c)
);
}
);
width = 600;
},
{
anchors = (
{
name = bottom;
pos = (229,0);
},
{
name = top;
pos = (229,714);
}
);
layerId = "82FB5ACD-33BC-4284-9837-1B4D88A7F1E9";
shapes = (
{
closed = 1;
nodes = (
(217,0,l),
(243,0,l),
(243,283,l),
(329,320,o),
(436,373,o),
(436,528,cs),
(436,650,o),
(363,723,o),
(232,723,cs),
(153,723,o),
(95,697,o),
(52,674,c),
(62,651,l),
(98,670,o),
(157,698,o),
(231,698,cs),
(345,698,o),
(409,638,o),
(409,526,cs),
(409,385,o),
(313,338,o),
(217,299,c)
);
}
);
width = 500;
},
{
anchors = (
{
name = bottom;
pos = (224,0);
},
{
name = top;
pos = (224,714);
}
);
layerId = "C5665599-2906-40DA-AF7F-7DBC0844951A";
shapes = (
{
closed = 1;
nodes = (
(180,0,l),
(270,0,l),
(270,271,l),
(398,330,o),
(448,405,o),
(448,517,cs),
(448,645,o),
(360,724,o),
(228,724,cs),
(148,724,o),
(83,701,o),
(31,667,c),
(64,595,l),
(110,627,o),
(168,645,o),
(224,645,cs),
(311,645,o),
(353,592,o),
(353,514,cs),
(353,415,o),
(285,359,o),
(180,322,c)
);
}
);
width = 500;
},
{
anchors = (
{
name = bottom;
pos = (217,0);
},
{
name = top;
pos = (217,714);
}
);
layerId = "28AE7390-0F8D-4D03-A566-30BDF518EAE7";
shapes = (
{
closed = 1;
nodes = (
(147,0,l),
(278,0,l),
(278,241,l),
(396,324,o),
(450,400,o),
(450,512,cs),
(450,641,o),
(375,724,o),
(221,724,cs),
(139,724,o),
(73,698,o),
(25,665,c),
(73,561,l),
(105,584,o),
(146,605,o),
(205,605,cs),
(273,605,o),
(309,565,o),
(309,503,cs),
(309,420,o),
(268,370,o),
(147,300,c)
);
}
);
width = 500;
},
{
anchors = (
{
name = bottom;
pos = (217,0);
},
{
name = top;
pos = (217,714);
}
);
layerId = "35DC4C3B-953E-41FE-A906-9781CEBB9B49";
shapes = (
{
closed = 1;
nodes = (
(136,0,l),
(298,0,l),
(298,239,l),
(413,294,o),
(470,371,o),
(470,489,cs),
(470,638,o),
(382,724,o),
(217,724,cs),
(134,724,o),
(53,693,o),
(9,661,c),
(61,532,l),
(94,556,o),
(145,578,o),
(198,578,cs),
(268,578,o),
(301,539,o),
(301,472,cs),
(301,393,o),
(249,350,o),
(136,305,c)
);
}
);
width = 500;
}
);
script = latin;
subCategory = Uppercase;
unicode = 577;
}
{
category = Letter;
glyphname = rstroke;
layers = (
{
anchors = (
{
name = bottom;
pos = (300,0);
},
{
name = top;
pos = (300,528);
}
);
layerId = "02EF4DD5-EF93-4764-9336-ED93C6797AC3";
shapes = (
{
closed = 1;
nodes = (
(442,251,l),
(442,276,l),
(126,276,l),
(126,251,l)
);
},
{
alignment = -1;
ref = r;
}
);
width = 600;
},
{
anchors = (
{
name = bottom;
pos = (300,0);
},
{
name = top;
pos = (300,536);
}
);
layerId = UUID0;
shapes = (
{
closed = 1;
nodes = (
(446,212,l),
(446,283,l),
(107,283,l),
(107,212,l)
);
},
{
alignment = -1;
ref = r;
}
);
width = 600;
},
{
anchors = (
{
name = bottom;
pos = (300,0);
},
{
name = top;
pos = (300,546);
}
);
layerId = "A3018D0F-8B4B-4295-AE04-84912D9BB11D";
shapes = (
{
closed = 1;
nodes = (
(445,215,l),
(445,312,l),
(80,312,l),
(80,215,l)
);
},
{
alignment = -1;
ref = r;
}
);
width = 600;
},
{
anchors = (
{
name = bottom;
pos = (300,0);
},
{
name = top;
pos = (300,553);
}
);
layerId = "963C7F4A-CFE2-43FC-8D10-B7434095D111";
shapes = (
{
closed = 1;
nodes = (
(472,205,l),
(472,328,l),
(74,328,l),
(74,205,l)
);
},
{
alignment = -1;
ref = r;
}
);
width = 600;
},
{
anchors = (
{
name = bottom;
pos = (250,0);
},
{
name = top;
pos = (250,528);
}
);
layerId = "82FB5ACD-33BC-4284-9837-1B4D88A7F1E9";
shapes = (
{
closed = 1;
nodes = (
(367,247,l),
(367,272,l),
(91,272,l),
(91,247,l)
);
},
{
alignment = -1;
ref = r;
}
);
width = 500;
},
{
anchors = (
{
name = bottom;
pos = (250,0);
},
{
name = top;
pos = (250,536);
}
);
layerId = "C5665599-2906-40DA-AF7F-7DBC0844951A";
shapes = (
{
closed = 1;
nodes = (
(372,228,l),
(372,290,l),
(54,290,l),
(54,228,l)
);
},
{
alignment = -1;
ref = r;
}
);
width = 500;
},
{
anchors = (
{
name = bottom;
pos = (250,0);
},
{
name = top;
pos = (250,546);
}
);
layerId = "28AE7390-0F8D-4D03-A566-30BDF518EAE7";
shapes = (
{
closed = 1;
nodes = (
(390,219,l),
(390,314,l),
(46,314,l),
(46,219,l)
);
},
{
alignment = -1;
ref = r;
}
);
width = 500;
},
{
anchors = (
{
name = bottom;
pos = (209,0);
},
{
name = top;
pos = (270,553);
}
);
layerId = "35DC4C3B-953E-41FE-A906-9781CEBB9B49";
shapes = (
{
closed = 1;
nodes = (
(396,206,l),
(396,322,l),
(42,322,l),
(42,206,l)
);
},
{
alignment = -1;
ref = r;
}
);
width = 500;
}
);
script = latin;
subCategory = Lowercase;
unicode = 589;
}
{
category = Letter;
glyphname = Ystroke;
layers = (
{
anchors = (
{
name = bottom;
pos = (300,0);
},
{
name = top;
pos = (300,714);
}
);
layerId = "02EF4DD5-EF93-4764-9336-ED93C6797AC3";
shapes = (
{
closed = 1;
nodes = (
(600,536,l),
(600,561,l),
(0,561,l),
(0,536,l)
);
},
{
alignment = -1;
ref = Y;
}
);
width = 600;
},
{
anchors = (
{
name = bottom;
pos = (300,0);
},
{
name = top;
pos = (300,714);
}
);
layerId = UUID0;
shapes = (
{
closed = 1;
nodes = (
(600,515,l),
(600,593,l),
(0,593,l),
(0,515,l)
);
},
{
alignment = -1;
ref = Y;
}
);
width = 600;
},
{
anchors = (
{
name = bottom;
pos = (300,0);
},
{
name = top;
pos = (300,714);
}
);
layerId = "A3018D0F-8B4B-4295-AE04-84912D9BB11D";
shapes = (
{
closed = 1;
nodes = (
(600,522,l),
(600,619,l),
(0,619,l),
(0,522,l)
);
},
{
alignment = -1;
ref = Y;
}
);
width = 600;
},
{
anchors = (
{
name = bottom;
pos = (300,0);
},
{
name = top;
pos = (300,714);
}
);
layerId = "963C7F4A-CFE2-43FC-8D10-B7434095D111";
shapes = (
{
closed = 1;
nodes = (
(600,537,l),
(600,661,l),
(0,661,l),
(0,537,l)
);
},
{
alignment = -1;
ref = Y;
}
);
width = 600;
},
{
anchors = (
{
name = bottom;
pos = (250,0);
},
{
name = top;
pos = (250,714);
}
);
layerId = "82FB5ACD-33BC-4284-9837-1B4D88A7F1E9";
shapes = (
{
closed = 1;
nodes = (
(500,548,l),
(500,572,l),
(0,572,l),
(0,548,l)
);
},
{
alignment = -1;
ref = Y;
}
);
width = 500;
},
{
anchors = (
{
name = bottom;
pos = (250,0);
},
{
name = top;
pos = (250,714);
}
);
layerId = "C5665599-2906-40DA-AF7F-7DBC0844951A";
shapes = (
{
closed = 1;
nodes = (
(500,534,l),
(500,588,l),
(0,588,l),
(0,534,l)
);
},
{
alignment = -1;
ref = Y;
}
);
width = 500;
},
{
anchors = (
{
name = bottom;
pos = (250,0);
},
{
name = top;
pos = (250,714);
}
);
layerId = "28AE7390-0F8D-4D03-A566-30BDF518EAE7";
shapes = (
{
closed = 1;
nodes = (
(500,536,l),
(500,612,l),
(0,612,l),
(0,536,l)
);
},
{
alignment = -1;
ref = Y;
}
);
width = 500;
},
{
anchors = (
{
name = bottom;
pos = (250,0);
},
{
name = top;
pos = (250,714);
}
);
layerId = "35DC4C3B-953E-41FE-A906-9781CEBB9B49";
shapes = (
{
closed = 1;
nodes = (
(500,545,l),
(500,635,l),
(0,635,l),
(0,545,l)
);
},
{
alignment = -1;
ref = Y;
}
);
width = 500;
}
);
script = latin;
subCategory = Uppercase;
unicode = 590;
}
{
category = Letter;
glyphname = ystroke;
layers = (
{
anchors = (
{
name = bottom;
pos = (300,-247);
},
{
name = top;
pos = (300,528);
}
);
layerId = "02EF4DD5-EF93-4764-9336-ED93C6797AC3";
shapes = (
{
closed = 1;
nodes = (
(581,325,l),
(581,350,l),
(30,350,l),
(30,325,l)
);
},
{
alignment = -1;
ref = y;
}
);
width = 600;
},
{
anchors = (
{
name = bottom;
pos = (300,-245);
},
{
name = top;
pos = (300,536);
}
);
layerId = UUID0;
shapes = (
{
closed = 1;
nodes = (
(581,288,l),
(581,359,l),
(20,359,l),
(20,288,l)
);
},
{
alignment = -1;
ref = y;
}
);
width = 600;
},
{
anchors = (
{
name = bottom;
pos = (300,-245);
},
{
name = top;
pos = (300,546);
}
);
layerId = "A3018D0F-8B4B-4295-AE04-84912D9BB11D";
shapes = (
{
closed = 1;
nodes = (
(586,288,l),
(586,385,l),
(17,385,l),
(17,288,l)
);
},
{
alignment = -1;
ref = y;
}
);
width = 600;
},
{
anchors = (
{
name = bottom;
pos = (300,-245);
},
{
name = top;
pos = (300,553);
}
);
layerId = "963C7F4A-CFE2-43FC-8D10-B7434095D111";
shapes = (
{
closed = 1;
nodes = (
(592,278,l),
(592,402,l),
(9,402,l),
(9,278,l)
);
},
{
alignment = -1;
ref = y;
}
);
width = 600;
},
{
anchors = (
{
name = bottom;
pos = (250,-243);
},
{
name = top;
pos = (250,528);
}
);
layerId = "82FB5ACD-33BC-4284-9837-1B4D88A7F1E9";
shapes = (
{
closed = 1;
nodes = (
(463,311,l),
(463,336,l),
(45,336,l),
(45,311,l)
);
},
{
alignment = -1;
ref = y;
}
);
width = 500;
},
{
anchors = (
{
name = bottom;
pos = (250,-245);
},
{
name = top;
pos = (250,536);
}
);
layerId = "C5665599-2906-40DA-AF7F-7DBC0844951A";
shapes = (
{
closed = 1;
nodes = (
(485,309,l),
(485,362,l),
(25,362,l),
(25,309,l)
);
},
{
alignment = -1;
ref = y;
}
);
width = 500;
},
{
anchors = (
{
name = bottom;
pos = (250,-245);
},
{
name = top;
pos = (250,546);
}
);
layerId = "28AE7390-0F8D-4D03-A566-30BDF518EAE7";
shapes = (
{
closed = 1;
nodes = (
(496,306,l),
(496,381,l),
(15,381,l),
(15,306,l)
);
},
{
alignment = -1;
ref = y;
}
);
width = 500;
},
{
anchors = (
{
name = bottom;
pos = (250,-245);
},
{
name = top;
pos = (250,553);
}
);
layerId = "35DC4C3B-953E-41FE-A906-9781CEBB9B49";
shapes = (
{
closed = 1;
nodes = (
(496,308,l),
(496,398,l),
(5,398,l),
(5,308,l)
);
},
{
alignment = -1;
ref = y;
}
);
width = 500;
}
);
script = latin;
subCategory = Lowercase;
unicode = 591;
}
{
category = Letter;
glyphname = jdotlessstroke;
layers = (
{
anchors = (
{
name = bottom;
pos = (318,-240);
},
{
name = top;
pos = (327,528);
},
{
name = topright;
pos = (460,528);
}
);
layerId = "02EF4DD5-EF93-4764-9336-ED93C6797AC3";
shapes = (
{
closed = 1;
nodes = (
(294,-248,o),
(356,-196,o),
(356,-88,cs),
(356,528,l),
(141,528,l),
(141,507,l),
(330,503,l),
(330,-81,ls),
(330,-168,o),
(288,-222,o),
(201,-222,cs),
(161,-222,o),
(100,-210,o),
(80,-201,c),
(80,-228,l),
(96,-234,o),
(151,-248,o),
(201,-248,cs)
);
},
{
closed = 1;
nodes = (
(441,251,l),
(441,276,l),
(235,276,l),
(235,251,l)
);
}
);
width = 600;
},
{
anchors = (
{
name = bottom;
pos = (313,-239);
},
{
name = top;
pos = (331,536);
},
{
name = topright;
pos = (520,536);
}
);
layerId = UUID0;
shapes = (
{
closed = 1;
nodes = (
(323,-245,o),
(397,-176,o),
(397,-52,cs),
(397,536,l),
(132,536,l),
(132,474,l),
(307,461,l),
(307,-37,ls),
(307,-127,o),
(271,-170,o),
(182,-170,cs),
(142,-170,o),
(95,-161,o),
(60,-149,c),
(60,-228,l),
(94,-238,o),
(150,-245,o),
(192,-245,cs)
);
},
{
closed = 1;
nodes = (
(472,248,l),
(472,319,l),
(224,319,l),
(224,248,l)
);
}
);
width = 600;
},
{
anchors = (
{
name = bottom;
pos = (313,-239);
},
{
name = top;
pos = (331,546);
},
{
name = topright;
pos = (520,546);
}
);
layerId = "A3018D0F-8B4B-4295-AE04-84912D9BB11D";
shapes = (
{
closed = 1;
nodes = (
(352,-245,o),
(429,-174,o),
(429,-19,cs),
(429,546,l),
(129,546,l),
(129,443,l),
(284,426,l),
(284,9,ls),
(284,-85,o),
(253,-119,o),
(174,-119,cs),
(141,-119,o),
(87,-113,o),
(40,-100,c),
(40,-223,l),
(91,-238,o),
(148,-245,o),
(196,-245,cs)
);
},
{
closed = 1;
nodes = (
(508,220,l),
(508,317,l),
(192,317,l),
(192,220,l)
);
}
);
width = 600;
},
{
anchors = (
{
name = bottom;
pos = (313,-239);
},
{
name = top;
pos = (340,553);
},
{
name = topright;
pos = (510,553);
}
);
layerId = "963C7F4A-CFE2-43FC-8D10-B7434095D111";
shapes = (
{
closed = 1;
nodes = (
(381,-245,o),
(446,-168,o),
(446,-12,cs),
(446,553,l),
(100,553,l),
(100,426,l),
(271,413,l),
(271,28,ls),
(271,-73,o),
(251,-102,o),
(172,-102,cs),
(139,-102,o),
(84,-97,o),
(30,-83,c),
(30,-220,l),
(91,-238,o),
(154,-245,o),
(207,-245,cs)
);
},
{
closed = 1;
nodes = (
(530,194,l),
(530,317,l),
(185,317,l),
(185,194,l)
);
}
);
width = 600;
},
{
anchors = (
{
name = bottom;
pos = (250,-240);
},
{
name = top;
pos = (257,528);
},
{
name = topright;
pos = (420,528);
}
);
layerId = "82FB5ACD-33BC-4284-9837-1B4D88A7F1E9";
shapes = (
{
closed = 1;
nodes = (
(249,-248,o),
(306,-196,o),
(306,-88,cs),
(306,528,l),
(111,528,l),
(111,507,l),
(280,503,l),
(280,-81,ls),
(280,-168,o),
(242,-222,o),
(164,-222,cs),
(126,-222,o),
(69,-210,o),
(50,-201,c),
(50,-228,l),
(65,-234,o),
(117,-248,o),
(164,-248,cs)
);
},
{
closed = 1;
nodes = (
(375,263,l),
(375,288,l),
(203,288,l),
(203,263,l)
);
}
);
width = 500;
},
{
anchors = (
{
name = bottom;
pos = (242,-240);
},
{
name = top;
pos = (260,536);
},
{
name = topright;
pos = (430,536);
}
);
layerId = "C5665599-2906-40DA-AF7F-7DBC0844951A";
shapes = (
{
closed = 1;
nodes = (
(273,-245,o),
(337,-186,o),
(337,-62,cs),
(337,536,l),
(82,536,l),
(82,477,l),
(255,463,l),
(255,-68,ls),
(255,-136,o),
(219,-172,o),
(155,-172,cs),
(123,-172,o),
(77,-163,o),
(45,-153,c),
(45,-228,l),
(77,-238,o),
(120,-245,o),
(160,-245,cs)
);
},
{
closed = 1;
nodes = (
(409,255,l),
(409,317,l),
(174,317,l),
(174,255,l)
);
}
);
width = 500;
},
{
anchors = (
{
name = bottom;
pos = (249,-239);
},
{
name = top;
pos = (267,546);
},
{
name = topright;
pos = (420,546);
}
);
layerId = "28AE7390-0F8D-4D03-A566-30BDF518EAE7";
shapes = (
{
closed = 1;
nodes = (
(308,-245,o),
(363,-181,o),
(363,-44,cs),
(363,546,l),
(84,546,l),
(84,450,l),
(235,440,l),
(235,-26,ls),
(235,-101,o),
(202,-129,o),
(138,-129,cs),
(112,-129,o),
(73,-123,o),
(35,-111,c),
(35,-224,l),
(79,-238,o),
(124,-245,o),
(164,-245,cs)
);
},
{
closed = 1;
nodes = (
(420,234,l),
(420,329,l),
(158,329,l),
(158,234,l)
);
}
);
width = 500;
},
{
anchors = (
{
name = bottom;
pos = (252,-239);
},
{
name = top;
pos = (270,553);
},
{
name = topright;
pos = (420,556);
}
);
layerId = "35DC4C3B-953E-41FE-A906-9781CEBB9B49";
shapes = (
{
closed = 1;
nodes = (
(323,-245,o),
(375,-179,o),
(375,-42,cs),
(375,553,l),
(76,553,l),
(76,430,l),
(222,418,l),
(222,-8,ls),
(222,-83,o),
(209,-107,o),
(151,-107,cs),
(128,-107,o),
(66,-101,o),
(25,-88,c),
(25,-222,l),
(70,-238,o),
(135,-245,o),
(175,-245,cs)
);
},
{
closed = 1;
nodes = (
(429,217,l),
(429,333,l),
(154,333,l),
(154,217,l)
);
}
);
width = 500;
}
);
script = latin;
subCategory = Lowercase;
unicode = 607;
}
{
category = Letter;
glyphname = henghook;
layers = (
{
anchors = (
{
name = bottom;
pos = (300,-240);
},
{
name = center;
pos = (300,264);
},
{
name = top;
pos = (163,758);
}
);
layerId = "02EF4DD5-EF93-4764-9336-ED93C6797AC3";
shapes = (
{
closed = 1;
nodes = (
(452,-240,o),
(500,-201,o),
(500,-120,cs),
(500,350,ls),
(500,477,o),
(432,537,o),
(320,537,cs),
(209,537,o),
(151,478,o),
(131,412,c),
(129,412,l),
(130,443,o),
(131,464,o),
(131,496,cs),
(131,640,ls),
(131,702,o),
(157,739,o),
(210,739,cs),
(230,739,o),
(251,737,o),
(271,728,c),
(271,754,l),
(255,760,o),
(235,764,o),
(210,764,cs),
(153,764,o),
(105,725,o),
(105,644,cs),
(105,0,l),
(131,0,l),
(131,302,ls),
(131,446,o),
(207,512,o),
(319,512,cs),
(416,512,o),
(474,462,o),
(474,345,cs),
(474,-116,ls),
(474,-178,o),
(448,-215,o),
(395,-215,cs),
(375,-215,o),
(354,-213,o),
(334,-204,c),
(334,-230,l),
(350,-236,o),
(370,-240,o),
(395,-240,cs)
);
}
);
width = 600;
},
{
anchors = (
{
name = bottom;
pos = (300,-240);
},
{
name = center;
pos = (300,264);
},
{
name = top;
pos = (151,760);
}
);
layerId = UUID0;
shapes = (
{
closed = 1;
nodes = (
(486,-240,o),
(525,-192,o),
(525,-100,cs),
(525,350,ls),
(525,487,o),
(450,546,o),
(339,546,cs),
(266,546,o),
(205,516,o),
(171,450,c),
(166,450,l),
(167,473,o),
(170,519,o),
(170,544,cs),
(170,631,ls),
(170,673,o),
(186,689,o),
(216,689,cs),
(238,689,o),
(259,683,o),
(268,679,c),
(268,752,l),
(254,758,o),
(228,765,o),
(203,765,cs),
(121,765,o),
(80,717,o),
(80,625,cs),
(80,0,l),
(170,0,l),
(170,278,ls),
(170,401,o),
(227,473,o),
(316,473,cs),
(392,473,o),
(435,429,o),
(435,332,cs),
(435,-106,ls),
(435,-148,o),
(421,-164,o),
(391,-164,cs),
(369,-164,o),
(348,-158,o),
(339,-154,c),
(339,-227,l),
(353,-233,o),
(379,-240,o),
(404,-240,cs)
);
}
);
width = 600;
},
{
anchors = (
{
name = bottom;
pos = (300,-240);
},
{
name = center;
pos = (300,273);
},
{
name = top;
pos = (155,760);
}
);
layerId = "A3018D0F-8B4B-4295-AE04-84912D9BB11D";
shapes = (
{
closed = 1;
nodes = (
(504,-240,o),
(550,-160,o),
(550,-60,cs),
(550,356,ls),
(550,485,o),
(482,556,o),
(360,556,cs),
(283,556,o),
(238,528,o),
(205,476,c),
(197,476,l),
(199,510,o),
(200,534,o),
(200,570,cs),
(200,590,ls),
(200,630,o),
(218,646,o),
(249,646,cs),
(272,646,o),
(293,640,o),
(304,636,c),
(304,750,l),
(290,756,o),
(260,765,o),
(226,765,cs),
(122,765,o),
(55,716,o),
(55,593,cs),
(55,0,l),
(200,0,l),
(200,257,ls),
(200,383,o),
(235,436,o),
(312,436,cs),
(369,436,o),
(405,408,o),
(405,319,cs),
(405,-37,ls),
(405,-103,o),
(377,-120,o),
(344,-120,cs),
(322,-120,o),
(306,-117,o),
(286,-111,c),
(286,-228,l),
(308,-235,o),
(345,-240,o),
(376,-240,cs)
);
}
);
width = 600;
},
{
anchors = (
{
name = bottom;
pos = (300,-240);
},
{
name = center;
pos = (300,277);
},
{
name = top;
pos = (154,760);
}
);
layerId = "963C7F4A-CFE2-43FC-8D10-B7434095D111";
shapes = (
{
closed = 1;
nodes = (
(525,-240,o),
(560,-143,o),
(560,-36,cs),
(560,359,ls),
(560,484,o),
(500,563,o),
(373,563,cs),
(301,563,o),
(256,537,o),
(221,483,c),
(214,483,l),
(217,513,o),
(220,545,o),
(220,565,cs),
(220,572,ls),
(220,609,o),
(243,624,o),
(270,624,cs),
(296,624,o),
(311,619,o),
(319,616,c),
(319,750,l),
(305,757,o),
(268,763,o),
(227,763,cs),
(108,763,o),
(45,710,o),
(45,572,cs),
(45,0,l),
(220,0,l),
(220,241,ls),
(220,381,o),
(249,422,o),
(308,422,cs),
(368,422,o),
(385,379,o),
(385,301,cs),
(385,0,ls),
(385,-72,o),
(356,-86,o),
(327,-86,cs),
(304,-86,o),
(290,-83,o),
(270,-77,c),
(270,-228,l),
(295,-235,o),
(337,-240,o),
(370,-240,cs)
);
}
);
width = 600;
},
{
anchors = (
{
name = bottom;
pos = (250,-241);
},
{
name = center;
pos = (250,264);
},
{
name = top;
pos = (146,760);
}
);
layerId = "82FB5ACD-33BC-4284-9837-1B4D88A7F1E9";
shapes = (
{
closed = 1;
nodes = (
(377,-241,o),
(420,-211,o),
(420,-126,cs),
(420,356,ls),
(420,479,o),
(366,538,o),
(271,538,cs),
(176,538,o),
(129,478,o),
(111,421,c),
(109,421,l),
(110,446,o),
(111,464,o),
(111,494,cs),
(111,653,ls),
(111,709,o),
(130,740,o),
(173,740,cs),
(188,740,o),
(203,738,o),
(219,731,c),
(219,757,l),
(207,761,o),
(192,765,o),
(172,765,cs),
(122,765,o),
(85,733,o),
(85,656,cs),
(85,0,l),
(111,0,l),
(111,300,ls),
(111,447,o),
(180,513,o),
(270,513,cs),
(346,513,o),
(394,467,o),
(394,353,cs),
(394,-124,ls),
(394,-188,o),
(368,-216,o),
(325,-216,cs),
(311,-216,o),
(295,-214,o),
(280,-207,c),
(280,-233,l),
(292,-238,o),
(307,-241,o),
(325,-241,cs)
);
}
);
width = 500;
},
{
anchors = (
{
name = bottom;
pos = (250,-240);
},
{
name = center;
pos = (250,268);
},
{
name = top;
pos = (131,760);
}
);
layerId = "C5665599-2906-40DA-AF7F-7DBC0844951A";
shapes = (
{
closed = 1;
nodes = (
(395,-240,o),
(445,-191,o),
(445,-94,cs),
(445,350,ls),
(445,487,o),
(375,547,o),
(281,547,cs),
(211,547,o),
(170,513,o),
(143,463,c),
(138,463,l),
(139,486,o),
(142,509,o),
(142,532,cs),
(142,622,ls),
(142,676,o),
(160,692,o),
(197,692,cs),
(209,692,o),
(224,689,o),
(237,684,c),
(237,756,l),
(226,761,o),
(204,765,o),
(185,765,cs),
(111,765,o),
(60,714,o),
(60,624,cs),
(60,0,l),
(142,0,l),
(142,279,ls),
(142,403,o),
(180,474,o),
(262,474,cs),
(330,474,o),
(363,426,o),
(363,333,cs),
(363,-94,ls),
(363,-142,o),
(342,-167,o),
(309,-167,cs),
(286,-167,o),
(271,-160,o),
(260,-153,c),
(260,-226,l),
(274,-234,o),
(297,-240,o),
(326,-240,cs)
);
}
);
width = 500;
},
{
anchors = (
{
name = bottom;
pos = (250,-240);
},
{
name = center;
pos = (250,273);
},
{
name = top;
pos = (140,760);
}
);
layerId = "28AE7390-0F8D-4D03-A566-30BDF518EAE7";
shapes = (
{
closed = 1;
nodes = (
(409,-240,o),
(460,-188,o),
(460,-59,cs),
(460,355,ls),
(460,487,o),
(412,556,o),
(311,556,cs),
(248,556,o),
(199,529,o),
(174,475,c),
(165,475,l),
(170,515,o),
(173,542,o),
(173,572,cs),
(173,592,ls),
(173,637,o),
(189,651,o),
(222,651,cs),
(235,651,o),
(250,648,o),
(265,642,c),
(265,754,l),
(250,760,o),
(216,765,o),
(194,765,cs),
(100,765,o),
(45,700,o),
(45,591,cs),
(45,0,l),
(173,0,l),
(173,259,ls),
(173,376,o),
(191,440,o),
(262,440,cs),
(320,440,o),
(333,398,o),
(333,323,cs),
(333,-59,ls),
(333,-107,o),
(316,-126,o),
(280,-126,cs),
(258,-126,o),
(240,-119,o),
(224,-112,c),
(224,-222,l),
(248,-233,o),
(275,-240,o),
(313,-240,cs)
);
}
);
width = 500;
},
{
anchors = (
{
name = bottom;
pos = (250,-240);
},
{
name = center;
pos = (250,277);
},
{
name = top;
pos = (155,760);
}
);
layerId = "35DC4C3B-953E-41FE-A906-9781CEBB9B49";
shapes = (
{
closed = 1;
nodes = (
(422,-240,o),
(470,-188,o),
(470,-54,cs),
(470,360,ls),
(470,489,o),
(412,563,o),
(314,563,cs),
(251,563,o),
(208,532,o),
(186,484,c),
(177,484,l),
(186,528,o),
(190,555,o),
(190,571,cs),
(190,578,ls),
(190,617,o),
(204,635,o),
(234,635,cs),
(248,635,o),
(263,632,o),
(279,626,c),
(279,753,l),
(261,759,o),
(219,765,o),
(195,765,cs),
(88,765,o),
(35,691,o),
(35,580,cs),
(35,0,l),
(190,0,l),
(190,278,ls),
(190,366,o),
(204,418,o),
(258,418,cs),
(313,418,o),
(315,376,o),
(315,308,cs),
(315,-54,ls),
(315,-91,o),
(299,-108,o),
(268,-108,cs),
(244,-108,o),
(227,-100,o),
(210,-92,c),
(210,-213,l),
(236,-228,o),
(274,-240,o),
(318,-240,cs)
);
}
);
width = 500;
}
);
script = latin;
subCategory = Lowercase;
unicode = 615;
}
{
category = Letter;
glyphname = istroke;
layers = (
{
anchors = (
{
name = bottom;
pos = (300,0);
},
{
name = top;
pos = (300,734);
},
{
name = topright;
pos = (491,734);
}
);
layerId = "02EF4DD5-EF93-4764-9336-ED93C6797AC3";
shapes = (
{
closed = 1;
nodes = (
(530,0,l),
(530,21,l),
(333,25,l),
(333,251,l),
(462,251,l),
(462,276,l),
(333,276,l),
(333,528,l),
(118,528,l),
(118,507,l),
(307,503,l),
(307,276,l),
(166,276,l),
(166,251,l),
(307,251,l),
(307,25,l),
(100,21,l),
(100,0,l)
);
},
{
closed = 1;
nodes = (
(343,660,o),
(347,679,o),
(347,697,cs),
(347,716,o),
(341,734,o),
(317,734,cs),
(291,734,o),
(285,716,o),
(285,697,cs),
(285,677,o),
(292,660,o),
(317,660,cs)
);
}
);
width = 600;
},
{
anchors = (
{
name = bottom;
pos = (300,0);
},
{
name = top;
pos = (300,760);
},
{
name = topright;
pos = (498,760);
}
);
layerId = UUID0;
shapes = (
{
closed = 1;
nodes = (
(540,0,l),
(540,60,l),
(361,75,l),
(361,234,l),
(479,234,l),
(479,305,l),
(361,305,l),
(361,536,l),
(96,536,l),
(96,474,l),
(271,461,l),
(271,305,l),
(131,305,l),
(131,234,l),
(271,234,l),
(271,75,l),
(80,60,l),
(80,0,l)
);
},
{
closed = 1;
nodes = (
(341,633,o),
(370,654,o),
(370,696,cs),
(370,740,o),
(341,760,o),
(307,760,cs),
(272,760,o),
(244,740,o),
(244,696,cs),
(244,654,o),
(272,633,o),
(307,633,cs)
);
}
);
width = 600;
},
{
anchors = (
{
name = bottom;
pos = (300,0);
},
{
name = top;
pos = (300,776);
},
{
name = topright;
pos = (509,776);
}
);
layerId = "A3018D0F-8B4B-4295-AE04-84912D9BB11D";
shapes = (
{
closed = 1;
nodes = (
(550,0,l),
(550,90,l),
(387,120,l),
(387,231,l),
(516,231,l),
(516,328,l),
(387,328,l),
(387,546,l),
(87,546,l),
(87,443,l),
(242,426,l),
(242,328,l),
(111,328,l),
(111,231,l),
(242,231,l),
(242,120,l),
(60,90,l),
(60,0,l)
);
},
{
closed = 1;
nodes = (
(375,608,o),
(405,638,o),
(405,693,cs),
(405,747,o),
(376,776,o),
(317,776,cs),
(257,776,o),
(228,747,o),
(228,692,cs),
(228,636,o),
(258,608,o),
(315,608,cs)
);
}
);
width = 600;
},
{
anchors = (
{
name = bottom;
pos = (300,0);
},
{
name = top;
pos = (300,777);
},
{
name = topright;
pos = (510,777);
}
);
layerId = "963C7F4A-CFE2-43FC-8D10-B7434095D111";
shapes = (
{
closed = 1;
nodes = (
(560,0,l),
(560,124,l),
(401,140,l),
(401,212,l),
(531,212,l),
(531,335,l),
(401,335,l),
(401,553,l),
(83,553,l),
(83,427,l),
(226,413,l),
(226,335,l),
(94,335,l),
(94,212,l),
(226,212,l),
(226,140,l),
(40,124,l),
(40,0,l)
);
},
{
closed = 1;
nodes = (
(385,601,o),
(416,635,o),
(416,690,cs),
(416,746,o),
(384,777,o),
(313,777,cs),
(242,777,o),
(208,746,o),
(208,690,cs),
(208,631,o),
(245,601,o),
(313,601,cs)
);
}
);
width = 600;
},
{
anchors = (
{
name = bottom;
pos = (250,0);
},
{
name = top;
pos = (250,734);
},
{
name = topright;
pos = (411,734);
}
);
layerId = "82FB5ACD-33BC-4284-9837-1B4D88A7F1E9";
shapes = (
{
closed = 1;
nodes = (
(432,0,l),
(432,21,l),
(275,25,l),
(275,253,l),
(408,253,l),
(408,278,l),
(275,278,l),
(275,528,l),
(100,528,l),
(100,507,l),
(249,503,l),
(249,278,l),
(104,278,l),
(104,253,l),
(249,253,l),
(249,25,l),
(82,21,l),
(82,0,l)
);
},
{
closed = 1;
nodes = (
(285,660,o),
(289,679,o),
(289,697,cs),
(289,716,o),
(283,734,o),
(259,734,cs),
(233,734,o),
(227,716,o),
(227,697,cs),
(227,677,o),
(234,660,o),
(259,660,cs)
);
}
);
width = 500;
},
{
anchors = (
{
name = bottom;
pos = (250,0);
},
{
name = top;
pos = (250,765);
},
{
name = topright;
pos = (409,765);
}
);
layerId = "C5665599-2906-40DA-AF7F-7DBC0844951A";
shapes = (
{
closed = 1;
nodes = (
(425,0,l),
(425,59,l),
(298,69,l),
(298,232,l),
(418,232,l),
(418,295,l),
(298,295,l),
(298,536,l),
(80,536,l),
(80,477,l),
(216,463,l),
(216,295,l),
(72,295,l),
(72,232,l),
(216,232,l),
(216,69,l),
(75,59,l),
(75,0,l)
);
},
{
closed = 1;
nodes = (
(286,633,o),
(309,654,o),
(309,698,cs),
(309,744,o),
(286,765,o),
(252,765,cs),
(218,765,o),
(196,744,o),
(196,698,cs),
(196,655,o),
(217,633,o),
(252,633,cs)
);
}
);
width = 500;
},
{
anchors = (
{
name = bottom;
pos = (250,0);
},
{
name = top;
pos = (250,771);
},
{
name = topright;
pos = (427,771);
}
);
layerId = "28AE7390-0F8D-4D03-A566-30BDF518EAE7";
shapes = (
{
closed = 1;
nodes = (
(445,0,l),
(445,95,l),
(323,107,l),
(323,225,l),
(446,225,l),
(446,320,l),
(323,320,l),
(323,546,l),
(73,546,l),
(73,450,l),
(195,440,l),
(195,320,l),
(60,320,l),
(60,225,l),
(195,225,l),
(195,107,l),
(55,95,l),
(55,0,l)
);
},
{
closed = 1;
nodes = (
(311,617,o),
(334,645,o),
(334,694,cs),
(334,744,o),
(309,771,o),
(256,771,cs),
(204,771,o),
(177,744,o),
(177,694,cs),
(177,643,o),
(208,617,o),
(256,617,cs)
);
}
);
width = 500;
},
{
anchors = (
{
name = bottom;
pos = (250,0);
},
{
name = top;
pos = (250,774);
},
{
name = topright;
pos = (432,774);
}
);
layerId = "35DC4C3B-953E-41FE-A906-9781CEBB9B49";
shapes = (
{
closed = 1;
nodes = (
(465,0,l),
(465,114,l),
(337,132,l),
(337,215,l),
(450,215,l),
(450,331,l),
(337,331,l),
(337,553,l),
(66,553,l),
(66,431,l),
(185,419,l),
(185,331,l),
(71,331,l),
(71,215,l),
(185,215,l),
(185,132,l),
(35,114,l),
(35,0,l)
);
},
{
closed = 1;
nodes = (
(323,608,o),
(349,639,o),
(349,691,cs),
(349,745,o),
(322,774,o),
(261,774,cs),
(202,774,o),
(172,745,o),
(172,691,cs),
(172,636,o),
(204,608,o),
(261,608,cs)
);
}
);
width = 500;
}
);
script = latin;
subCategory = Lowercase;
unicode = 616;
}
{
category = Letter;
glyphname = lbelt;
layers = (
{
anchors = (
{
name = bottom;
pos = (300,0);
},
{
name = top;
pos = (313,760);
}
);
layerId = "02EF4DD5-EF93-4764-9336-ED93C6797AC3";
shapes = (
{
closed = 1;
nodes = (
(413,318,l),
(413,340,l),
(327,340,l),
(304,424,l),
(292,451,o),
(263,466,o),
(228,466,cs),
(181,466,o),
(150,438,o),
(150,393,cs),
(150,343,o),
(188,318,o),
(242,318,c)
);
},
{
closed = 1;
nodes = (
(200,340,o),
(175,360,o),
(175,395,cs),
(175,424,o),
(193,443,o),
(227,443,cs),
(286,443,o),
(301,394,o),
(301,350,cs),
(301,340,l),
(246,340,l)
);
},
{
alignment = -1;
ref = l;
}
);
width = 600;
},
{
anchors = (
{
name = bottom;
pos = (300,0);
},
{
name = top;
pos = (313,760);
}
);
layerId = UUID0;
shapes = (
{
closed = 1;
nodes = (
(468,297,l),
(468,369,l),
(364,369,l),
(276,488,l),
(262,500,o),
(245,506,o),
(220,506,cs),
(148,506,o),
(118,454,o),
(118,402,cs),
(118,341,o),
(152,297,o),
(234,297,c)
);
},
{
closed = 1;
nodes = (
(217,369,o),
(198,378,o),
(198,402,cs),
(198,418,o),
(207,434,o),
(233,434,cs),
(266,434,o),
(276,411,o),
(276,380,cs),
(276,369,l),
(241,369,l)
);
},
{
alignment = -1;
ref = l;
}
);
width = 600;
},
{
anchors = (
{
name = bottom;
pos = (300,0);
},
{
name = top;
pos = (313,760);
}
);
layerId = "A3018D0F-8B4B-4295-AE04-84912D9BB11D";
shapes = (
{
closed = 1;
nodes = (
(483,292,l),
(483,369,l),
(385,369,l),
(240,493,l),
(225,506,o),
(206,511,o),
(185,511,cs),
(114,511,o),
(72,467,o),
(72,400,cs),
(72,337,o),
(112,292,o),
(205,292,c)
);
},
{
closed = 1;
nodes = (
(181,369,o),
(162,377,o),
(162,402,cs),
(162,422,o),
(175,434,o),
(197,434,cs),
(224,434,o),
(240,418,o),
(240,383,cs),
(240,369,l),
(210,369,l)
);
},
{
alignment = -1;
ref = l;
}
);
width = 600;
},
{
anchors = (
{
name = bottom;
pos = (300,0);
},
{
name = top;
pos = (313,760);
}
);
layerId = "963C7F4A-CFE2-43FC-8D10-B7434095D111";
shapes = (
{
closed = 1;
nodes = (
(501,280,l),
(501,373,l),
(401,373,l),
(226,513,l),
(211,519,o),
(194,524,o),
(176,524,c),
(98,524,o),
(50,476,o),
(50,400,c),
(50,336,o),
(89,280,o),
(190,280,c)
);
},
{
closed = 1;
nodes = (
(177,373,o),
(159,379,o),
(159,402,c),
(159,421,o),
(172,431,o),
(192,431,c),
(208,431,o),
(226,427,o),
(226,392,c),
(226,373,l),
(199,373,l)
);
},
{
alignment = -1;
ref = l;
}
);
width = 600;
},
{
anchors = (
{
name = bottom;
pos = (250,0);
},
{
name = top;
pos = (256,760);
}
);
layerId = "82FB5ACD-33BC-4284-9837-1B4D88A7F1E9";
shapes = (
{
closed = 1;
nodes = (
(369,331,l),
(369,354,l),
(269,354,l),
(243,442,l),
(227,465,o),
(203,474,o),
(178,474,cs),
(136,474,o),
(107,450,o),
(107,406,cs),
(107,344,o),
(162,331,o),
(220,331,c)
);
},
{
closed = 1;
nodes = (
(156,354,o),
(131,371,o),
(131,406,cs),
(131,431,o),
(146,451,o),
(178,451,cs),
(233,451,o),
(243,395,o),
(243,360,cs),
(243,354,l),
(214,354,l)
);
},
{
alignment = -1;
ref = l;
}
);
width = 500;
},
{
anchors = (
{
name = bottom;
pos = (250,0);
},
{
name = top;
pos = (256,760);
}
);
layerId = "C5665599-2906-40DA-AF7F-7DBC0844951A";
shapes = (
{
closed = 1;
nodes = (
(383,303,l),
(383,363,l),
(292,363,l),
(210,467,l),
(195,485,o),
(175,493,o),
(151,493,cs),
(93,493,o),
(62,455,o),
(62,401,cs),
(62,339,o),
(100,303,o),
(178,303,c)
);
},
{
closed = 1;
nodes = (
(142,363,o),
(122,374,o),
(122,403,cs),
(122,424,o),
(134,438,o),
(158,438,cs),
(196,438,o),
(210,406,o),
(210,371,cs),
(210,363,l),
(177,363,l)
);
},
{
alignment = -1;
ref = l;
}
);
width = 500;
},
{
anchors = (
{
name = bottom;
pos = (250,0);
},
{
name = top;
pos = (254,760);
}
);
layerId = "28AE7390-0F8D-4D03-A566-30BDF518EAE7";
shapes = (
{
closed = 1;
nodes = (
(405,284,l),
(405,368,l),
(320,368,l),
(192,492,l),
(179,504,o),
(163,509,o),
(145,509,cs),
(82,509,o),
(46,467,o),
(46,400,cs),
(46,337,o),
(80,284,o),
(161,284,c)
);
},
{
closed = 1;
nodes = (
(144,368,o),
(127,377,o),
(127,402,cs),
(127,422,o),
(138,435,o),
(156,435,cs),
(177,435,o),
(192,417,o),
(192,382,cs),
(192,368,l),
(166,368,l)
);
},
{
alignment = -1;
ref = l;
}
);
width = 500;
},
{
anchors = (
{
name = bottom;
pos = (250,0);
},
{
name = top;
pos = (256,760);
}
);
layerId = "35DC4C3B-953E-41FE-A906-9781CEBB9B49";
shapes = (
{
closed = 1;
nodes = (
(410,272,l),
(410,372,l),
(329,372,l),
(177,508,ls),
(166,517,o),
(152,520,o),
(138,520,cs),
(73,520,o),
(33,474,o),
(33,400,cs),
(33,336,o),
(64,272,o),
(148,272,c)
);
},
{
closed = 1;
nodes = (
(141,372,o),
(127,378,o),
(127,402,cs),
(127,421,o),
(137,432,o),
(152,432,cs),
(162,432,o),
(177,425,o),
(177,390,cs),
(177,372,l),
(156,372,l)
);
},
{
alignment = -1;
ref = l;
}
);
width = 500;
}
);
script = latin;
subCategory = Lowercase;
unicode = 620;
}
{
category = Letter;
glyphname = nhookleft;
layers = (
{
anchors = (
{
name = bottom;
pos = (325,-240);
},
{
name = top;
pos = (305,529);
},
{
name = topright;
pos = (580,528);
}
);
layerId = "02EF4DD5-EF93-4764-9336-ED93C6797AC3";
shapes = (
{
closed = 1;
nodes = (
(83,-240,o),
(131,-201,o),
(131,-120,cs),
(131,302,ls),
(131,446,o),
(207,512,o),
(319,512,cs),
(416,512,o),
(474,462,o),
(474,345,cs),
(474,0,l),
(500,0,l),
(500,354,ls),
(500,477,o),
(432,537,o),
(320,537,cs),
(209,537,o),
(155,478,o),
(132,417,c),
(130,417,l),
(127,528,l),
(105,528,l),
(105,-116,ls),
(105,-178,o),
(79,-215,o),
(26,-215,cs),
(6,-215,o),
(-15,-213,o),
(-35,-204,c),
(-35,-230,l),
(-19,-236,o),
(1,-240,o),
(26,-240,cs)
);
}
);
width = 600;
},
{
anchors = (
{
name = bottom;
pos = (325,-240);
},
{
name = top;
pos = (307,536);
},
{
name = topright;
pos = (580,536);
}
);
layerId = UUID0;
shapes = (
{
closed = 1;
nodes = (
(109,-240,o),
(170,-204,o),
(170,-73,cs),
(170,275,ls),
(170,400,o),
(210,473,o),
(319,473,cs),
(400,473,o),
(435,432,o),
(435,342,cs),
(435,0,l),
(525,0,l),
(525,358,ls),
(525,487,o),
(453,546,o),
(345,546,cs),
(264,546,o),
(201,518,o),
(170,457,c),
(165,457,l),
(152,536,l),
(80,536,l),
(80,-72,ls),
(80,-151,o),
(61,-168,o),
(20,-168,cs),
(2,-168,o),
(-21,-162,o),
(-32,-157,c),
(-32,-224,l),
(-18,-233,o),
(9,-240,o),
(38,-240,cs)
);
}
);
width = 600;
},
{
anchors = (
{
name = bottom;
pos = (315,-240);
},
{
name = top;
pos = (311,546);
},
{
name = topright;
pos = (580,546);
}
);
layerId = "A3018D0F-8B4B-4295-AE04-84912D9BB11D";
shapes = (
{
closed = 1;
nodes = (
(168,-240,o),
(200,-159,o),
(200,-59,cs),
(200,257,ls),
(200,367,o),
(233,436,o),
(312,436,cs),
(372,436,o),
(405,399,o),
(405,319,cs),
(405,0,l),
(550,0,l),
(550,356,ls),
(550,485,o),
(484,556,o),
(362,556,cs),
(287,556,o),
(230,529,o),
(197,476,c),
(189,476,l),
(165,546,l),
(55,546,l),
(55,-61,ls),
(55,-98,o),
(40,-121,o),
(7,-121,cs),
(-9,-121,o),
(-18,-117,o),
(-30,-111,c),
(-30,-227,l),
(-15,-234,o),
(7,-240,o),
(40,-240,cs)
);
}
);
width = 600;
},
{
anchors = (
{
name = bottom;
pos = (312,-240);
},
{
name = top;
pos = (308,553);
},
{
name = topright;
pos = (580,553);
}
);
layerId = "963C7F4A-CFE2-43FC-8D10-B7434095D111";
shapes = (
{
closed = 1;
nodes = (
(188,-240,o),
(220,-150,o),
(220,-49,cs),
(220,241,ls),
(220,354,o),
(241,422,o),
(309,422,cs),
(362,422,o),
(385,379,o),
(385,301,cs),
(385,0,l),
(560,0,l),
(560,359,ls),
(560,488,o),
(502,563,o),
(374,563,cs),
(295,563,o),
(242,534,o),
(208,483,c),
(198,483,l),
(175,553,l),
(45,553,l),
(45,-52,ls),
(45,-73,o),
(30,-90,o),
(5,-90,cs),
(-8,-90,o),
(-18,-87,o),
(-26,-83,c),
(-26,-226,l),
(-13,-233,o),
(15,-240,o),
(51,-240,cs)
);
}
);
width = 600;
},
{
anchors = (
{
name = bottom;
pos = (255,-240);
},
{
name = top;
pos = (247,528);
},
{
name = topright;
pos = (480,528);
}
);
layerId = "82FB5ACD-33BC-4284-9837-1B4D88A7F1E9";
shapes = (
{
closed = 1;
nodes = (
(84,-242,o),
(111,-217,o),
(111,-145,cs),
(111,307,ls),
(111,446,o),
(179,512,o),
(270,512,cs),
(348,512,o),
(394,467,o),
(394,355,cs),
(394,0,l),
(420,0,l),
(420,361,ls),
(420,483,o),
(366,537,o),
(270,537,cs),
(175,537,o),
(128,476,o),
(110,416,c),
(108,416,l),
(105,528,l),
(85,528,l),
(85,-142,ls),
(85,-193,o),
(72,-217,o),
(40,-217,cs),
(29,-217,o),
(20,-215,o),
(9,-210,c),
(9,-236,l),
(17,-239,o),
(27,-242,o),
(42,-242,cs)
);
}
);
width = 500;
},
{
anchors = (
{
name = bottom;
pos = (255,-240);
},
{
name = top;
pos = (251,536);
},
{
name = topright;
pos = (480,536);
}
);
layerId = "C5665599-2906-40DA-AF7F-7DBC0844951A";
shapes = (
{
closed = 1;
nodes = (
(97,-240,o),
(142,-204,o),
(142,-108,cs),
(142,279,ls),
(142,404,o),
(178,474,o),
(260,474,cs),
(325,474,o),
(363,430,o),
(363,346,cs),
(363,0,l),
(445,0,l),
(445,350,ls),
(445,487,o),
(387,547,o),
(286,547,cs),
(225,547,o),
(171,520,o),
(144,464,c),
(139,464,l),
(127,536,l),
(60,536,l),
(60,-108,ls),
(60,-155,o),
(42,-167,o),
(14,-167,cs),
(-4,-167,o),
(-19,-162,o),
(-29,-157,c),
(-29,-230,l),
(-16,-235,o),
(2,-240,o),
(29,-240,cs)
);
}
);
width = 500;
},
{
anchors = (
{
name = bottom;
pos = (255,-240);
},
{
name = top;
pos = (251,546);
},
{
name = topright;
pos = (480,546);
}
);
layerId = "28AE7390-0F8D-4D03-A566-30BDF518EAE7";
shapes = (
{
closed = 1;
nodes = (
(131,-240,o),
(173,-192,o),
(173,-73,cs),
(173,288,ls),
(173,396,o),
(195,445,o),
(261,445,cs),
(311,445,o),
(332,411,o),
(332,335,cs),
(332,0,l),
(460,0,l),
(460,371,ls),
(460,498,o),
(409,556,o),
(308,556,cs),
(237,556,o),
(198,528,o),
(173,483,c),
(167,483,l),
(148,546,l),
(45,546,l),
(45,-76,ls),
(45,-114,o),
(32,-129,o),
(3,-129,cs),
(-13,-129,o),
(-24,-124,o),
(-31,-120,c),
(-31,-225,l),
(-17,-232,o),
(7,-240,o),
(41,-240,cs)
);
}
);
width = 500;
},
{
anchors = (
{
name = bottom;
pos = (258,-240);
},
{
name = top;
pos = (254,553);
},
{
name = topright;
pos = (501,553);
}
);
layerId = "35DC4C3B-953E-41FE-A906-9781CEBB9B49";
shapes = (
{
closed = 1;
nodes = (
(141,-240,o),
(190,-188,o),
(190,-54,cs),
(190,296,ls),
(190,395,o),
(210,431,o),
(261,431,cs),
(296,431,o),
(315,405,o),
(315,331,cs),
(315,0,l),
(470,0,l),
(470,360,ls),
(470,499,o),
(411,563,o),
(311,563,cs),
(247,563,o),
(210,535,o),
(185,491,c),
(180,491,l),
(162,553,l),
(35,553,l),
(35,-64,ls),
(35,-96,o),
(22,-110,o),
(-3,-110,cs),
(-13,-110,o),
(-22,-107,o),
(-28,-104,c),
(-28,-229,l),
(-10,-236,o),
(11,-240,o),
(37,-240,cs)
);
}
);
width = 500;
}
);
script = latin;
subCategory = Lowercase;
unicode = 626;
}
{
category = Letter;
glyphname = nhookretroflex;
layers = (
{
anchors = (
{
name = bottom;
pos = (313,-237);
},
{
name = top;
pos = (308,528);
},
{
name = topright;
pos = (580,528);
}
);
layerId = "02EF4DD5-EF93-4764-9336-ED93C6797AC3";
shapes = (
{
closed = 1;
nodes = (
(616,-237,o),
(640,-232,o),
(653,-227,c),
(653,-202,l),
(640,-207,o),
(620,-212,o),
(593,-212,cs),
(540,-212,o),
(500,-179,o),
(500,-91,cs),
(500,354,ls),
(500,477,o),
(432,537,o),
(320,537,cs),
(209,537,o),
(155,478,o),
(132,417,c),
(130,417,l),
(127,528,l),
(105,528,l),
(105,0,l),
(131,0,l),
(131,302,ls),
(131,446,o),
(207,512,o),
(319,512,cs),
(416,512,o),
(474,462,o),
(474,345,cs),
(474,-98,ls),
(474,-190,o),
(520,-237,o),
(592,-237,cs)
);
}
);
width = 600;
},
{
anchors = (
{
name = bottom;
pos = (312,-240);
},
{
name = top;
pos = (312,536);
},
{
name = topright;
pos = (580,536);
}
);
layerId = UUID0;
shapes = (
{
closed = 1;
nodes = (
(594,-240,o),
(622,-233,o),
(636,-224,c),
(636,-157,l),
(625,-162,o),
(601,-168,o),
(583,-168,cs),
(543,-168,o),
(525,-151,o),
(525,-72,cs),
(525,358,ls),
(525,487,o),
(453,546,o),
(345,546,cs),
(264,546,o),
(201,518,o),
(170,457,c),
(165,457,l),
(152,536,l),
(80,536,l),
(80,0,l),
(170,0,l),
(170,275,ls),
(170,400,o),
(210,473,o),
(319,473,cs),
(400,473,o),
(435,432,o),
(435,342,cs),
(435,-73,ls),
(435,-204,o),
(495,-240,o),
(566,-240,cs)
);
}
);
width = 600;
},
{
anchors = (
{
name = bottom;
pos = (304,-240);
},
{
name = top;
pos = (304,546);
},
{
name = topright;
pos = (580,546);
}
);
layerId = "A3018D0F-8B4B-4295-AE04-84912D9BB11D";
shapes = (
{
closed = 1;
nodes = (
(598,-240,o),
(628,-233,o),
(647,-225,c),
(647,-111,l),
(630,-117,o),
(616,-121,o),
(597,-121,cs),
(564,-121,o),
(550,-98,o),
(550,-61,cs),
(550,356,ls),
(550,485,o),
(484,556,o),
(362,556,cs),
(287,556,o),
(230,529,o),
(197,476,c),
(189,476,l),
(165,546,l),
(55,546,l),
(55,0,l),
(200,0,l),
(200,257,ls),
(200,367,o),
(233,436,o),
(312,436,cs),
(372,436,o),
(405,399,o),
(405,319,cs),
(405,-64,ls),
(405,-170,o),
(438,-240,o),
(561,-240,cs)
);
}
);
width = 600;
},
{
anchors = (
{
name = bottom;
pos = (306,-240);
},
{
name = top;
pos = (314,553);
},
{
name = topright;
pos = (580,553);
}
);
layerId = "963C7F4A-CFE2-43FC-8D10-B7434095D111";
shapes = (
{
closed = 1;
nodes = (
(599,-240,o),
(643,-230,o),
(659,-222,c),
(659,-78,l),
(641,-84,o),
(629,-87,o),
(607,-87,cs),
(575,-87,o),
(560,-70,o),
(560,-45,cs),
(560,359,ls),
(560,488,o),
(502,563,o),
(374,563,cs),
(295,563,o),
(242,534,o),
(208,483,c),
(198,483,l),
(175,553,l),
(45,553,l),
(45,0,l),
(220,0,l),
(220,241,ls),
(220,354,o),
(241,422,o),
(309,422,cs),
(362,422,o),
(385,379,o),
(385,301,cs),
(385,-46,ls),
(385,-162,o),
(412,-240,o),
(556,-240,cs)
);
}
);
width = 600;
},
{
anchors = (
{
name = bottom;
pos = (260,-242);
},
{
name = top;
pos = (255,528);
},
{
name = topright;
pos = (480,528);
}
);
layerId = "82FB5ACD-33BC-4284-9837-1B4D88A7F1E9";
shapes = (
{
closed = 1;
nodes = (
(478,-242,o),
(488,-239,o),
(496,-236,c),
(496,-210,l),
(485,-215,o),
(476,-217,o),
(465,-217,cs),
(433,-217,o),
(420,-193,o),
(420,-142,cs),
(420,361,ls),
(420,483,o),
(366,537,o),
(270,537,cs),
(175,537,o),
(128,476,o),
(110,416,c),
(108,416,l),
(105,528,l),
(85,528,l),
(85,0,l),
(111,0,l),
(111,307,ls),
(111,446,o),
(179,512,o),
(270,512,cs),
(348,512,o),
(394,467,o),
(394,355,cs),
(394,-145,ls),
(394,-217,o),
(421,-242,o),
(463,-242,cs)
);
}
);
width = 500;
},
{
anchors = (
{
name = bottom;
pos = (256,-240);
},
{
name = top;
pos = (261,536);
},
{
name = topright;
pos = (480,536);
}
);
layerId = "C5665599-2906-40DA-AF7F-7DBC0844951A";
shapes = (
{
closed = 1;
nodes = (
(489,-240,o),
(514,-234,o),
(535,-224,c),
(535,-155,l),
(525,-161,o),
(501,-167,o),
(483,-167,cs),
(455,-167,o),
(445,-150,o),
(445,-102,cs),
(445,350,ls),
(445,487,o),
(387,547,o),
(286,547,cs),
(225,547,o),
(171,520,o),
(144,464,c),
(139,464,l),
(127,536,l),
(60,536,l),
(60,0,l),
(142,0,l),
(142,279,ls),
(142,404,o),
(178,474,o),
(260,474,cs),
(325,474,o),
(363,430,o),
(363,346,cs),
(363,-102,ls),
(363,-199,o),
(393,-240,o),
(462,-240,cs)
);
}
);
width = 500;
},
{
anchors = (
{
name = bottom;
pos = (251,-240);
},
{
name = top;
pos = (260,546);
},
{
name = topright;
pos = (480,546);
}
);
layerId = "28AE7390-0F8D-4D03-A566-30BDF518EAE7";
shapes = (
{
closed = 1;
nodes = (
(499,-240,o),
(523,-232,o),
(538,-225,c),
(538,-119,l),
(526,-123,o),
(514,-126,o),
(501,-126,cs),
(475,-126,o),
(460,-111,o),
(460,-73,cs),
(460,371,ls),
(460,498,o),
(409,556,o),
(308,556,cs),
(237,556,o),
(198,528,o),
(173,483,c),
(167,483,l),
(148,546,l),
(45,546,l),
(45,0,l),
(173,0,l),
(173,288,ls),
(173,396,o),
(195,445,o),
(261,445,cs),
(311,445,o),
(332,411,o),
(332,335,cs),
(332,-73,ls),
(332,-192,o),
(377,-240,o),
(467,-240,cs)
);
}
);
width = 500;
},
{
anchors = (
{
name = bottom;
pos = (255,-240);
},
{
name = top;
pos = (258,553);
},
{
name = topright;
pos = (501,553);
}
);
layerId = "35DC4C3B-953E-41FE-A906-9781CEBB9B49";
shapes = (
{
closed = 1;
nodes = (
(493,-240,o),
(518,-235,o),
(540,-227,c),
(540,-101,l),
(530,-105,o),
(519,-108,o),
(508,-108,cs),
(483,-108,o),
(470,-94,o),
(470,-62,cs),
(470,360,ls),
(470,499,o),
(411,563,o),
(311,563,cs),
(247,563,o),
(210,535,o),
(185,491,c),
(180,491,l),
(162,553,l),
(35,553,l),
(35,0,l),
(190,0,l),
(190,296,ls),
(190,395,o),
(210,431,o),
(261,431,cs),
(296,431,o),
(315,405,o),
(315,331,cs),
(315,-54,ls),
(315,-188,o),
(360,-240,o),
(464,-240,cs)
);
}
);
width = 500;
}
);
script = latin;
subCategory = Lowercase;
unicode = 627;
}
{
category = Letter;
glyphname = rfishhook;
layers = (
{
anchors = (
{
name = bottom;
pos = (300,0);
},
{
name = top;
pos = (377,528);
}
);
layerId = "02EF4DD5-EF93-4764-9336-ED93C6797AC3";
shapes = (
{
closed = 1;
nodes = (
(209,0,l),
(235,0,l),
(235,322,ls),
(235,465,o),
(300,513,o),
(396,513,cs),
(438,513,o),
(474,501,o),
(493,491,c),
(501,517,l),
(483,526,o),
(445,538,o),
(395,538,cs),
(283,538,o),
(209,476,o),
(209,329,cs)
);
}
);
width = 600;
},
{
anchors = (
{
name = bottom;
pos = (300,0);
},
{
name = top;
pos = (350,536);
}
);
layerId = UUID0;
shapes = (
{
closed = 1;
nodes = (
(174,0,l),
(261,0,l),
(261,307,ls),
(261,421,o),
(304,470,o),
(387,470,cs),
(434,470,o),
(470,458,o),
(489,448,c),
(506,523,l),
(480,535,o),
(441,546,o),
(384,546,cs),
(255,546,o),
(174,466,o),
(174,318,cs)
);
}
);
width = 600;
},
{
anchors = (
{
name = bottom;
pos = (300,0);
},
{
name = top;
pos = (351,546);
}
);
layerId = "A3018D0F-8B4B-4295-AE04-84912D9BB11D";
shapes = (
{
closed = 1;
nodes = (
(164,0,l),
(308,0,l),
(308,276,ls),
(308,377,o),
(337,431,o),
(436,431,cs),
(462,431,o),
(491,425,o),
(510,419,c),
(530,540,l),
(504,549,o),
(465,558,o),
(420,558,cs),
(256,558,o),
(164,475,o),
(164,284,cs)
);
}
);
width = 600;
},
{
anchors = (
{
name = bottom;
pos = (300,0);
},
{
name = top;
pos = (354,553);
}
);
layerId = "963C7F4A-CFE2-43FC-8D10-B7434095D111";
shapes = (
{
closed = 1;
nodes = (
(158,0,l),
(333,0,l),
(333,279,ls),
(333,349,o),
(356,411,o),
(451,411,cs),
(479,411,o),
(498,406,o),
(518,398,c),
(546,544,l),
(515,556,o),
(466,566,o),
(409,566,cs),
(256,566,o),
(158,481,o),
(158,289,cs)
);
}
);
width = 600;
},
{
anchors = (
{
name = bottom;
pos = (250,0);
},
{
name = top;
pos = (320,528);
}
);
layerId = "82FB5ACD-33BC-4284-9837-1B4D88A7F1E9";
shapes = (
{
closed = 1;
nodes = (
(180,0,l),
(206,0,l),
(206,346,ls),
(206,472,o),
(267,513,o),
(343,513,cs),
(381,513,o),
(417,501,o),
(436,491,c),
(444,517,l),
(426,526,o),
(388,538,o),
(342,538,cs),
(250,538,o),
(180,480,o),
(180,353,cs)
);
}
);
width = 500;
},
{
anchors = (
{
name = bottom;
pos = (250,0);
},
{
name = top;
pos = (324,536);
}
);
layerId = "C5665599-2906-40DA-AF7F-7DBC0844951A";
shapes = (
{
closed = 1;
nodes = (
(172,0,l),
(256,0,l),
(256,348,ls),
(256,432,o),
(291,470,o),
(356,470,cs),
(394,470,o),
(424,458,o),
(443,448,c),
(458,525,l),
(432,535,o),
(401,546,o),
(353,546,cs),
(244,546,o),
(172,477,o),
(172,359,cs)
);
}
);
width = 500;
},
{
anchors = (
{
name = bottom;
pos = (250,0);
},
{
name = top;
pos = (313,546);
}
);
layerId = "28AE7390-0F8D-4D03-A566-30BDF518EAE7";
shapes = (
{
closed = 1;
nodes = (
(145,0,l),
(283,0,l),
(283,306,ls),
(283,377,o),
(304,431,o),
(387,431,cs),
(414,431,o),
(429,427,o),
(448,421,c),
(468,542,l),
(442,551,o),
(412,558,o),
(371,558,cs),
(216,558,o),
(145,475,o),
(145,314,cs)
);
}
);
width = 500;
},
{
anchors = (
{
name = bottom;
pos = (250,0);
},
{
name = top;
pos = (300,553);
}
);
layerId = "35DC4C3B-953E-41FE-A906-9781CEBB9B49";
shapes = (
{
closed = 1;
nodes = (
(124,0,l),
(278,0,l),
(278,295,ls),
(278,390,o),
(316,421,o),
(379,421,cs),
(408,421,o),
(425,416,o),
(440,410,c),
(464,548,l),
(442,555,o),
(403,563,o),
(363,563,cs),
(191,563,o),
(124,458,o),
(124,300,cs)
);
}
);
width = 500;
}
);
script = latin;
subCategory = Lowercase;
unicode = 638;
}
{
category = Letter;
glyphname = esh;
layers = (
{
anchors = (
{
name = bottom;
pos = (223,-240);
},
{
name = top;
pos = (416,763);
}
);
layerId = "02EF4DD5-EF93-4764-9336-ED93C6797AC3";
shapes = (
{
closed = 1;
nodes = (
(271,-240,o),
(321,-184,o),
(321,-66,cs),
(321,575,ls),
(321,681,o),
(364,738,o),
(445,738,cs),
(477,738,o),
(507,731,o),
(522,724,c),
(522,749,l),
(506,756,o),
(480,763,o),
(446,763,cs),
(348,763,o),
(295,697,o),
(295,578,cs),
(295,-63,ls),
(295,-174,o),
(247,-215,o),
(177,-215,cs),
(136,-215,o),
(106,-203,o),
(89,-194,c),
(89,-221,l),
(104,-229,o),
(134,-240,o),
(177,-240,cs)
);
}
);
width = 600;
},
{
anchors = (
{
name = bottom;
pos = (224,-240);
},
{
name = top;
pos = (396,763);
}
);
layerId = UUID0;
shapes = (
{
closed = 1;
nodes = (
(265,-240,o),
(343,-171,o),
(343,-43,cs),
(343,567,ls),
(343,646,o),
(380,689,o),
(450,689,cs),
(484,689,o),
(506,683,o),
(518,677,c),
(518,752,l),
(500,759,o),
(476,765,o),
(437,765,cs),
(334,765,o),
(255,699,o),
(255,568,cs),
(255,-42,ls),
(255,-121,o),
(220,-163,o),
(154,-163,cs),
(121,-163,o),
(95,-155,o),
(82,-148,c),
(82,-226,l),
(96,-233,o),
(122,-240,o),
(164,-240,cs)
);
}
);
width = 600;
},
{
anchors = (
{
name = bottom;
pos = (240,-240);
},
{
name = top;
pos = (386,763);
}
);
layerId = "A3018D0F-8B4B-4295-AE04-84912D9BB11D";
shapes = (
{
closed = 1;
nodes = (
(298,-240,o),
(375,-159,o),
(375,-19,cs),
(375,534,ls),
(375,614,o),
(405,641,o),
(461,641,cs),
(484,641,o),
(501,637,o),
(514,633,c),
(514,755,l),
(496,761,o),
(469,767,o),
(434,767,cs),
(322,767,o),
(232,708,o),
(232,546,cs),
(232,-3,ls),
(232,-80,o),
(202,-113,o),
(145,-113,cs),
(123,-113,o),
(103,-109,o),
(86,-102,c),
(86,-227,l),
(108,-235,o),
(137,-240,o),
(172,-240,cs)
);
}
);
width = 600;
},
{
anchors = (
{
name = bottom;
pos = (241,-240);
},
{
name = top;
pos = (376,763);
}
);
layerId = "963C7F4A-CFE2-43FC-8D10-B7434095D111";
shapes = (
{
closed = 1;
nodes = (
(319,-240,o),
(390,-136,o),
(390,-10,cs),
(390,538,ls),
(390,587,o),
(417,617,o),
(462,617,cs),
(488,617,o),
(511,612,o),
(524,608,c),
(524,755,l),
(506,762,o),
(472,770,o),
(422,770,c),
(286,770,o),
(206,682,o),
(206,546,cs),
(206,1,ls),
(206,-56,o),
(176,-80,o),
(129,-80,cs),
(108,-80,o),
(92,-77,o),
(76,-71,c),
(76,-222,l),
(95,-230,o),
(135,-240,o),
(174,-240,cs)
);
}
);
width = 600;
},
{
anchors = (
{
name = bottom;
pos = (151,-240);
},
{
name = top;
pos = (366,763);
}
);
layerId = "82FB5ACD-33BC-4284-9837-1B4D88A7F1E9";
shapes = (
{
closed = 1;
nodes = (
(206,-240,o),
(265,-184,o),
(265,-66,cs),
(265,575,ls),
(265,687,o),
(308,738,o),
(389,738,cs),
(421,738,o),
(451,731,o),
(466,724,c),
(466,749,l),
(450,756,o),
(424,763,o),
(390,763,cs),
(292,763,o),
(239,697,o),
(239,578,cs),
(239,-63,ls),
(239,-174,o),
(191,-215,o),
(121,-215,cs),
(80,-215,o),
(50,-202,o),
(33,-193,c),
(33,-221,l),
(48,-229,o),
(78,-240,o),
(121,-240,cs)
);
}
);
width = 500;
},
{
anchors = (
{
name = bottom;
pos = (177,-240);
},
{
name = top;
pos = (336,763);
}
);
layerId = "C5665599-2906-40DA-AF7F-7DBC0844951A";
shapes = (
{
closed = 1;
nodes = (
(214,-240,o),
(291,-171,o),
(291,-43,cs),
(291,567,ls),
(291,646,o),
(329,689,o),
(400,689,cs),
(434,689,o),
(456,683,o),
(468,677,c),
(468,752,l),
(450,759,o),
(426,765,o),
(387,765,cs),
(286,765,o),
(209,699,o),
(209,568,cs),
(209,-42,ls),
(209,-121,o),
(173,-163,o),
(104,-163,cs),
(71,-163,o),
(45,-155,o),
(32,-148,c),
(32,-226,l),
(46,-233,o),
(72,-240,o),
(114,-240,cs)
);
}
);
width = 500;
},
{
anchors = (
{
name = bottom;
pos = (191,-240);
},
{
name = top;
pos = (326,763);
}
);
layerId = "28AE7390-0F8D-4D03-A566-30BDF518EAE7";
shapes = (
{
closed = 1;
nodes = (
(241,-240,o),
(314,-159,o),
(314,-19,cs),
(314,534,ls),
(314,625,o),
(348,656,o),
(411,656,cs),
(434,656,o),
(451,652,o),
(464,648,c),
(464,755,l),
(446,761,o),
(419,767,o),
(384,767,cs),
(276,767,o),
(189,708,o),
(189,546,cs),
(189,2,ls),
(189,-86,o),
(157,-123,o),
(95,-123,cs),
(73,-123,o),
(53,-119,o),
(36,-112,c),
(36,-227,l),
(58,-235,o),
(87,-240,o),
(122,-240,cs)
);
}
);
width = 500;
},
{
anchors = (
{
name = bottom;
pos = (203,-240);
},
{
name = top;
pos = (306,763);
}
);
layerId = "35DC4C3B-953E-41FE-A906-9781CEBB9B49";
shapes = (
{
closed = 1;
nodes = (
(286,-240,o),
(334,-190,o),
(334,-64,cs),
(334,579,ls),
(334,620,o),
(350,638,o),
(384,638,cs),
(398,638,o),
(413,635,o),
(429,629,c),
(429,754,l),
(412,760,o),
(374,765,o),
(351,765,cs),
(243,765,o),
(180,697,o),
(180,581,cs),
(180,-64,ls),
(180,-99,o),
(167,-113,o),
(140,-113,cs),
(117,-113,o),
(98,-106,o),
(76,-94,c),
(76,-212,l),
(106,-231,o),
(142,-240,o),
(182,-240,cs)
);
}
);
width = 500;
}
);
script = latin;
subCategory = Lowercase;
unicode = 643;
}
{
category = Letter;
glyphname = tccurl;
layers = (
{
anchors = (
{
name = bottom;
pos = (600,0);
},
{
name = top;
pos = (600,659);
}
);
layerId = "02EF4DD5-EF93-4764-9336-ED93C6797AC3";
shapes = (
{
closed = 1;
nodes = (
(618,-10,o),
(745,176,o),
(933,176,cs),
(1010,176,o),
(1046,145,o),
(1046,100,cs),
(1046,53,o),
(1008,15,o),
(915,15,cs),
(755,15,o),
(673,129,o),
(673,261,cs),
(673,400,o),
(763,512,o),
(910,512,cs),
(947,512,o),
(995,505,o),
(1035,487,c),
(1040,513,l),
(1002,529,o),
(957,537,o),
(913,537,cs),
(744,537,o),
(646,416,o),
(646,260,cs),
(646,98,o),
(753,-10,o),
(916,-10,cs),
(1024,-10,o),
(1073,37,o),
(1073,100,cs),
(1073,160,o),
(1028,201,o),
(932,201,cs),
(736,201,o),
(601,15,o),
(414,15,cs),
(309,15,o),
(281,73,o),
(281,183,cs),
(281,503,l),
(498,503,l),
(498,528,l),
(281,528,l),
(281,659,l),
(259,659,l),
(254,528,l),
(84,524,l),
(84,503,l),
(255,503,l),
(255,180,ls),
(255,59,o),
(291,-10,o),
(415,-10,cs)
);
}
);
width = 1200;
},
{
anchors = (
{
name = bottom;
pos = (600,0);
},
{
name = top;
pos = (600,679);
}
);
layerId = UUID0;
shapes = (
{
closed = 1;
nodes = (
(714,-10,o),
(757,204,o),
(909,204,cs),
(960,204,o),
(994,180,o),
(994,139,cs),
(994,98,o),
(960,63,o),
(885,63,cs),
(769,63,o),
(702,146,o),
(702,274,cs),
(702,395,o),
(761,468,o),
(889,468,cs),
(937,468,o),
(977,458,o),
(1023,436,c),
(1050,509,l),
(1002,533,o),
(945,546,o),
(884,546,cs),
(724,546,o),
(610,457,o),
(610,271,cs),
(610,100,o),
(707,-10,o),
(879,-10,cs),
(1000,-10,o),
(1077,44,o),
(1077,140,cs),
(1077,224,o),
(1017,281,o),
(912,281,cs),
(706,281,o),
(664,63,o),
(442,63,cs),
(344,63,o),
(292,105,o),
(292,197,cs),
(292,461,l),
(501,461,l),
(501,536,l),
(292,536,l),
(292,679,l),
(220,679,l),
(202,539,l),
(56,523,l),
(56,461,l),
(202,461,l),
(202,188,ls),
(202,33,o),
(309,-10,o),
(434,-10,cs)
);
}
);
width = 1200;
},
{
anchors = (
{
name = bottom;
pos = (600,0);
},
{
name = top;
pos = (600,682);
}
);
layerId = "A3018D0F-8B4B-4295-AE04-84912D9BB11D";
shapes = (
{
closed = 1;
nodes = (
(623,-10,o),
(779,210,o),
(919,210,cs),
(960,210,o),
(980,191,o),
(980,160,cs),
(980,119,o),
(943,107,o),
(908,107,cs),
(811,107,o),
(767,200,o),
(767,286,cs),
(767,378,o),
(818,433,o),
(919,433,cs),
(949,433,o),
(993,428,o),
(1047,407,c),
(1089,522,l),
(1031,547,o),
(969,556,o),
(911,556,cs),
(717,556,o),
(620,457,o),
(620,278,cs),
(620,69,o),
(753,-10,o),
(894,-10,cs),
(1002,-10,o),
(1107,37,o),
(1107,159,cs),
(1107,259,o),
(1036,324,o),
(929,324,cs),
(735,324,o),
(593,111,o),
(414,111,cs),
(366,111,o),
(323,126,o),
(323,213,cs),
(323,426,l),
(528,426,l),
(528,546,l),
(323,546,l),
(323,682,l),
(213,682,l),
(189,546,l),
(53,516,l),
(53,426,l),
(178,426,l),
(178,188,ls),
(178,49,o),
(254,-10,o),
(383,-10,cs)
);
}
);
width = 1200;
},
{
anchors = (
{
name = bottom;
pos = (600,0);
},
{
name = top;
pos = (600,677);
}
);
layerId = "963C7F4A-CFE2-43FC-8D10-B7434095D111";
shapes = (
{
closed = 1;
nodes = (
(707,-10,o),
(799,200,o),
(929,200,cs),
(965,200,o),
(977,184,o),
(977,163,cs),
(977,132,o),
(950,122,o),
(916,122,cs),
(831,122,o),
(769,186,o),
(769,283,cs),
(769,373,o),
(823,422,o),
(926,422,cs),
(962,422,o),
(1007,416,o),
(1057,392,c),
(1109,520,l),
(1049,549,o),
(983,563,o),
(908,563,cs),
(710,563,o),
(606,459,o),
(606,276,cs),
(606,86,o),
(716,-10,o),
(899,-10,cs),
(1055,-10,o),
(1123,55,o),
(1123,164,cs),
(1123,268,o),
(1062,325,o),
(945,325,cs),
(730,325,o),
(626,125,o),
(456,125,cs),
(401,125,o),
(347,147,o),
(347,244,cs),
(347,413,l),
(538,413,l),
(538,553,l),
(347,553,l),
(347,677,l),
(217,677,l),
(190,552,l),
(34,498,l),
(34,413,l),
(172,413,l),
(172,204,ls),
(172,67,o),
(230,-10,o),
(417,-10,cs)
);
}
);
width = 1200;
},
{
anchors = (
{
name = bottom;
pos = (500,0);
},
{
name = top;
pos = (500,659);
}
);
layerId = "82FB5ACD-33BC-4284-9837-1B4D88A7F1E9";
shapes = (
{
closed = 1;
nodes = (
(520,-10,o),
(586,176,o),
(764,176,cs),
(837,176,o),
(875,145,o),
(875,100,cs),
(875,53,o),
(833,15,o),
(754,15,cs),
(605,15,o),
(541,148,o),
(541,274,cs),
(541,414,o),
(620,512,o),
(749,512,cs),
(784,512,o),
(833,505,o),
(873,487,c),
(878,513,l),
(840,529,o),
(794,537,o),
(752,537,cs),
(601,537,o),
(514,431,o),
(514,271,cs),
(514,111,o),
(602,-10,o),
(754,-10,cs),
(848,-10,o),
(902,37,o),
(902,101,cs),
(902,160,o),
(855,201,o),
(764,201,cs),
(570,201,o),
(508,15,o),
(347,15,cs),
(254,15,o),
(219,77,o),
(219,183,cs),
(219,503,l),
(396,503,l),
(396,528,l),
(219,528,l),
(219,659,l),
(197,659,l),
(192,528,l),
(62,524,l),
(62,503,l),
(193,503,l),
(193,180,ls),
(193,74,o),
(224,-10,o),
(343,-10,cs)
);
}
);
width = 1000;
},
{
anchors = (
{
name = bottom;
pos = (500,0);
},
{
name = top;
pos = (500,679);
}
);
layerId = "C5665599-2906-40DA-AF7F-7DBC0844951A";
shapes = (
{
closed = 1;
nodes = (
(599,-10,o),
(625,201,o),
(775,201,cs),
(825,201,o),
(853,177,o),
(853,140,cs),
(853,99,o),
(818,63,o),
(751,63,cs),
(645,63,o),
(596,153,o),
(596,277,cs),
(596,403,o),
(647,468,o),
(757,468,cs),
(801,468,o),
(839,458,o),
(882,436,c),
(909,509,l),
(863,533,o),
(813,546,o),
(754,546,cs),
(605,546,o),
(504,463,o),
(504,275,cs),
(504,105,o),
(586,-10,o),
(747,-10,cs),
(857,-10,o),
(936,44,o),
(936,140,cs),
(936,220,o),
(881,276,o),
(779,276,cs),
(580,276,o),
(541,63,o),
(385,63,cs),
(318,63,o),
(271,103,o),
(271,180,cs),
(271,461,l),
(445,461,l),
(445,536,l),
(271,536,l),
(271,679,l),
(199,679,l),
(181,539,l),
(49,523,l),
(49,461,l),
(181,461,l),
(181,173,ls),
(181,31,o),
(273,-10,o),
(373,-10,cs)
);
}
);
width = 1000;
},
{
anchors = (
{
name = bottom;
pos = (500,0);
},
{
name = top;
pos = (500,682);
}
);
layerId = "28AE7390-0F8D-4D03-A566-30BDF518EAE7";
shapes = (
{
closed = 1;
nodes = (
(544,-10,o),
(653,202,o),
(784,202,cs),
(822,202,o),
(840,184,o),
(840,154,cs),
(840,113,o),
(808,99,o),
(771,99,cs),
(683,99,o),
(619,167,o),
(619,278,cs),
(619,378,o),
(667,437,o),
(764,437,cs),
(810,437,o),
(841,431,o),
(890,407,c),
(932,522,l),
(874,547,o),
(810,556,o),
(758,556,cs),
(580,556,o),
(492,451,o),
(492,275,cs),
(492,63,o),
(620,-10,o),
(752,-10,cs),
(858,-10,o),
(954,37,o),
(954,157,cs),
(954,254,o),
(891,316,o),
(785,316,cs),
(592,316,o),
(501,111,o),
(359,111,cs),
(308,111,o),
(285,138,o),
(285,220,cs),
(285,426,l),
(470,426,l),
(470,546,l),
(285,546,l),
(285,682,l),
(185,682,l),
(161,546,l),
(25,516,l),
(25,426,l),
(150,426,l),
(150,174,ls),
(150,52,o),
(212,-10,o),
(329,-10,cs)
);
}
);
width = 1000;
},
{
anchors = (
{
name = bottom;
pos = (500,0);
},
{
name = top;
pos = (500,677);
}
);
layerId = "35DC4C3B-953E-41FE-A906-9781CEBB9B49";
shapes = (
{
closed = 1;
nodes = (
(595,-10,o),
(660,195,o),
(777,195,cs),
(811,195,o),
(823,179,o),
(823,156,cs),
(823,123,o),
(797,110,o),
(761,110,cs),
(668,110,o),
(636,194,o),
(636,279,cs),
(636,383,o),
(681,429,o),
(770,429,cs),
(810,429,o),
(849,420,o),
(889,392,c),
(941,520,l),
(886,550,o),
(819,563,o),
(753,563,cs),
(572,563,o),
(485,459,o),
(485,276,cs),
(485,86,o),
(588,-10,o),
(753,-10,cs),
(883,-10,o),
(959,55,o),
(959,156,cs),
(959,264,o),
(895,319,o),
(789,319,cs),
(599,319,o),
(547,135,o),
(380,135,cs),
(336,135,o),
(299,158,o),
(299,229,cs),
(299,413,l),
(464,413,l),
(464,553,l),
(299,553,l),
(299,677,l),
(189,677,l),
(162,552,l),
(26,498,l),
(26,413,l),
(144,413,l),
(144,204,ls),
(144,68,o),
(195,-10,o),
(336,-10,cs)
);
}
);
width = 1000;
}
);
script = latin;
subCategory = Lowercase;
unicode = 680;
}
{
category = Letter;
glyphname = lzdigraph;
layers = (
{
anchors = (
{
name = bottom;
pos = (300,0);
},
{
name = top;
pos = (300,760);
}
);
layerId = "02EF4DD5-EF93-4764-9336-ED93C6797AC3";
shapes = (
{
closed = 1;
nodes = (
(512,0,l),
(512,25,l),
(177,25,l),
(515,513,l),
(515,528,l),
(147,528,l),
(147,760,l),
(121,760,l),
(121,0,l)
);
},
{
closed = 1;
nodes = (
(147,503,l),
(477,503,l),
(147,26,l)
);
}
);
width = 600;
},
{
anchors = (
{
name = bottom;
pos = (300,0);
},
{
name = top;
pos = (300,760);
}
);
layerId = UUID0;
shapes = (
{
closed = 1;
nodes = (
(547,0,l),
(547,68,l),
(268,68,l),
(540,470,l),
(540,536,l),
(168,536,l),
(168,760,l),
(80,760,l),
(80,0,l)
);
},
{
closed = 1;
nodes = (
(168,468,l),
(443,468,l),
(168,59,l)
);
}
);
width = 600;
},
{
anchors = (
{
name = bottom;
pos = (300,0);
},
{
name = top;
pos = (300,760);
}
);
layerId = "A3018D0F-8B4B-4295-AE04-84912D9BB11D";
shapes = (
{
closed = 1;
nodes = (
(562,0,l),
(562,114,l),
(365,114,l),
(561,449,l),
(561,546,l),
(209,546,l),
(209,760,l),
(67,760,l),
(67,0,l)
);
},
{
closed = 1;
nodes = (
(209,432,l),
(402,432,l),
(209,101,l)
);
}
);
width = 600;
},
{
anchors = (
{
name = bottom;
pos = (300,0);
},
{
name = top;
pos = (300,760);
}
);
layerId = "963C7F4A-CFE2-43FC-8D10-B7434095D111";
shapes = (
{
closed = 1;
nodes = (
(570,0,l),
(570,138,l),
(393,138,l),
(561,443,l),
(561,553,l),
(218,553,l),
(218,760,l),
(55,760,l),
(55,0,l)
);
},
{
closed = 1;
nodes = (
(218,415,l),
(382,415,l),
(218,131,l)
);
}
);
width = 600;
},
{
anchors = (
{
name = bottom;
pos = (250,0);
},
{
name = top;
pos = (250,760);
}
);
layerId = "82FB5ACD-33BC-4284-9837-1B4D88A7F1E9";
shapes = (
{
closed = 1;
nodes = (
(431,0,l),
(431,25,l),
(153,25,l),
(431,509,l),
(431,528,l),
(127,528,l),
(127,760,l),
(101,760,l),
(101,0,l)
);
},
{
closed = 1;
nodes = (
(127,503,l),
(397,503,l),
(127,33,l)
);
}
);
width = 500;
},
{
anchors = (
{
name = bottom;
pos = (250,0);
},
{
name = top;
pos = (250,760);
}
);
layerId = "C5665599-2906-40DA-AF7F-7DBC0844951A";
shapes = (
{
closed = 1;
nodes = (
(451,0,l),
(451,69,l),
(243,69,l),
(444,478,l),
(444,537,l),
(156,537,l),
(156,760,l),
(75,760,l),
(75,0,l)
);
},
{
closed = 1;
nodes = (
(156,468,l),
(356,468,l),
(156,63,l)
);
}
);
width = 500;
},
{
anchors = (
{
name = bottom;
pos = (250,0);
},
{
name = top;
pos = (250,760);
}
);
layerId = "28AE7390-0F8D-4D03-A566-30BDF518EAE7";
shapes = (
{
closed = 1;
nodes = (
(471,0,l),
(471,109,l),
(326,109,l),
(463,459,l),
(463,547,l),
(189,547,l),
(189,760,l),
(59,760,l),
(59,0,l)
);
},
{
closed = 1;
nodes = (
(189,437,l),
(318,437,l),
(189,89,l)
);
}
);
width = 500;
},
{
anchors = (
{
name = bottom;
pos = (250,0);
},
{
name = top;
pos = (250,760);
}
);
layerId = "35DC4C3B-953E-41FE-A906-9781CEBB9B49";
shapes = (
{
closed = 1;
nodes = (
(475,0,l),
(475,135,l),
(344,135,l),
(467,436,l),
(467,553,l),
(195,553,l),
(195,760,l),
(40,760,l),
(40,0,l)
);
},
{
closed = 1;
nodes = (
(195,418,l),
(309,418,l),
(195,135,l)
);
}
);
width = 500;
}
);
script = latin;
subCategory = Lowercase;
unicode = 683;
}
{
category = Mark;
glyphname = dotaccent;
layers = (
{
layerId = UUID0;
shapes = (
{
closed = 1;
nodes = (
(334,633,o),
(363,654,o),
(363,696,cs),
(363,740,o),
(334,760,o),
(300,760,cs),
(265,760,o),
(237,740,o),
(237,696,cs),
(237,654,o),
(265,633,o),
(300,633,cs)
);
}
);
width = 600;
},
{
layerId = "A3018D0F-8B4B-4295-AE04-84912D9BB11D";
shapes = (
{
closed = 1;
nodes = (
(358,608,o),
(388,638,o),
(388,693,cs),
(388,747,o),
(359,776,o),
(300,776,cs),
(240,776,o),
(211,747,o),
(211,692,cs),
(211,636,o),
(241,608,o),
(298,608,cs)
);
}
);
width = 600;
},
{
layerId = "963C7F4A-CFE2-43FC-8D10-B7434095D111";
shapes = (
{
closed = 1;
nodes = (
(374,601,o),
(405,635,o),
(405,690,cs),
(405,746,o),
(373,777,o),
(302,777,cs),
(231,777,o),
(197,746,o),
(197,690,cs),
(197,631,o),
(234,601,o),
(302,601,cs)
);
}
);
width = 600;
},
{
layerId = "02EF4DD5-EF93-4764-9336-ED93C6797AC3";
shapes = (
{
closed = 1;
nodes = (
(326,660,o),
(330,679,o),
(330,697,cs),
(330,716,o),
(324,734,o),
(300,734,cs),
(274,734,o),
(268,716,o),
(268,697,cs),
(268,677,o),
(275,660,o),
(300,660,cs)
);
}
);
width = 600;
},
{
layerId = "82FB5ACD-33BC-4284-9837-1B4D88A7F1E9";
shapes = (
{
closed = 1;
nodes = (
(277,660,o),
(281,679,o),
(281,697,cs),
(281,716,o),
(275,734,o),
(251,734,cs),
(225,734,o),
(219,716,o),
(219,697,cs),
(219,677,o),
(226,660,o),
(251,660,cs)
);
}
);
width = 500;
},
{
layerId = "C5665599-2906-40DA-AF7F-7DBC0844951A";
shapes = (
{
closed = 1;
nodes = (
(283,633,o),
(306,654,o),
(306,698,cs),
(306,744,o),
(283,765,o),
(249,765,cs),
(215,765,o),
(193,744,o),
(193,698,cs),
(193,655,o),
(214,633,o),
(249,633,cs)
);
}
);
width = 500;
},
{
layerId = "28AE7390-0F8D-4D03-A566-30BDF518EAE7";
shapes = (
{
closed = 1;
nodes = (
(305,617,o),
(328,645,o),
(328,694,cs),
(328,744,o),
(303,771,o),
(250,771,cs),
(198,771,o),
(171,744,o),
(171,694,cs),
(171,643,o),
(202,617,o),
(250,617,cs)
);
}
);
width = 500;
},
{
layerId = "35DC4C3B-953E-41FE-A906-9781CEBB9B49";
shapes = (
{
closed = 1;
nodes = (
(312,608,o),
(338,639,o),
(338,691,cs),
(338,745,o),
(311,774,o),
(250,774,cs),
(191,774,o),
(161,745,o),
(161,691,cs),
(161,636,o),
(193,608,o),
(250,608,cs)
);
}
);
width = 500;
}
);
script = "";
subCategory = Spacing;
unicode = 729;
}
